<?xml version="1.0" encoding="utf-8"?>
<!-- Generator: Adobe Illustrator 26.5.0, SVG Export Plug-In . SVG Version: 6.00 Build 0)  -->
<svg version="1.1" id="图层_1" xmlns="http://www.w3.org/2000/svg" xmlns:xlink="http://www.w3.org/1999/xlink" x="0px" y="0px"
	 viewBox="0 0 841.89 595.28" style="enable-background:new 0 0 841.89 595.28;" xml:space="preserve">
<style type="text/css">
	.st0{fill:#FFFFFF;}
	.st1{fill:#040000;}
	.st2{fill:#231815;}
	.st3{fill:#E61F19;}
	.st4{fill:#00B0EC;}
	.st5{fill:#FF61B7;}
	.st6{fill:none;stroke:#231815;stroke-miterlimit:10;}
	.st7{fill:#FFFFFF;stroke:#231815;stroke-miterlimit:10;}
	.st8{fill:#5ADBAF;}
	.st9{fill:#FEC600;}
	.st10{fill:#476AB1;}
	.st11{fill:#F68B00;}
</style>
<g>
	<path class="st5" d="M452.66,327.55v60.05h134.55l15.46-16.19v-43.86H452.66z M565.05,362.8h-74.78v-10.44h74.78V362.8z"/>
	<path class="st5" d="M452.66,398.04v92.41h134.55l15.46-16.19v-76.22H452.66z M510,465.7h-19.73v-9.02H510V465.7z M510,431.87
		h-19.73v-9.02H510V431.87z M565.05,465.7h-17.18v-9.02h17.18V465.7z M565.05,431.87h-17.18v-9.02h17.18V431.87z"/>
	<polygon class="st5" points="256.4,192.31 256.4,135.61 410.72,135.61 410.72,126.6 458.8,126.6 458.8,135.61 602.7,135.61 
		602.7,174.73 554.62,174.73 554.62,165.03 292.49,165.03 292.49,192.31 	"/>
	<polygon class="st5" points="293.32,135.55 292.9,192.44 292.9,460.87 280.91,490.37 248.31,490.37 239.08,460.88 254.95,460.88 
		254.95,361.09 239.08,362.77 239.08,333.28 254.95,331.6 254.95,244.29 239.08,242.59 239.08,211.01 254.95,212.69 254.95,135.55 	
		"/>
	<polygon class="st5" points="352.96,374.81 352.96,334.43 302.75,334.43 302.75,183.41 319.49,183.41 320.97,177.47 350.5,177.47 
		347.79,205.46 332.78,213.94 332.78,241.03 350.01,241.03 350.01,270.52 332.78,270.52 332.78,301.61 352.96,301.61 352.96,178.32 
		393.33,178.32 393.33,301.61 411.54,301.61 411.54,268.59 397.26,268.59 397.26,239.13 411.54,239.13 411.54,207.89 398,207.89 
		398,178.3 445.51,178.3 445.51,318.32 430.05,334.43 393.76,334.43 393.76,374.81 	"/>
	<path class="st5" d="M546.81,281.88h41.63v-24.81h-41.63v-10.44h38.09v-9.41h2.7l5.91,0.14h6.42l2.87-18.25h-8.45l-21.95-35.37
		h-89.35l-21.95,35.37h-8.45l2.87,18.25l12.33-0.14h0.67v9.41h39.98v10.44h-39.3v24.81h39.3v10.44h-54.33v24.81h147.11v-24.81
		h-54.47V281.88z M496.57,221.83l9.29-14.22h43.74l9.29,14.22H496.57z"/>
	<polygon class="st5" points="360.96,461.5 370.43,461.5 370.43,490.5 339.8,490.5 333.25,479.09 326.11,490.5 301.42,490.5 
		301.42,461.5 313.43,461.5 319.99,451.1 301.71,429.38 301.71,386.89 329.31,386.89 329.31,410.19 335.14,426 341.4,410.48 
		341.4,374.83 301.71,374.83 301.71,345.47 370.5,345.47 370.5,390.88 370.35,429.67 354.4,450.23 	"/>
	<polygon class="st5" points="435.75,461.5 445.51,461.5 445.51,490.5 414.59,490.5 408.04,479.09 400.9,490.5 376.21,490.5 
		376.21,461.5 388.22,461.5 394.78,451.1 376.5,429.38 376.5,386.89 404.1,386.89 404.1,410.19 409.93,426 416.19,410.48 
		416.19,374.83 376.5,374.83 376.5,345.47 445.29,345.47 445.29,390.88 445.14,429.67 429.19,450.23 	"/>
</g>
</svg>
