<?xml version="1.0" encoding="utf-8"?>
<!-- Generator: Adobe Illustrator 26.5.0, SVG Export Plug-In . SVG Version: 6.00 Build 0)  -->
<svg version="1.1" id="图层_1" xmlns="http://www.w3.org/2000/svg" xmlns:xlink="http://www.w3.org/1999/xlink" x="0px" y="0px"
	 viewBox="0 0 841.89 595.28" style="enable-background:new 0 0 841.89 595.28;" xml:space="preserve">
<style type="text/css">
	.st0{fill:#FFFFFF;}
	.st1{fill:#040000;}
	.st2{fill:#231815;}
	.st3{fill:#E61F19;}
	.st4{fill:#00B0EC;}
	.st5{fill:#FF61B7;}
	.st6{fill:none;stroke:#231815;stroke-miterlimit:10;}
	.st7{fill:#FFFFFF;stroke:#231815;stroke-miterlimit:10;}
	.st8{fill:#5ADBAF;}
	.st9{fill:#FEC600;}
	.st10{fill:#476AB1;}
	.st11{fill:#F68B00;}
</style>
<g>
	<path class="st8" d="M373.74,126.43v56.46h-90.21v-15.91h81.95L373.74,126.43H239.47v112.16v2.6v61.89l33.8,1.45l10.25-10.1v-25.32
		h90.21v5.81l-10.15-0.46v28.61h29.49l24.72-9.18V126.43H373.74z M283.52,213.23h90.21v15.88h-79.75l-10.47,40"/>
	<polyline class="st8" points="358.03,269.11 358.03,313.59 417.79,313.59 417.79,354.01 358.03,354.01 358.03,373.65 
		327.42,373.65 299.04,373.65 299.04,354.01 239.47,354.01 239.47,313.59 299.04,313.59 299.04,269.11 	"/>
	<polygon class="st8" points="283.52,446.63 283.52,488.77 239.47,488.77 239.47,372.21 374.03,372.21 367.8,398.53 283.52,398.53 
		283.52,414.45 358.16,414.45 358.16,446.63 	"/>
	<polygon class="st8" points="417.79,372.21 417.79,488.77 283.52,488.77 289.75,462.44 374.03,462.44 374.03,372.21 	"/>
	<polygon class="st8" points="600.99,160.8 600.99,236.64 495.84,236.64 479.23,303.08 424.06,303.08 437.42,236.64 425.87,236.64 
		425.87,160.8 556.94,160.8 546.1,190.56 470.14,190.56 470.14,233.71 470.14,234.53 480.25,206.26 556.94,206.26 556.94,160.8 	"/>
	<polygon class="st8" points="433.81,156.38 428.03,126.43 501.33,126.43 507.83,156.38 	"/>
	<polygon class="st8" points="563.7,259.03 600.99,259.03 600.99,303.08 538.66,303.08 519.65,291.75 519.65,241.83 563.7,241.83 	
		"/>
	<polygon class="st8" points="592.69,156.38 519.03,156.38 524.8,126.43 598.1,126.43 	"/>
	<path class="st8" d="M602.43,428.96V307.5h-44.59v48.05h-21.12v-15.87h15.25l5.87-32.18H424.06v121.46h44.4v-45.83h21.32v15.32
		h-15.45l-5.87,30.52h16.43v15.87h-60.83v28.07h60.83v16.49h56.72V472.9h60.82v-28.07H541.6v-15.87H602.43z M489.78,355.55h-21.32
		v-15.87h21.32V355.55z M536.72,398.44v-15.32h21.12v15.32H536.72z"/>
</g>
</svg>
