<?xml version="1.0" encoding="utf-8"?>
<!-- Generator: Adobe Illustrator 26.5.0, SVG Export Plug-In . SVG Version: 6.00 Build 0)  -->
<svg version="1.1" id="图层_1" xmlns="http://www.w3.org/2000/svg" xmlns:xlink="http://www.w3.org/1999/xlink" x="0px" y="0px"
	 viewBox="0 0 841.89 595.28" style="enable-background:new 0 0 841.89 595.28;" xml:space="preserve">
<style type="text/css">
	.st0{fill:#FFFFFF;}
	.st1{fill:#040000;}
	.st2{fill:#231815;}
	.st3{fill:#E61F19;}
	.st4{fill:#00B0EC;}
	.st5{fill:#FF61B7;}
	.st6{fill:none;stroke:#231815;stroke-miterlimit:10;}
	.st7{fill:#FFFFFF;stroke:#231815;stroke-miterlimit:10;}
	.st8{fill:#5ADBAF;}
	.st9{fill:#FEC600;}
	.st10{fill:#476AB1;}
	.st11{fill:#F68B00;}
</style>
<g>
	<polygon class="st10" points="263.99,313.45 250.06,299.59 246.33,278.03 288.72,278.03 290.87,288.85 297.74,288.85 
		297.74,313.45 	"/>
	<polygon class="st10" points="385.37,313.45 399.36,299.59 403.02,278.03 360.64,278.03 358.48,288.85 351.62,288.85 
		351.62,313.45 	"/>
	<polygon class="st10" points="346.74,172.82 346.74,184.26 406.25,184.26 406.25,219.69 346.74,219.69 346.74,231.77 
		409.98,231.77 409.98,267.2 346.74,267.2 346.74,489.71 302.57,489.71 302.57,267.2 239.5,267.2 239.5,231.77 302.57,231.77 
		302.57,219.69 243.19,219.69 243.19,184.26 302.57,184.26 302.57,172.82 	"/>
	<polygon class="st10" points="602.72,161.89 593.74,161.89 593.74,475.85 579.72,489.71 531.26,489.71 526.21,452.38 
		548.96,452.38 548.96,161.89 239.5,161.89 239.5,126.48 602.72,126.48 	"/>
	<path class="st10" d="M421.11,172.82v75.08h100.86l13.94-13.96v-61.11H421.11z M497.22,214.82H459.8v-8.93h37.42V214.82z"/>
	<path class="st10" d="M536.63,264.04h-4.92v-7.21h-43.07v7.21h-17.86v-7.21h-42.84v7.21h-6.69v37.51H428v109.56h-5.46l-0.01,26.16
		h34.34l13.91-13.86v-29.33h17.86v17.44l-5.18,0.1l0.3,25.65h34.01l13.95-13.86l-0.24-121.86h5.16V264.04z M488.64,356.75h-17.86
		v-8.93h17.86V356.75z M488.64,310.48h-17.86v-8.93h17.86V310.48z"/>
	<rect x="240.12" y="324.13" class="st10" width="169.86" height="35.43"/>
	<polygon class="st10" points="257.94,370.45 298.36,370.45 283.85,475.85 269.91,489.71 239.5,489.71 239.5,455.6 248.33,455.6 	
		"/>
	<polygon class="st10" points="411.71,452.38 415.79,489.71 379.26,489.71 365.26,475.85 351,370.24 391.23,370.24 400.84,452.38 	
		"/>
	<polygon class="st10" points="423.35,446.21 463.63,446.21 455.53,475.85 441.57,489.71 412.96,489.71 410.68,452.38 
		419.55,452.38 	"/>
	<polygon class="st10" points="527.04,452.38 535.91,452.38 533.63,489.71 505.13,489.71 491.19,475.85 482.96,446.21 
		523.24,446.21 	"/>
</g>
</svg>
