<?xml version="1.0" encoding="utf-8"?>
<!-- Generator: Adobe Illustrator 26.5.0, SVG Export Plug-In . SVG Version: 6.00 Build 0)  -->
<svg version="1.1" id="图层_1" xmlns="http://www.w3.org/2000/svg" xmlns:xlink="http://www.w3.org/1999/xlink" x="0px" y="0px"
	 viewBox="0 0 841.89 595.28" style="enable-background:new 0 0 841.89 595.28;" xml:space="preserve">
<style type="text/css">
	.st0{fill:#FFFFFF;}
	.st1{fill:#040000;}
	.st2{fill:#231815;}
	.st3{fill:#E61F19;}
	.st4{fill:#00B0EC;}
	.st5{fill:#FF61B7;}
	.st6{fill:none;stroke:#231815;stroke-miterlimit:10;}
	.st7{fill:#FFFFFF;stroke:#231815;stroke-miterlimit:10;}
	.st8{fill:#5ADBAF;}
	.st9{fill:#FEC600;}
	.st10{fill:#476AB1;}
	.st11{fill:#F68B00;}
</style>
<g>
	<polygon class="st9" points="239.91,141.3 291.62,127.11 291.62,183.39 239.91,183.39 	"/>
	<polygon class="st9" points="251.19,256.97 239.91,254.58 239.91,195.56 291.59,195.56 291.99,454.76 602.64,454.76 602.64,490.39 
		251.19,490.39 	"/>
	<polygon class="st9" points="300.98,126.61 418.37,126.61 418.37,184.47 300.98,184.47 300.98,160.08 378.8,160.08 378.8,151 
		300.98,151 	"/>
	<polygon class="st9" points="603.82,184.47 477.14,184.47 477.14,126.61 603.82,126.61 603.82,151 516.71,151 516.71,160.08 
		603.82,160.08 	"/>
	<path class="st9" d="M299.37,347.33l0.65,101.07h42.68v-9.54h87.7v4.38l-4.12,5.15h28.82l11.98-12.32v-88.75H299.37z M430.4,414.47
		h-87.7v-9.08h87.7V414.47z M430.4,381h-87.7l-0.05-9.08h87.7L430.4,381z"/>
	<g>
		<g>
			<path class="st9" d="M603.35,367.44v-97.68H477.03V448.4l59.56-8.43V412.4l-20.78,3.19v-48.14H603.35z M515.81,294.69h48.68
				v11.56h-48.68V294.69z M515.81,331.18h48.68v11.34h-48.68V331.18z"/>
			<polygon class="st9" points="603.62,411.15 585.55,417.75 597.92,445.71 558.12,445.71 525.79,378.64 565.58,378.64 
				572.61,391.9 603.62,381.03 			"/>
		</g>
	</g>
	<path class="st9" d="M603.82,227.49h-39.18v9.08H467.8v-16.13h136.02v-24.89l-136.02,0.41v-69.48h-39.94l0.03,69.07H300.02v24.4
		h127.76v16.61h-88.2v-9.08h-39.57v33.39l128.75,0.16v18.21h-8.31v-9.03l-38.56-0.1v9.2h-23.27v-8.96h-38.38v8.96h-20.23v1.3v22.78
		v0.75l20.23-0.01v9.07h-20.23v24.85h167.06V313.2h-46.62v-9.12l30.16,0.04h5.3l11.98-12.32l-0.1-30.84h136.02V227.49z M381.9,313.2
		h-23.27v-9.09l23.27-0.01V313.2z"/>
</g>
</svg>
