<?xml version="1.0" encoding="UTF-8"?>
<svg id="_图层_1" data-name="图层 1" xmlns="http://www.w3.org/2000/svg" viewBox="0 0 841.89 595.28">
  <defs>
    <style>
      .cls-1 {
        fill: #040000;
      }
    </style>
  </defs>
  <path class="cls-1" d="M350.64,336.05c-.36,7.07,.27,16.22-.22,23.67-.43,6.6-1.06,13.24-1.17,19.86-.23,14.62,.22,29.3-.2,43.89-.1,3.48-1.2,7.31-4.11,9.05-2.2,1.32-6.69,1.89-8.28-.58-1.76-2.72-3.52-5.45-5.28-8.17-1.03-1.59-2.08-3.24-2.43-5.13-.31-1.64-.06-3.33,.2-4.98,1.58-10.36,2.88-20.28,3.3-30.7s.86-21.19,1.3-31.78c.03-.68,.06-1.36-.07-2.02-1.6-8.58-7.02-1.33-9.8,1.47-6.52,6.41-12.72,13.16-19.18,19.63-2.53,2.53-5.07,5.04-7.63,7.53-3.01,2.92-3.74,4.1-5.38-.29-.15-.4-.3-.81-.29-1.23,.02-.59,.35-1.12,.67-1.62,7.37-11.36,14.74-22.73,22.1-34.09,8.64-13.34,17.19-26.75,25.72-40.17-9.15,4.14-18.32,8.21-27.51,12.25-.99,.44-2.03,.88-3.1,.78-.81-.07-1.56-.45-2.29-.81-2.26-1.14-4.52-2.28-6.79-3.42-1.29-.65-2.62-1.33-3.53-2.49-1.42-1.82-1.02-7.24,1.59-7.76,1.81-.36,3.24,2.76,5.25,1.82,7.16-3.38,14.32-6.77,21.48-10.15,4.68-2.21,9.33-4.54,14.06-6.64,2.76-1.23,5.05-2.33,7.38-4.41,2.09-1.87,3.47-4.79,5.7-6.46,3.51-2.63,7.92,.04,12.09,1.23,3.92,1.11,8.16,2.33,11.36,5.06,2.84,2.42,2.29,4.22-.52,6.58-5.79,4.86-10.88,10.51-15.6,16.47-2.38,3.01-5.16,6.1-7.12,9.42-1.34,2.27-1.11,1.84-1.07,4.23l-.64,19.95Z"/>
  <path class="cls-1" d="M480.57,235.4c-1.49-1.85-3.52-3.29-5.62-4.46-2.92-1.62-7-4.5-10.38-4.69-.86-.05-1.71,.22-2.53,.49-9.34,3.06-18.64,6.91-28.46,7.2,1.15,0,5.78-8.93,6.59-10.17,2.38-3.67,4.76-7.35,7.13-11.02,1.19-1.84,2.38-3.67,3.57-5.51,.77-1.2,2.57-3.01,2.85-4.41,.11-.56-.33-3.86-.73-4.22-3.76-3.32-7.41-6.88-11.34-9.99-1.11-.88-2.39-1.72-3.81-1.68-.94,.02-1.82,.43-2.68,.81-2.04,.9-4.06,1.86-6.11,2.74-2.3,.98-8.36,4.34-6.62-.8,1.46-4.31,2.42-8.77,3.28-13.23,.6-3.09,1.52-7.52,4.81-8.89,5.34-2.23,12.95-2.74,18.61-1.57,4.08,.84,10.76,5.22,14.82,1.94,1.83-1.48,2.01-7.56,.82-9.5-.24-.4-.69-.63-1.12-.85-3.57-1.82-7.13-3.63-10.7-5.45-2.65-1.35-5.84-3.91-9.04-3.45-5.52,.8-7.37,5.44-12.06,7.02-4.29,1.44-8.91,2.31-13.31,3.45-9.24,2.39-10.86,2.32-20.1,4.71-.17,.04-.34,.09-.52,.13-3.22-.13-6.43-.27-9.65-.4-2.21-.09-3.75,.09-4.88,.62-3.07,1.44-4.65,7.7-2.01,9.92,1.08,.91,2.2,1.79,3.35,2.62,1.11,.8,2.28,1.57,3.6,1.91,4.8,1.22,11.1-1.6,15.71-2.95,3.24-.95,5.31-2.6,8.65-2.88-.06,0-2.35,8.92-2.55,9.65-.73,2.59-1.39,5.19-1.97,7.82-.21,.93-.48,5.18-1.71,5.49-9,2.35-19.62,4.63-28.6,7.07-.3,.58-.16,1.3,.19,1.86s.86,.97,1.38,1.37c1.37,1.08,2.74,2.16,4.11,3.25,.95,.75,1.94,1.53,3.11,1.86,1.56,.44,3.23,.04,4.74-.55,.76-.29,9.33-3.78,9.45-3.54-2.12,5.01-3.18,10.61-5.04,15.75-1.45,4-2.95,7.97-4.67,11.86-1.23,2.79-2.6,7.24-4.99,9.22-2.07,1.71-6.13,1.99-8.68,2.63-3.19,.79-6.4,1.56-9.56,2.47-3.98,1.14-10.8,1.73-13.63,4.77,3.15,3.43,6.3,6.86,9.45,10.28,.34,.38,.71,.76,1.18,.95,.32,.13,.67,.15,1.02,.17,7.06,.29,14.13-4.54,20.36-7.39,3.2-1.46,6.39-2.93,9.59-4.39,3.03-1.39,6.15-1.89,9.42-2.73,8.4-2.16,16.99-3.6,25.63-4.28,6.05-.48,12.16-.59,18.08-1.92,3.37-.76,6.66-1.94,10.15-1.99,2.47-.03,5,.49,7.06,1.85,4.24,2.8,6.64,7.38,12.16,3.92,3.82-2.39,5.63-6.4,3.55-10.72-.37-.77-.83-1.48-1.36-2.14Zm-56.18-9.14c-1.15,2.51-2.32,5.19-3.74,7.53-1.39,2.28-4.51,3.16-6.98,3.84-2.75,.77-3.35,.8-6.02,1.82-1.51,.58-4.04,1-3.72-1.3,.32-2.31,1.53-4.75,2.24-6.93,.75-2.31,1.17-4.21,1.89-6.61,1.76-5.87,4.13-11.75,6.9-18.39,.87-2.08,3.65-1.92,5.7-2.52,2.89-.85,11.21-1.85,13.91-3-.13,.06-.21,.96-.25,1.14-.11,.51-.24,1.02-.38,1.52-.27,1.01-.57,2.01-.9,2.99-1.71,5.06-4.2,9.83-6.13,14.8-.52,1.33-1.26,2.39-1.83,3.59-.24,.5-.47,1.01-.7,1.52Z"/>
  <path class="cls-1" d="M493.02,320.9l-15.6-12.33h-11.5l-30.93,9.11-27.89,5.3-15.34,9.37v3.39l-7.32-2.58-17.43-3.67-4.53,3.67v5.3s11.85,3.26,17.08,36.25c0,0,6.28,22,0,37.88l8.59,4.48,24.88-5.3,22.66-2.85,9.37-3.26,12.14,2.18,2.44,7.74,9.06,4.07,5.58-7.74,19.08-73.51,4.18-9.37-4.53-8.15Zm-100.21,18.21l5.57,3.43,15.69-5.81,2.44,4.99v8.55l-4.18,4.07-2.44,3.26-13.95,8h-2.79l-.06,.25-1.33-15.17-1.74-7.74,2.8-3.83Zm24.05,56.38l-12.22,4.89-8.69-2.04-2.38-27.1,5.87,.62h10.81l5.58,4.48,2.09,11.41-1.05,7.74Zm55.64-62.64c-2.7,15.94-3.51,35.2-9.62,49.92-.55,1.32-.83,3.99-1.88,4.79-1.11,.84-1.73,1.19-3.05,1.24-7.32,.31-14.44,1.5-19.15-6.11-3.45-5.58-4.59-13.33-.6-18.97,.3-.42,.61-.86,1.04-1.07,.36-.18,.77-.18,1.16-.18,2.6,0,5.2,.01,7.81,.02,.55-4.53-.96-12.2-5.1-14.25-2.08-1.03-4.43,.27-6.37,1.64,3.79-2.68-5.82-16.87-2.9-22.01,.23-.4,.53-.74,.92-1.02,.87-.63,1.92-.76,2.93-.87,10.14-1.17,17.74-3.82,27.89-4.99,.8-.09,1.63-.18,2.4,.1,2.25,.82,4.55,6.01,4.79,8.56,.1,1.07-.08,2.14-.26,3.2Z"/>
  <path class="cls-1" d="M503.49,270.78s0-.06,0-.08c-.02-.32-.15-.63-.27-.93-.81-1.94-1.15-2.08-.19-3.65,1.26-2.05,3.49-2.88,5.84-2.64,1.88,.2,3.59,1.11,5.25,2,.58,.31,1.18,.63,1.66,1.09,.41,.38,.73,.85,1.05,1.31,1.69,2.46,3.36,4.95,5.09,7.39,4.44-1.49,8.9-3.99,13.23-5.95,2.96-1.34,6.09-2.71,9.33-2.41,3.79,.35,6.98,2.94,9.59,5.71,3.03,3.23,2.88,8.78-1.7,10.31-1.53,.51-3.18,.53-4.8,.54-6.27,.06-12.59,.36-18.85,.09-4.56-.2-10.85-1.28-14.59,2.08-6.58,5.91-13.16,11.81-19.74,17.72-1.62,1.45-3.73,3.6-5.98,3.98-.8,.13-1.72-.15-2.1-.87-.25-.48-.21-1.05-.11-1.58,.36-1.88,1.43-3.53,2.48-5.14,3.13-4.79,6.45-9.51,9.42-14.41,2.52-4.17,3.41-8.94,5.13-13.45,.14-.36,.28-.74,.27-1.12Z"/>
  <path class="cls-1" d="M534.25,304.48c-2.16-2.41-4.27-3.97-7.54-4.84-3.16-.84-6.25-1.51-9.52-.75-2.14,.5-5.09,1.62-5.01,4.11,.04,1.19,.65,2.28,1.18,3.36,2.99,6.1,3.01,13.12,3.23,19.71,.58,17.21-1.55,51.75-2.48,68.95-.22,4.12-.5,8.4-3.23,12.11-1.73,2.35-4.45,4.51-4.69,7.12-.45,4.95,6.77,11.63,9.73,15.29,.55,.68,1.13,1.38,1.95,1.77,2.86,1.37,7.27-.83,8.99-2.94,3.29-4.04,1.68-12.01,1.75-16.74,.1-6.47,.2-12.93,.3-19.4,.16-10.69,.36-38.45,.5-49.15,.07-5.57,.14-11.14,.21-16.71,.06-4.9-.85-10.21,1.91-14.61,.91-1.45,4.01-4.21,3.55-5.98-.11-.45-.43-.83-.74-1.18-.04-.04-.08-.09-.12-.13Z"/>
  <path class="cls-1" d="M285.16,159.1l8.16,5.11,28.66-13.27,6.41-7h5.25l33.82,34.99v12.25l-12.42,10.37-4.52,34.49,15.67-11.46,7,3.5-5.83,11.66-37.92,29.65-12.25,7.16s-4.66-15.91-14.58-20.57v-5.83s14.6,8.28,27.43-3.96l.37-32.09s-17.25,10.39-34.16,6.89l-4.06,5.25-7.58,213.82-11.1,8.77-6.41-5.25-14.58-31.51v-7.58l12.83-21.58,8.75-157.84-8.16-26.43,7.58,3.1,11.69,2.13s10.03,14.42,33.36-4.63l4.08-4.48,7.58,1.17,5.06-16.35-7.2-7.4-30.1,10.25-7.58-4.37-9.91-18.96h4.66Z"/>
  <path class="cls-1" d="M583.28,364.35l1.44-81.85v-41.4l1.28-72.31-3.5-16.91-31.34-21.46-13.09-2.44-38.14,24.88-17.69,1.1-3.5,3.5,4.3,8.3,2.34,35.93,5.25,9.33-4.67,34.45,10.51,14.6,7.29-2.63,26.32,1.63,29.13-3.76,2.49,34.2,1.79,18.08-1.62,26.51-1.07,41.13,3.35,47.89-32.16-5.72,.58,4.66,18.9,19.46-3.35,8.36,13.99,9.33,15.74-11.66,9.91-24.69-4.49-58.5Zm-25.42-128.06c-4.09,6.02-14.16,6.08-20.6,6.12-9.82,.06-18.91,1.49-28.59,3.06-5.67,.92,.26-37.53-.8-37.84,.69,.2,1.22,.79,1.17,1.57,4.26,1.07,8.78,.68,13.03-.44,5.38-1.42,10.52-3.9,15.58-6.19,2.86-1.3,9.32-3.65,9.66-7.45,.17-1.88-1.02-3.68-2.57-4.76-1.55-1.08-3.43-1.56-5.27-1.98-5.31-1.23-10.48-4.88-16.1-2.87-6.38,2.29-10.06,9.76-16.66,11.34-1.93-9.16-2.67-18.56-2.2-27.9,.04-.74,.09-1.51,.42-2.17,.33-.67,.92-1.16,1.49-1.64,3.89-3.27,7.8-6.55,12.13-9.21,7.5-4.61,16.18-7.25,24.97-7.6,3.91-.16,8.09,.22,11.2,2.6,3.65,2.79,4.96,7.66,5.53,12.21,1.02,8.19,.36,16.45-.08,24.66-.45,8.19-.11,16.34-.11,24.54,0,7.27,2.05,17.71-2.2,23.96Z"/>
  <g>
    <path class="cls-1" d="M470.1,255.39h-11.59l-54.97,17.25-5.61-3.59-13.46-1.8-5.98,5.39v2.16l9.21,5.39,6.87,28.03,6.73,7.55,6.73-1.44,4.49-5.75,11.22-1.08,8.6-1.8,23.56-3.59h10.47v-11.5l12.71-22.64,3.74-2.16-12.71-10.42Zm-18.39,24.99c-.19,2.02-.37,4.45-.56,6.47-.11,1.22-.66,4.84-1.6,5.7-.37,.34-.9,.47-1.41,.58-8.69,1.96-20.56,3.91-29.25,5.87-2.25,.51-4.49,1.04-6.75,1.52-2.87,.61-2.49-.45-3.1-2.99-1.02-4.23-2.04-8.46-3.06-12.68-.38-1.58-.96-2.66-.3-3.45,.26-.31,.72-.58,1.48-.82,2.25-.7,4.85-.55,7.18-.75,5.86,0,12.15-2.46,17.51-4.5,5.41-2.06,15.65-6.81,21.35-7.89,.36,3.8-1.13,9.12-1.48,12.94Z"/>
    <path class="cls-1" d="M429.85,268.83s-11.24,0-11.24,0c.37,3.87,.27,7.82,1.04,11.63,.77,3.83,2.7,7.4,4.49,10.72,.49,.9,1.02,1.82,1.81,2.38,.91,.64,2.04,.71,3.11,.77,7.83,.41,3.54-9.74,2.25-14.06-1.14-3.83-1.27-7.45-1.46-11.44Z"/>
  </g>
</svg>