<?xml version="1.0" encoding="UTF-8"?>
<svg id="_图层_1" data-name="图层 1" xmlns="http://www.w3.org/2000/svg" viewBox="0 0 841.89 595.28">
  <defs>
    <style>
      .cls-1 {
        fill: #040000;
      }
    </style>
  </defs>
  <path class="cls-1" d="M338.01,323.14l-.66,20.62c-.38,7.31,.28,16.77-.22,24.48-.44,6.82-1.1,13.69-1.21,20.53-.24,15.12,.22,30.3-.21,45.38-.1,3.6-1.24,7.55-4.25,9.36-2.28,1.37-6.92,1.95-8.56-.6-1.82-2.82-3.64-5.63-5.46-8.45-1.06-1.65-2.15-3.35-2.52-5.3-.32-1.7-.06-3.44,.2-5.15,1.63-10.71,2.98-20.97,3.41-31.74,.44-10.95,.89-21.9,1.35-32.86,.03-.7,.06-1.41-.07-2.09l-.87-29.95-2.43-1.3,13.1-14.4,5.92,.13,2.46,11.34Z"/>
  <path class="cls-1" d="M309.69,358.85c-6.74,6.63-13.15,13.61-19.83,20.3-2.61,2.61-5.24,5.21-7.89,7.78-3.11,3.02-3.87,4.24-5.56-.29-.15-.41-.31-.83-.29-1.27,.02-.62,.36-1.16,.69-1.67,7.62-11.75,15.24-23.5,22.85-35.25,8.94-13.79,17.77-27.65,26.59-41.53-9.46,4.28-18.94,8.49-28.44,12.67-1.02,.45-2.1,.91-3.21,.81-.84-.07-1.61-.46-2.37-.84-2.34-1.18-4.68-2.36-7.02-3.53-1.33-.67-2.71-1.38-3.65-2.57-1.47-1.88-1.06-7.48,1.64-8.02,1.87-.37,3.35,2.85,5.43,1.88,7.4-3.5,14.81-7,22.21-10.49,4.84-2.29,9.65-4.69,14.54-6.87,2.85-1.27,5.23-2.41,7.63-4.56,2.16-1.94,3.58-4.96,5.89-6.68,3.63-2.71,8.19,.05,12.5,1.27,4.05,1.15,8.43,2.41,11.74,5.23,2.94,2.5,2.37,4.36-.54,6.8-5.99,5.02-11.25,10.86-16.13,17.03-2.47,3.11-5.33,6.3-7.37,9.74-1.39,2.34-1.15,1.9-1.1,4.37l-15.92,21.34-12.4,14.37Z"/>
  <path class="cls-1" d="M420.45,169.56c5.52-2.31,13.39-2.83,19.24-1.62,4.22,.87,11.13,5.4,15.33,2.01,1.89-1.53,2.08-7.82,.85-9.82-.25-.41-.72-.66-1.16-.88-3.69-1.88-7.38-3.76-11.06-5.63-2.74-1.4-6.04-4.04-9.34-3.56-5.71,.83-7.62,5.63-12.47,7.26-4.44,1.49-9.22,2.39-13.76,3.56-9.55,2.47-11.23,2.4-20.78,4.87-.18,.05-.36,.09-.53,.14-3.33-.14-6.65-.28-9.98-.42-2.28-.09-3.88,.09-5.04,.64-3.17,1.49-4.8,7.96-2.08,10.26,1.12,.94,2.27,1.85,3.46,2.7,1.15,.83,2.35,1.63,3.72,1.97,4.97,1.26,11.48-1.66,16.24-3.06,3.35-.98,5.49-2.68,8.94-2.98l15.06-4.4,3.37-1.05Z"/>
  <path class="cls-1" d="M506.33,291.65c3.87-3.47,10.37-2.35,15.09-2.15,6.47,.28,13.01-.04,19.48-.1,1.67-.01,3.37-.03,4.96-.56,4.74-1.58,4.89-7.32,1.76-10.66-2.69-2.87-6-5.54-9.92-5.91-3.35-.31-6.59,1.11-9.65,2.49-4.47,2.02-9.08,4.61-13.67,6.15l-6.52,3.69-1.53,7.04Z"/>
  <path class="cls-1" d="M506.38,291.65c-6.8,6.11-13.61,12.22-20.41,18.32-1.67,1.5-3.86,3.72-6.19,4.11-.82,.14-1.78-.15-2.17-.89-.26-.49-.22-1.09-.11-1.64,.37-1.94,1.48-3.65,2.56-5.31,3.24-4.96,6.67-9.83,9.74-14.9,2.61-4.31,3.53-9.24,5.3-13.9,.14-.37,.29-.76,.28-1.16,0-.03,0-.06,0-.09-.02-.33-.15-.65-.28-.96-.84-2.01-1.19-2.15-.19-3.77,1.3-2.11,3.61-2.98,6.04-2.72,1.94,.2,3.71,1.15,5.43,2.07,.6,.33,1.22,.66,1.72,1.12,.42,.39,.75,.88,1.08,1.35,1.75,2.55,3.47,5.12,5.26,7.64l1.71,6.28-3.23,3.06-6.53,1.38Z"/>
  <path class="cls-1" d="M527.18,311.13c-2.24-2.49-4.42-4.11-7.79-5-3.27-.87-6.47-1.56-9.84-.77-2.21,.52-5.26,1.67-5.18,4.25,.04,1.23,.67,2.36,1.22,3.47,3.1,6.3,3.11,13.56,3.34,20.38,.6,17.79-1.61,53.51-2.56,71.29-.23,4.26-.51,8.69-3.34,12.52-1.79,2.43-4.6,4.66-4.85,7.36-.47,5.12,7,12.02,10.06,15.81,.57,.7,1.17,1.43,2.02,1.83,2.96,1.42,7.52-.85,9.3-3.04,3.4-4.18,1.73-12.41,1.81-17.31,.1-6.69,.21-13.37,.31-20.06,.17-11.06,.37-39.76,.52-50.81,.08-5.76,.15-11.52,.22-17.28,.06-5.07-.87-10.55,1.98-15.1,.94-1.5,4.14-4.35,3.67-6.18-.12-.46-.44-.86-.77-1.22-.04-.04-.08-.09-.12-.13Z"/>
  <path class="cls-1" d="M276.55,230.34l4.2-5.43c17.48,3.62,36.24-7.31,36.24-7.31l-.2-18.78-8.76-1.02-4.22,4.63c-24.12,19.7-34.49,4.79-34.49,4.79l-12.09-2.2,3.61,28.33,15.71-3.01Z"/>
  <polygon class="cls-1" points="281.12 224.8 276.92 230.22 269.09 451.3 257.61 460.36 250.98 454.94 235.9 422.36 235.9 414.52 249.17 392.21 258.21 229.02 249.07 200.18 256.91 203.39 268.99 205.59 276.25 209.49 281.12 224.8"/>
  <polygon class="cls-1" points="337.6 240.74 342.28 205.08 355.12 194.36 355.12 181.7 320.15 145.52 314.73 145.52 308.09 152.76 278.47 166.48 270.03 161.19 265.2 161.19 275.45 180.79 283.29 185.31 314.41 174.71 321.85 182.36 316.62 199.26 316.82 218.05 316.44 251.23 319.54 270.9 336.22 252.86 337.6 240.74"/>
  <path class="cls-1" d="M419.42,277.61s-1.71-2.37-3.81-1.73c-1.38,.42-4.1,1.29-5.43,1.7-1.85,.57-2.12,3.49-2.12,3.49,.38,4-.15,1.26,.64,5.21,.79,3.96,2.79,7.65,4.65,11.08,.5,.93,1.05,1.88,1.87,2.46,.94,.66,2.1,.74,3.21,.8,8.1,.42,3.66-10.07,2.33-14.54-1.18-3.96-1.14-4.35-1.34-8.47Z"/>
  <path class="cls-1" d="M287.7,254.95v6.03s10.54,5.47,14.81,20.44l.26,.82,13.4-7.98,24.7-19.31,13.76-10.76,6.03-12.06-7.23-3.62-26.74,19.88-10.26,2.83s-12.57,11.63-28.73,3.72Z"/>
  <polygon class="cls-1" points="402.01 169.08 407.56 162.69 418.7 165.67 419.42 167.54 415.73 175.44 410.72 195.12 399.77 219.68 393.95 237.63 392.46 242.55 391.77 250.14 383.12 255.38 373.93 250.14 381.19 234.28 392.43 203.83 396.68 196.4 402.27 172.65 402.01 169.08"/>
  <polygon class="cls-1" points="365.5 206.05 365.69 207.97 374.58 214.66 378.07 214.66 395.12 209.04 407.63 207.38 424.14 203.83 416.22 224.97 407.63 241.84 409.21 246.95 417.33 250.14 422.8 244.37 423.11 238.2 443.22 207.55 443.76 203.83 443.17 201.66 429.34 189.99 427.5 189.59 422.8 191.3 412.46 195.31 408.28 194.35 384.93 201.25 365.5 206.05"/>
  <path class="cls-1" d="M341.12,258.72l10.33,11.2,2.31,.61,3.72-.4,5.99-1.98,19.8-9.42,7.47-2.47,15.1-3.34,12.86-1.7,12.28-.92,5.84-.77,10.93-2.38h4.56l4.55,1.79,5.07,3.99,2.85,1.27,2.6-.22,3.39-1.96,1.76-1.89,1.47-2.98s.77-5.89-6.31-10.96l-8.86-4.97-3.68-.98-2.61,.51-11.59,3.9-9.18,2.48-11.68,1.39-9.89,.38-5.02,2.3-6.76,1.94-11.58,3.16-20.19,4.6-11.42,2.88-8.38,1.97-4.69,2.08-1.02,.88Z"/>
  <polygon class="cls-1" points="469.8 159.11 473.42 155.5 491.71 154.36 495.21 165.67 496.87 168.75 496.53 183.88 498.71 199.84 500.03 212.75 498.17 232.4 498.17 246.18 501.33 252.57 495.67 262.48 488.13 265.2 477.27 250.11 482.1 214.48 476.67 204.84 474.25 167.69 469.8 159.11"/>
  <path class="cls-1" d="M482.69,164.23l6.56-7.91,41.89-27.68,13.53,2.53,24.53,16.8-5.06,14.74-15.79-10.33s-11.56-10.12-39.63,6.62l-18.11,13.42-7.91-1.79v-6.38Z"/>
  <path class="cls-1" d="M548.57,142.78l2.45,12.5s5.72,6.92,2.91,36.53l-.16,12.25,.1,10.46,.51,14.57-1.21,21.29,2.4,45.25,1.67,16.8-1.85,42.85-.76,28.97,3.46,49.51-33.25-5.92,.6,4.82,19.54,20.12-3.46,8.64,14.47,9.65,16.28-12.06,10.25-25.53-4.64-60.48,1.49-107.83,.53-49.62,.49-27.86,.04-18.12-3.36-16.24-7.88-5.39-15.52-8.5-5.12,3.32Z"/>
  <polygon class="cls-1" points="491.8 205.84 496.3 198.86 499.8 199.89 504.57 196.74 511.28 190.83 515.93 188.12 520.39 187.54 528.57 189.59 534.52 191.58 538.02 193.13 540.11 195.47 540.68 198.05 538.99 201.12 535.7 203.43 518.27 211.03 510.15 213.03 501.12 212.62 497.08 208.06 492.99 208.23 491.8 205.84"/>
  <polygon class="cls-1" points="485.57 248.23 497.42 250.38 515.68 247.93 525.46 247.09 539.62 246.48 547.81 244.02 551.6 240.63 555.8 233.08 563.29 238.18 575.03 260.37 556.48 259.46 522.88 264.17 493.67 261.84 487.21 257.25 485.57 248.23"/>
  <polygon class="cls-1" points="365.98 278.03 365.98 280.26 375.5 285.83 382.6 314.81 389.56 322.62 396.52 321.13 401.16 315.18 392.6 285.16 391.88 278.03 386.08 274.32 372.16 272.46 365.98 278.03"/>
  <polygon class="cls-1" points="383.57 280.22 420.24 269.24 449.04 260.2 461.03 260.2 467.4 265.42 474.17 270.97 470.31 273.2 457.16 296.61 457.16 308.5 446.34 308.5 440.38 301.29 443.55 272.65 413.13 283.77 406.07 285.3 390.97 285.84 384.21 283.41 383.57 280.22"/>
  <polygon class="cls-1" points="398.53 306.35 390.89 304.05 385.78 308.82 385.78 314.78 390.89 319.37 401.49 315.18 413.09 314.07 427.01 311.45 444.86 308.72 457.16 308.5 453.87 299.97 443.61 295.88 438.72 300.48 438.33 299.22 415.4 303.37 398.53 306.35"/>
  <path class="cls-1" d="M349.59,346.25v-5.47l4.69-3.79,18.02,3.79,10.31,3.68-4.54,6.43,1.8,8,1.38,15.68,2.95,33.59v11.64l-4.65,5.11-12.29-2.01s7.67-8.37-.62-42.76c0,0-3.85-26.88-17.05-33.89Z"/>
  <path class="cls-1" d="M379.87,339.94v6.03l6.85,4.49,16.22-6,22.91-10.87s12.57-2.1,12.57-2.1c5.49-1.15,11.23-2.99,16.83-3.32,1.44-.09,2.97-.01,4.17,.78,1.33,.88,1.99,2.47,2.57,3.96,.28,.72,.57,1.45,.85,2.17,.22,.56,.44,1.13,.56,1.73,.56,2.77-.57,6.28-.93,9.08s-.74,5.66-1.11,8.48c-.44,3.36-.72,6.79-1.33,10.13-.84,4.6-1.72,9.19-2.52,13.79-1.65,9.48-5.74,18.94-8.68,28.11-.83,2.58-1.66,5.2-1.69,7.91-.02,2.06,.45,4.07,1.06,6.02,.45,1.41,.39,3.2,1.46,4.31,2.27,2.36,6.42,3.76,9.29,5.33,.12,.07,.26,.14,.4,.11,.14-.03,.24-.14,.34-.25,2.36-2.82,5.11-6.01,6.04-9.65,.59-2.31,1.18-4.61,1.78-6.92,1.77-6.89,3.54-13.79,5.31-20.68,1.54-6,3.04-12.01,4.62-17.99,1.21-4.57,2.42-9.14,3.62-13.7,.85-3.22,1.75-6.43,2.56-9.67,1.15-4.62,3.12-8.92,4.97-13.35,.15-.36,.31-.74,.33-1.13,.03-.59-.23-1.15-.49-1.68-1.21-2.49-2.44-5.03-4.33-7.06-.94-1.01-2.02-1.87-3.1-2.73-3.3-2.62-6.6-5.24-9.9-7.87-.85-.68-1.72-1.36-2.74-1.74-2.26-.85-4.9-.18-7.25-.22-1.37-.02-3.23-.46-4.55-.07,0,0-31.97,9.42-31.97,9.42l-28.84,5.47-15.86,9.69Z"/>
  <path class="cls-1" d="M374.17,373.06c1.86,.07,3.59,.15,3.94,.19,3.01,.4,5.4,1.56,8.17-.11,3.23-1.95,6.66-3.59,9.8-5.67,3.98-2.64,6.43-6.18,9.38-9.79l11.19,.21c2.38,.04,4.76,.08,7.15,.13,1.02,.02,2.01,.11,3-.15,1.72-.46,3.06-1.92,4.93-1.93,1.81,0,3.32,1.42,4.26,2.97,1.05,1.75,1.61,3.73,1.9,5.74,.17,1.16,1,5.22,.3,6.18s-4.78-.03-6.08-.06c-2.15-.05-4.31,.07-6.41,.58-1.51,.37-2.96,.93-4.4,1.49-3.56,1.38-7.12,2.76-10.69,4.13-3.73,1.44-7.51,2.9-11.46,3.61-4.04,.73-8.15,.32-12.22,.21-4.84-.13-9.69-.68-14.39-1.91-.54-.14-1.08-.29-1.55-.59-1.84-1.16-1.61-3.63-1.97-5.43,1.71,0,3.44,.14,5.15,.21Z"/>
  <path class="cls-1" d="M399.37,338.95c1.65,2.87,3.29,5.74,4.94,8.6,.42,.73,.84,1.47,1.03,2.28,.15,.64,.15,1.3,.14,1.96-.02,5.2,1.21,11.65-1.63,16.2-2.12,3.39-4.23,6.78-6.35,10.16-.15,.24,5.32,5.25,5.78,5.93,1.75,2.58,2.74,5.63,3.16,8.7,.59,4.36,.07,8.78-.6,13.13-.17,1.08-.34,2.19-.12,3.26,.66,3.25,6.18,6.6,8.51,8.74,2.74-.62,5.48-1.25,8.22-1.86,2.2-.49,4.23-.59,5.46-2.77,.78-1.38,1.03-2.98,1.42-4.51,.44-1.72,1.05-3.39,1.83-4.98,.4-.82,.85-1.63,1.04-2.52,.59-2.89-2.49-6.73-3.69-9.29-2.26-4.95-4.68-10.98-2.09-16.34,.54-1.11,1.3-2.09,1.82-3.21,1.24-2.67,.89-5.7,.13-8.46-.82-3-1.15-5.44-1.31-8.57-.2-3.89-1.77-7.56-2.91-11.29-1.48-4.83-.96-8.66-.1-13.49-6.56-1.91-13.6-2.15-20.27-.68-.52,.11-1.04,.24-1.51,.49-.5,.27-.92,.67-1.34,1.07-2.1,2.04-4.02,3.14-2.26,6.21,.24,.41,.47,.82,.71,1.24Z"/>
  <polygon class="cls-1" points="378.07 406.86 393.19 410.27 410.78 403.12 429.73 394.21 435.63 398.57 446.69 398.57 457.16 395.8 464.57 404.48 464.57 416.74 456.23 422.35 445.24 417.58 434.98 415.74 425.29 419.11 404.7 421.7 382.57 426.16 376.13 427.53 367.26 422.9 374.18 408.74 378.07 406.86"/>
</svg>