<?xml version="1.0" encoding="UTF-8"?>
<svg id="_图层_1" data-name="图层 1" xmlns="http://www.w3.org/2000/svg" viewBox="0 0 841.89 595.28">
  <defs>
    <style>
      .cls-1 {
        fill: #040000;
      }
    </style>
  </defs>
  <polygon points="432.02 133.15 438.43 151.28 435.23 159.92 419.75 193.67 401.06 212.08 403.85 212.08 419.75 206.78 434.25 197.29 456 167.73 466.32 141.79 461.3 133.15 439.55 130.92 434.81 132.59 432.02 133.15"/>
  <path d="M477.29,132.34l6.55,5.12,16.79,40.98,20.49,37.28,4.84,7.11,12.81,5.69,32.44-6.26,21.63-3.13-1.14-2.28-29.03-13.38s-33.58-15.94-55.78-58.91l-5.41-8.82-6.55-3.41-14.51-1.42-3.13,1.42Z"/>
  <polygon points="386.04 267.76 402.85 276.66 414.36 298.16 428.96 302.61 435.15 296.31 430.73 277.4 415.24 263.68 394.89 263.68 386.04 267.76"/>
  <polygon points="312.48 131.23 314.35 134.5 324.21 133.14 336.6 152.74 342.86 158.19 350.59 163.36 357.52 162.27 363.65 154.92 363.92 145.39 360.45 137.5 354.06 129.33 338.33 117.89 327.67 113.81 319.15 118.16 312.48 131.23"/>
  <polygon points="258.92 162.27 249.06 170.44 253.85 178.07 260.25 184.6 267.45 184.6 276.51 179.7 314.88 164.81 348.81 156.7 363.65 154.92 398.03 153.02 400.96 156.01 410.02 157.1 413.49 162.27 420.42 167.18 429.21 165.54 432.41 156.01 428.68 148.93 412.69 136.14 403.89 135.59 400.16 139.95 363.92 145.39 339.79 153.64 325.81 152.2 264.25 167.99 259.98 166.63 258.92 162.27"/>
  <polygon points="328.41 164.6 327.11 167.67 336.18 175 334.61 181.15 302.89 223.7 253.29 264.37 294.74 249.24 309.81 239.07 335.26 213.32 351.04 189.89 357.96 181.15 361.42 171.69 357.38 167.67 344.99 162.94 332.01 165.78 328.41 164.6"/>
  <polygon points="351.19 178.83 359.87 181.55 362.57 179.97 369.21 174.53 376.7 173.58 387.08 176.42 400.06 186.59 403.52 197.46 399.19 200.89 381.03 234.58 361.42 262.95 342.39 271.22 333.62 266.82 328.84 241.44 345.56 246.64 349.6 244.98 365.46 217.79 373.82 191.08 371.22 187.29 361.13 189.89 345.06 190.23 344.72 181.38 351.19 178.83"/>
  <polygon points="399.68 236.99 397.95 238.9 427.32 245 459.11 238.23 477.84 236.99 504.18 231.66 514.55 231.66 516.71 228.23 507.64 220.6 492.96 216.41 478 222.4 455.87 222.4 423 234.71 399.68 236.99"/>
  <polygon points="291.26 298.23 289.74 293.89 294 289.81 308.39 297.38 307.56 353.81 307.36 381.21 308.39 386.49 308.39 398.74 300.89 407.43 289.74 396.96 295.57 322.83 291.26 298.23"/>
  <polygon points="284.31 293.05 300.98 301.38 312.16 294.79 325.91 288.97 337.37 283.67 341.21 284.32 343.27 285.1 347.37 288.65 349.26 291.34 349.26 296.11 348.95 311.09 348.05 358.75 347.62 369.81 346.48 382.89 345.8 390.59 343.88 396.84 341.6 401.69 332.47 402.5 330.16 401.13 327 397.29 324.3 405.53 337.72 428.69 354 428.69 364.16 417.69 369.03 410.51 371.67 395.35 369.36 381.43 377.43 294.99 375.97 290.13 341.32 264.37 335.02 264.37 329.46 269 284.31 293.05"/>
  <polygon points="259.17 404.09 259.17 408.62 268.46 416.07 293.91 403.44 298.54 414.45 271.4 447.52 289.28 440.67 301.19 425.78 314.76 416.71 326 402.5 326.5 396.63 343.19 381.84 343.51 380.91 342.12 375.46 339.15 372.57 333.83 369.85 328.89 367.96 327.15 368.06 325.37 369.52 322.79 372.77 319.76 375.64 314.5 379.16 305.19 384.83 287.08 393.52 259.17 404.09"/>
  <polygon class="cls-1" points="314.3 389.17 349.17 448.44 362.74 454.91 372 449.41 373.66 432.9 370.02 424.48 342.38 404.49 314.3 389.17"/>
  <polygon points="301.34 317.43 305.11 310.02 308.14 310.85 318.3 309.2 326.84 309.76 330.24 310.5 331.44 311.67 333.08 319.95 332.39 321.59 322.37 325.85 309.84 329.46 305.36 330.06 301.34 317.43"/>
  <polygon points="301.34 350.74 309.6 342.62 314.3 340.35 322.21 339.53 325 340.55 329.85 343.64 332.65 345.6 333.95 347.86 334.55 351.02 333.08 351.96 329.24 355.02 326.41 356.81 322.8 357.81 318.89 357.81 304.72 360.87 300.26 356.87 301.34 350.74"/>
  <polygon points="444.59 204.21 444.16 198.13 452.36 192.39 481.73 202.3 483.46 206.49 477.84 212.59 481.28 228.53 477.84 238.91 477.29 289.47 475.35 309.15 475.35 432.58 465.32 444.4 455.82 449.36 423.43 413.52 424.29 410.09 443.29 415.43 453.23 415.43 453.95 407.74 454.09 341.46 452.36 304.48 455.7 237.04 453.44 220.58 450.2 208.4 444.59 204.21"/>
  <path d="M510.66,249.58l2.16-12.58,23.75,9.91,3.89,9.15-2.16,5.34-11.23,3.81s-26.43,26.98-54.01,36.69l-10.72,2.04,1.36-6.3,15.68-16.53,11.22-9.48,20.06-22.05Z"/>
  <polygon points="374.47 327.86 374.47 332.43 389.81 338.46 403.52 336.61 455.36 314.32 477.4 308.87 516.27 303.72 535.28 304.86 553.84 313.63 558.59 313.63 567.23 307.15 566.37 297.62 559.46 293.42 534.84 284.65 528.8 288.08 460.81 305.64 450.86 304.93 391.67 322.61 374.47 327.86"/>
  <path d="M454.51,309.2s-20.16,32.44-34.51,43.12c0,0-40.08,37.55-44.77,36.91l15.01-3.42s43.61-23.73,70.9-51.06l7.32-13.87-1.53-12.85-11.23-1.36-1.19,2.54Z"/>
  <path d="M472.72,306.66l-7.66,8.85,5.79,17.87,29.56,49.4,27.2,27.83,5.18,.76,19.43-5.72,16.85,1.18,23.75-2.29s-54.64-29.98-80.4-55.76-39.71-42.14-39.71-42.14Z"/>
</svg>