<?xml version="1.0" encoding="UTF-8"?>
<svg id="_图层_1" data-name="图层 1" xmlns="http://www.w3.org/2000/svg" viewBox="0 0 841.89 595.28">
  <path d="M349.83,214.62c.3,.09,.62,.06,.92,0l6.92-1.6c.17-.04,.34-.1,.5-.18l3.62-1.9c.3-.16,.56-.39,.75-.67l1.66-2.4c.35-.5,.89-.83,1.48-.89l1.19-.13c.44-.05,.88,.04,1.27,.27l14.76,8.51c.57,.33,.95,.9,1.05,1.56l.39,2.79c.03,.18,.03,.37,0,.55l-.72,6.17c-.09,.78-.59,1.44-1.31,1.73l-3.68,1.49c-.33,.13-.68,.18-1.03,.14l-20.23-2.49c-.16-.02-.33-.02-.49,0l-10.53,1.21c-.13,.02-.27,.04-.4,.09l-33.84,10.88s-.08,.03-.12,.04l-5.58,3.68c-.23,.09-.48,.14-.72,.14l-6.03,.09c-.64,0-1.24-.27-1.65-.77l-6.1-7.46c-.5-.61-.63-1.44-.33-2.17l.6-1.49c.26-.64,.8-1.12,1.46-1.28l30.13-7.86c.33-.08,.63-.24,.89-.46l25.17-7.58Z"/>
  <polygon points="311.03 282.17 349.73 272.69 353.99 272.69 360.26 278.29 360.26 281.65 360.26 286.58 356.9 289.27 348.83 289.27 313.83 296.47 309.66 294.06 306.26 285.89 311.03 282.17"/>
  <polygon points="473.17 156.3 473.2 159.64 478.35 161.62 457.06 191.71 442.38 200.2 434.03 201.5 447.79 183.61 456.07 157.82 454.53 154.73 463.09 149.68 474.59 151.35 473.17 156.3"/>
  <polygon points="473.1 156.3 508.85 148.17 501.49 176.72 495.69 182.82 500.66 194.82 511.47 194.97 535.65 153.86 523.53 139.12 514.03 135.59 432.82 151.23 428.23 153.48 441.69 161.9 456 157.82 473.1 156.3"/>
  <path d="M428.31,240.42c2.35,1.69,6.65,7.77,6.65,7.77l-1.56,13.51-8.21,9.12h-6.65l-6.65-12.5,4.3-6.42,12.12-11.49Z"/>
  <polygon points="450.51 241.1 458.72 254.95 458.72 266.1 468.49 270.83 476.31 263.73 470.84 245.49 459.11 241.1 450.51 241.1"/>
  <polygon points="486.12 234.79 493.47 246.19 493.47 255.98 502.08 259.79 509.9 256.75 509.9 244.84 501.29 231.32 489.24 229.72 486.12 234.79"/>
  <polygon points="524.54 239.07 534.71 245.15 540.18 259 553.87 266.1 560.91 261.71 560.91 246.17 539.79 231.64 524.54 234.34 524.54 239.07 524.54 239.07"/>
  <path d="M329.21,192.31l-1.09,.16c-.93,.03-1.11,.22-1.87,.49l-39.27,13.02-4.47,1.74c-1.38,.54-2.9,.59-4.32,.14l-2.43-.77c-2.33-.74-4.31-.91-5.57-3.04l-5.36-9.03c-.6-1.01-.28-2.32,.71-2.93h0c.32-.2,.69-.3,1.06-.31l3.81-.06c.14,0,.29-.02,.43-.05l37.03-8.6c.06-.01,.11-.02,.17-.03l12.56-1.78,29.86-7.06,1.28-.02,32.35-6.09c.29-.05,.57-.17,.82-.34l9.23-6.4c.34-.24,.74-.37,1.15-.37l1.96-.03c.48,0,.94,.15,1.31,.44,2.85,2.24,15.23,12.31,17.38,20.05,0,0,5.31,10.6-6.19,11.05,0,0-3.68,3.15-16.09-6l-2.38-1.74c-.15-.11-.29-.19-.46-.25-1.91-.76-14.35-5.05-36.53,1.33l-25.08,6.49Z"/>
  <polygon points="319.83 146.96 327.03 140.2 331.96 138.17 336.76 138.76 351.29 155.17 352.85 159.12 350 178.83 350.86 188.03 348.86 192.24 348.54 200.52 347.65 209.98 349.66 215.8 348.13 223.94 340.85 228.43 330.94 229.72 327.36 223.26 328.49 218.24 329.57 190.93 327.43 170.8 326.48 159.8 319.62 150.94 319.06 147.97 319.83 146.96"/>
  <polygon points="286.13 262.68 290.81 256.78 304.21 261.21 312.38 267 313.85 273.44 319.06 298.98 322.6 309.34 324.13 319.26 322.37 322.99 321.06 323.45 317.79 327.86 303.35 320.99 303.35 313.85 294 274.74 290.81 267.6 286.13 262.68"/>
  <polygon points="295.02 260.7 306.06 259.24 371.25 240.05 379.86 233.16 388.47 236.11 397.97 247.24 406.27 262.8 406.27 268.21 402.11 281.62 390.06 301.06 388.47 310.23 381.83 312.79 366.05 300.16 368.1 298.16 379.2 268.65 379.8 263.26 378.75 260.14 374.7 258.07 368.38 256.78 360.67 257.76 315.17 269.74 310.51 271.6 306.26 272.69 295.02 264.28 295.02 260.7"/>
  <polygon points="309.15 310.4 304 322.33 306.8 328.12 315.41 331.07 321.91 321.64 324.13 322.38 335.95 318.26 361.9 313.11 379.8 314.45 387.6 316.07 394.73 310.9 394.73 306.97 388.47 298.49 372.81 294.74 368.89 299.34 348.59 303.1 330.28 307.19 317.66 310.57 309.15 310.4"/>
  <polygon points="289.95 338.1 289.38 336.27 289.38 331.08 294.39 329.01 310.68 349.21 294.23 360.51 278.72 380.76 270.26 384.37 268.59 382.53 283.04 345.06 289.95 338.1"/>
  <polygon points="305.13 347.51 340.15 343.11 362.64 339.51 381.9 335.68 389.15 331.07 398.11 333.84 403.18 339.4 401.04 348.23 389.09 348.32 348.47 354.66 331.89 357.77 320.72 361.1 304 349.55 305.13 347.51"/>
  <polygon points="299.96 380.76 297.34 386.06 305.94 394.93 310.94 397.24 335.72 392.63 392.19 384.95 397.91 380.33 394.81 370.65 384.54 367.68 376.2 370.91 344.21 374.57 337.49 376.64 307.11 381.91 299.96 380.76"/>
  <polygon points="335.3 313.83 337.27 321.29 343.84 335.96 336.55 351.48 338.34 359.94 337.91 385.98 338.58 393.79 336.55 428.87 343.84 436.87 356.13 432.96 359.7 424.62 360.66 388.96 360.26 367.68 360.26 356.68 362.94 350.23 364.64 340.53 359.54 336.75 364.43 328.01 364.43 322.71 362.52 318.56 354.94 311.26 353.59 306.83 349.3 304.79 336.89 310.74 335.3 313.83"/>
  <polygon points="269.79 425.06 261.68 431.74 265.1 441.21 272.7 448.21 278.18 449.36 297.03 445.8 328.18 440.65 380.03 436.7 408.46 436.53 417.87 442.58 426.69 443.96 436.91 439.74 436.91 433.75 427.93 422.93 410.47 418.56 347.62 422.49 332.38 423.35 280.04 430.66 275.75 427.82 269.79 425.06"/>
  <polygon points="429.35 203.47 432.52 202.18 438.24 201.5 447.51 206.43 452.22 215.14 453.2 228.43 452.69 236.94 445.93 238.9 438.01 235.37 437.25 221.71 432.67 214.97 429.35 203.47"/>
  <polygon points="539.45 205.55 541.02 203.43 533.26 194.53 521.3 190.93 514.55 195.55 448.86 206.21 440.64 210.57 440.64 213.21 445.06 217.47 450.51 216.28 458.65 210.69 516.39 203.18 507.53 223.34 509.9 233.55 519.94 235.01 527.75 229.27 523.75 225.53 537.69 207.8 537.79 207.8 539.45 205.55 539.45 205.55 539.45 205.55"/>
  <polygon points="447.53 227.09 452.22 228.87 508.55 222.15 521.91 226.91 523.63 232.3 520.36 235.05 499.02 232.45 462.35 234.27 450.51 237.58 445.91 236.28 447.53 229.86 446.43 228.43 447.53 227.09"/>
  <polygon points="421.97 281.45 415.9 286.05 421.97 293.57 428.43 295.66 484.43 276.23 502.6 276.23 534.37 273.14 545.23 277.11 543.56 268.76 530.18 255.62 432.2 282.7 421.97 281.45"/>
  <polygon points="445.28 288.32 451.42 299.42 456.51 373.98 463.41 376.28 469.79 370.02 468.13 351.65 468.13 335.77 467.71 314.04 464.79 299.42 462.7 290.64 450.51 285.26 445.28 288.32"/>
  <polygon points="483.83 274.02 489.9 296.4 492.08 309.86 492.08 364.53 499.53 369 506.3 365.81 507.32 356.62 506.57 302.34 509.5 289.81 509.08 283.12 498.63 280.2 504.13 272.11 494.3 269.94 483.83 274.02"/>
  <polygon points="461.23 296.74 470.22 302.76 481.08 297.33 486.1 299.42 487.35 306.94 476.49 310.28 465.32 314.62 460.72 312.79 458.81 299.17 461.23 296.74"/>
  <polygon points="464.04 336.19 476.91 332.01 484.01 333.68 484.85 339.95 478.16 342.46 471.89 341.2 467.23 354.06 464.04 352.02 463.15 338.36 464.04 336.19"/>
  <polygon points="402.11 377.98 402.11 385.71 410.47 390.51 410.47 427.17 417.4 438.4 426.69 443.96 435.96 438.91 436.91 433.75 427.93 422.93 424.67 414.33 424.67 392.18 421.97 380.48 407.96 377.98 402.11 377.98"/>
  <path d="M418.77,385.81l3.21-5.33,41.82-12.8,7.4-3.14,37.07-10.45,44.69-2.44,30.5,18.39v10.03l-25.94,53.89-6.65,7.95-11.28,5.43-8.36-3.34-11.46-19.64,14.39-4.6s17.88-9.34,17.97-49.31c0,0-6.61-14.7-49.73,.84l-10.31-.84-34.55,11.03-14.05,7.36-14.33-.4-6.64,4.69-4.6-2.55,.85-4.77Z"/>
  <polygon points="441.7 385.71 440.13 390.62 441.7 395 446.09 398.45 449.85 412.36 449.85 426.66 460.19 435.43 466.09 427.85 464.89 416 463.15 404.87 457.06 392.81 448.78 385.71 446.34 382.46 441.7 385.71"/>
  <polygon points="452.13 392.96 453.11 392.93 466.15 392.5 488.4 389.05 496.86 379.96 506.57 379.96 519.11 385.71 520.36 394.38 507.2 417.25 509.39 425.09 505.63 427.28 500.69 424.62 493.57 407.7 494.35 395.94 486.05 395.94 469.59 398.92 463.8 407.7 459.96 408.94 451.11 395.94 452.13 392.96"/>
  <polygon points="461.66 412.7 470.69 416 487.93 410.05 492.08 410.2 495.53 405.21 505.23 410.61 505.23 423.43 498.11 428.22 494.98 424.15 468.03 431.98 465.52 435.43 460.19 435.43 456.38 427.28 458.81 412.36 461.66 412.7"/>
</svg>