<?xml version="1.0" encoding="UTF-8"?>
<svg id="_图层_1" data-name="图层 1" xmlns="http://www.w3.org/2000/svg" viewBox="0 0 841.89 595.28">
  <path d="M426.76,247.05c19.13-5.77,39.09-2.18,39.09-2.18l2.1,1.33c10.09,6.48,12.91,5.74,12.91,5.74,9.16-.62,8.81-8.36,8.81-8.36-2.13-6.43-16.49-17.01-16.49-17.01l-2.65,.12-7.92,5.46-37.4,7.82-1.02,.05-19.43,3.53-5.38,2.9-10.33,1.69-40.76,10.22-3.67,.17-1.79,1.1,7,10.3,6.61,1.74,5.21-2.07,43.15-16.04,17.33-4.43,4.63-2.07Z"/>
  <path d="M423.87,270.09c-4.3-.42-2.15-9.96-2.15-9.96-.82-4.66,.4-8.6,3.3-11.78l-.71-9.1,1.73-10.58-1.16-3.01-14.21-12.01-2.01,.09c-6.31,.29-10.12,6.38-10.12,6.38l-1.58,1.09,.5,2.02,3.58,3.51,2.66,3.55,1.18,12.49c.18,.84-.73,10.2-.73,10.2l1.83,1.75,.08,19.45-2.99,3.11,.69,3.69,5.66,1.77,8.49-.58,6.15-2.21,3.41-3.51-3.59-6.38Z"/>
  <polygon points="423.85 270.86 429.9 269.37 433.29 267.58 435.21 264.84 437.44 264.53 450.6 271.08 451.14 274.12 450.59 279.86 446.38 281.6 429.58 280.2 420.86 281.41 393.92 290.39 384.7 294.07 378.79 294.34 372.57 287.68 373.67 284.89 403.28 277.31 423.85 270.86"/>
  <path d="M430.29,154.22c17.31-.85,35.17-1.08,51.78,4.59,4.17,1.43,8.29,3.34,12.63,4.21,4.45,.9,3.82-5.68,3.27-8.36-.78-3.82-2.88-7.36-5.59-10.14-3-3.08-6.7-5.42-10.5-7.38-2.8-1.44-6.46-4.57-9.82-3.31-2.02,.76-2.88,3.52-4.8,4.55-2.48,1.33-5.62,1.13-8.34,1.5-3.02,.41-6.05,.8-9.07,1.17-6.61,.82-13.22,1.63-19.83,2.45-.86,.11-1.83,.18-2.5-.37l-35.17,4.55c-2.78,.69-5.66,.88-8.45,1.51-10.21,2.31-20.43,4.63-30.64,6.94-3.9,.88-7.64,2.29-11.62,1.8-5.05-.62-10.1-1.77-15.11-2.66-1.98,.87-4.54,1.39-6.32,2.56-2.38,1.57-4.93,7.55-2.46,9.63,2.3,1.94,4.93,3.33,7.69,4.5,6.95,2.94,12.59,.47,19.51-1.14,5.28-1.23,10.56-2.45,15.83-3.68,10.06-2.33,20.41-4.72,30.3-7l39.2-5.93Z"/>
  <path d="M425.59,156.44c-1.83,2.04-2.77,5.07-5.05,7.15-4.58,4.15-12.58,1.41-17.98,.79-.45-.05-.92-.11-1.3-.35-.45-.28-.72-.77-.93-1.25-.39-.89-.64-1.85-1.21-2.64l-3.26-18.15c-.04-3.5-2-6.4-4.96-8.16-3.59-2.14-7.39-1.3-11.34-1.65-.81-.07-1.26-.41-1.45-.93-.99-2.83,6.18-11.11,8.75-11.72,1.36-.32,2.8-.16,4.2,.03,6.87,.94,13.7,2.18,20.44,3.77,3.88,.91,8.18,1.18,11.52,3.57,3.73,2.67,3.09,9.9,3.68,14.12l-.68,13.62-.44,1.82Z"/>
  <path d="M422.64,195.47c-.18,.23,9.78,.21,10.54,.12,4.25-.48,8.49-1.03,12.72-1.65,8.63-1.25,17.21-2.86,25.72-4.74,5.57-1.23,10.97-3.23,16.65-3.97,6.05-.78,10.95,.74,16.55,2.84,4.84,1.81,9.81,3.42,14.13,6.25,4.32,2.82,8,7.1,8.77,12.2,.77,5.11-2.15,10.9-7.15,12.19-2.34,.61-4.84,.21-7.16-.49-7.81-2.36-14.18-8.01-21.68-11.22-9.09-3.89-19.31-3.99-29.2-3.61-36.59,1.44-72.65,8.73-108.06,17.71-12.91,3.27-25.76,6.76-38.6,10.3-6.51,1.79-13.02,3.6-19.53,5.4-5.51,1.52-11.54,3.41-17.17,1.41-5.05-1.79-9.07-6.55-11.94-10.89-.49-.73-.95-1.5-1.11-2.37-.64-3.48,3.16-2.88,5.26-2.4,11.19,2.57,23.31-.49,34.26-2.9,20.37-4.49,40.74-8.99,61.11-13.48l15.55-5.21,3.7-.87c5.59-1.05,10.27-2.27,15.86-3.33,1.71-.32,6.16-1.39,7.63-2.31l13.15,1Z"/>
  <path d="M423.1,195.74c3.96-5.11,13.35-2.66,18.04-7.54,1.98-2.06,3.12-5.19,5.83-6.09,1.39-.46,2.93-.21,4.35-.58,3.95-1.03,5.08-6.63,2.97-10.13-2.11-3.5-6.18-5.25-10.07-6.49-3.89-1.24-8.03-2.26-11.09-4.97-1.36-1.21-3.25-2.81-4.69-1.7-.37,.29-.61,.72-.83,1.13-5.54,10.21-11.07,20.43-16.61,30.64-1.14,2.1-2.36,4.3-4.39,5.57l-4.23,7.02,14.3-4,6.43-2.87Z"/>
  <path d="M385.06,200.29c1.49-4.82-1.16-10.16-5.1-13.31-3.94-3.15-8.94-4.6-13.8-5.97-4.64-1.31-10.26-3.93-15.04-4.08,.36,5.51,4.25,12.54,7.76,16.71,4.04,4.82,10.65,8.03,16.68,6.25l-3.99,5.13,11.25-3.77,2.24-.97Z"/>
  <path d="M314.74,399.55c-.79,.15-2.1,1.38-2.51,1.78-4.85,4.73-9.19,9.12-15.51,11.9-7.28,3.21-3.54,9.09-.3,14.06,2.32,3.55,3.33,7.94,6.31,11.06,2.22,2.32,5.43,3.42,8.57,3.7,2.95,.26,6.23,0,9.07-.87,.39-.12,.78-.26,1.06-.55,.49-.51,.5-1.32,.3-2-1.27-4.29-3.85-7.76-5.89-11.66-4.71-8.99-1.89-17-.52-26.34,.13-.91-.14-1.17-.58-1.08Z"/>
  <path d="M340.02,390.09c2.42,11.49,7.96,22.32,15.87,30.99,8.7,9.54,18.69,17.94,30.36,23.62,12.03,5.86,25.22,8.72,38.18,11.72,15.34,3.56,31.2,2.59,46.72,.9,6.43-.7,12.81-1.68,19.21-2.63,4.5-.67,8.44-.72,12.55-3.08,3.38-1.94,6.27-4.63,8.87-7.53,.86-.96,1.69-1.94,2.49-2.94,.29-.37,.59-.76,.64-1.23,.16-1.41-3.32-4.57-4.21-5.57-1.69-1.91-3.54-3.79-5.8-5.03-3.71-2.03-8.55-1.88-12.51-3.27-4.47-1.57-8.8-3.67-12.58-6.57-6.96-5.34-13.74-10.91-20.33-16.69-3.23-2.83-6.41-5.72-9.54-8.66-.55-.52-8.72-7.93-8.89-7.5-1.06,2.72,.56,6.22,1.58,8.74,2.3,5.64,4.44,11.35,6.41,17.11,2.38,6.94,3.27,13.22,3.43,20.5,.05,2.39,.6,3.59-1.75,4.7-3.02,1.43-7,.78-10.17,.32-10.08-1.46-20.25-2.89-30.18-5.22-15.81-3.61-30.97-10.08-44.52-18.99-8.31-5.46-18.02-11.56-23.55-20.04-.78-1.2-1.49-2.45-2.3-3.65Z"/>
  <path d="M400.06,378.52c-.36,.16-.67,.29-.84,.37-3.07,1.55-6.56,2.57-9.51,4.31-7.83,4.64-6.42,13.82,.37,18.8,4.38,3.21,13.9,9.58,19.55,6.31,1.93-1.12,2.86-3.34,3.83-5.34,3.28-6.76,8.4-12.62,14.65-16.81,6.42-4.3,13.97-7.13,20-11.97-4.8,.3-11.5,2.79-15.98,4.49-4.73,1.79-9.38,3.8-14.01,5.85-4.46,1.98-13.93,6.76-16.66-.02-.94-2.33,.26-4.35,.34-6.6-.64,.06-1.13,.35-1.74,.61Z"/>
  <path d="M459.7,370.57c3.84-.48,10.63-1.68,14.5-1.68h10.49c.75,0,3.68,3.5,4.16,4.13,1.59,2.09,2.5,4.68,2.95,7.25,.36,2.07,.44,4.17,.39,6.27-.07,2.85-.4,5.75,.22,8.54,1.18,5.34,8.37,9.12,13.5,8.33,1.42-.22,2.84-.44,4.25-.65,5.68-.87,10.29-3.37,11.41-9.55,1.33-7.34-6.21-14.41-10.72-19.25-1.92-2.06-3.86-4.14-6.2-5.72-3.04-2.06-6.36-2.26-9.79-3.09-4.18-1-8.63-1.43-12.91-.87-6.83,.91-15.99,3.54-22.25,6.29Z"/>
  <path d="M502.5,231.45c.68-1.09,1.94-1.54,4.11-.76,5.92,2.11,11.35,5.58,15.72,9.93,4.85,4.83,5.8,11.65,4.59,18.02-.04,.24-.1,.49-.29,.65-.17,.15-.42,.19-.65,.22-5.1,.6-9.51,1.19-12.15-3.22-3.1-5.18-11.39-9.29-13.27-15.02-.36-1.1-.49-2.26-.56-3.42-.11-1.8,1.82-5.33,2.49-6.41Z"/>
  <path d="M520.23,278.63c-7.19,3.48-16.31,2.58-22.67-2.26-1.17-.89-2.35-2.31-1.77-3.66,.41-.95,1.51-1.35,2.5-1.61,7.22-1.91,14.84-1.44,22.21-2.67,9-1.51,17.48-5.53,26.54-6.63,3.01-.37,6.22-.45,8.78-2.08,1.29-.82,2.41-2.02,3.91-2.29,1.06-.19,2.14,.12,3.15,.49,3.3,1.24,6.3,3.29,8.66,5.91,.52,.57,1.03,1.28,.9,2.04-.14,.84-.99,1.34-1.77,1.69-6.17,2.8-13.39,4.34-20.02,5.57-6.81,1.27-13.68,2.03-20.41,3.7"/>
  <path d="M538.53,263.55c1.45-1.42,3.59-4.89,4.92-6.14,2.43-2.27,4.36-4.55,7.02-6.55,5.03-3.8,10.38-6.74,15.89-9.72,1.52-.82,2.96-2.22,2.94-3.95-.01-1.21-.74-2.28-1.44-3.27-4.24-5.98-8.48-11.96-12.72-17.94-2.69-3.79-7.33-2.34-10.7,.07-.98,.7-1.8,1.68-2.21,2.77-.23,.62-.33,1.28-.24,1.94,.3,2.28,2.54,3.82,3.74,5.81,2.29,3.83,.46,8.61-1.39,12.65-3.4,7.41-6.79,14.82-10.19,22.22-.75,1.63-1.08,4.28-2.6,5.31l-.51,2.43,.51,2.81,3.06-3.7,3.91-4.73Z"/>
  <polygon points="298.09 243.29 303.57 257.95 303.57 261.77 294.57 308.98 292.18 312.61 289.87 314.41 289.29 315.81 284.18 332.87 282.84 337.01 282.84 340.72 285.14 341.66 296.77 344.19 301.95 347.12 305.08 351.03 321.85 362.57 325.58 367.36 331.23 381.58 334.5 385.51 336.85 385.26 345.23 378.34 345.94 374.19 336.16 349.95 328.44 347.08 326.08 346.36 310.16 338.36 303.46 338.36 294.49 331.3 300.46 319.64 307.18 307.79 318.01 281.34 327.16 255.05 324.32 252.87 310.42 247.19 302.05 243.29 298.09 243.29"/>
  <polygon points="321.85 281.34 321.85 276.95 325.23 274.52 328.28 274.12 331.81 275.54 342.71 284.07 346.63 289.48 347.12 294.34 339.94 314.47 325.69 342.68 326.08 346.36 318.85 360.5 314.87 361.26 303.94 372.69 287.91 384.87 268.5 395.37 266.06 395.81 266.3 393.34 272.22 388.13 280.71 380.65 292.52 367.73 306.59 348.32 320.81 316.74 323.09 311.86 323.79 305.24 327.41 291.13 321.85 281.34"/>
  <polygon points="239.61 336.14 239.15 338.57 241.31 340.8 243.87 343.29 246.01 345.93 246.78 346.71 250.43 348.13 253.33 347.45 283.14 328.85 286.34 328.85 300.46 319.64 321.94 308.98 325.66 310.19 338.77 312.75 342.17 317.24 344.3 318.66 347.86 318.03 350.19 314.4 349.64 311.42 340.02 304.06 325.32 304.92 306.7 311.86 307.18 307.79 283.45 319.42 249.91 331.77 242.2 334.44 239.61 336.14"/>
  <polygon points="355.66 311.49 355.66 313.95 361.46 316.07 369.66 324.17 374.44 343.55 376.9 366.02 379.91 369.09 387.11 364.03 387.08 346.02 383.18 328.07 381.62 323.47 376.84 308.95 372.74 308.95 355.66 311.49"/>
  <polygon points="460.53 282.24 455.41 282.24 449.6 286.82 415.91 294.57 377.45 308.95 374.39 308.95 369.92 314.4 371.96 316.4 375.54 316.4 449.26 294.92 452.33 297.74 443.79 342.85 444.82 355.81 444.82 361.52 449.26 364.34 454.04 366.11 457.12 359.76 474.2 313.6 485.47 301.62 485.47 298.8 460.53 282.24"/>
  <polygon points="376.9 329.09 382.34 330.45 389.82 330.52 411 322.76 415.91 319.45 422.95 322.76 424.66 326.82 422.95 330.52 409.29 335.8 389.48 338.97 378.09 336.92 373.83 331.64 376.9 329.09"/>
  <polygon points="361.46 367.87 358.73 371.39 379.57 371.39 434.91 356.94 452.33 359.04 459.7 346.62 449.07 341.51 380.81 353.6 377.92 360.23 376.49 363.99 361.46 367.87"/>
  <polygon points="519.81 276.15 521.51 271.55 526.62 271.55 531.24 277.17 531.53 278.04 535.78 280.41 538.35 283.22 539.14 286.2 539.14 290.62 540.56 308.15 542.28 321.09 540.48 334.88 541.24 346.45 540.68 361.45 538.2 380.05 536.1 389.15 534.11 391.64 529.98 390.23 528.27 385.34 526.11 361.26 526.96 319.21 525.94 291.98 519.81 277.51 519.81 276.15"/>
  <polygon points="502.46 297.8 504.6 301.66 509.92 307.19 512.57 308.03 535.04 302.64 546.8 299.09 556.51 298.45 561.13 297.1 562.42 294.87 561.6 292.53 554.2 286.85 548.78 284.96 531.32 291.64 523.81 294.7 511.59 295.41 504.23 296.49 502.46 297.8"/>
  <polygon points="479.99 328.86 478.98 331.13 479.48 334.36 481.07 338.12 486.55 339.7 492.84 339.4 505.1 336.78 526.06 330.04 545.53 327.95 555.98 326.62 563.3 326.82 577.93 328.02 581.75 327.41 583.63 325.35 581.53 319.92 576.72 313.6 571.25 309.38 567.34 309.36 564.36 311.9 561.3 313.59 554.77 314.81 542.87 315.98 524.75 317.62 514.94 321.35 492.88 325 484.11 326.31 479.99 328.86"/>
</svg>