<?xml version="1.0" encoding="utf-8"?>
<!-- Generator: Adobe Illustrator 26.5.0, SVG Export Plug-In . SVG Version: 6.00 Build 0)  -->
<svg version="1.1" id="图层_1" xmlns="http://www.w3.org/2000/svg" xmlns:xlink="http://www.w3.org/1999/xlink" x="0px" y="0px"
	 viewBox="0 0 841.89 595.28" style="enable-background:new 0 0 841.89 595.28;" xml:space="preserve">
<style type="text/css">
	.st0{fill:#FFFFFF;}
	.st1{fill:#040000;}
	.st2{fill:#E71F1A;}
	.st3{fill:none;stroke:#000000;stroke-miterlimit:10;}
</style>
<g>
	<path class="st1" d="M408.35,233.75c0,0,4.07-6.51,10.82-6.82l2.15-0.1l15.18,12.84l1.24,3.22l-1.85,11.31l1.09-0.05l39.97-8.36
		l8.46-5.84l2.83-0.13c0,0,15.34,11.3,17.62,18.18c0,0,0.37,8.27-9.41,8.93c0,0-3.02,0.79-13.8-6.14l-2.25-1.43
		c0,0-21.33-3.83-41.77,2.33c0,0-7.02,4.03-5.26,13.98c0,0-2.55,11.02,2.05,11.47l6.47-1.6l3.62-1.91l2.05-2.93l2.38-0.33l14.06,7
		l0.58,3.25l-0.59,6.13l-4.5,1.86l-17.95-1.5l-9.32,1.29l-28.79,9.59l-9.86,3.94l-6.31,0.29l-6.65-7.11l1.17-2.98l31.65-8.11
		l3.2-2.76l0.13-21.16l-1.59-1.45l-46.12,17.14l-5.57,2.22l-7.06-1.86l-7.48-11l1.91-1.18l3.92-0.18l43.57-10.92l11.04-1.81
		l5.75-3.1l-1.26-13.35l-2.84-3.8l-3.83-3.75l-0.53-2.16L408.35,233.75z"/>
	<path class="st1" d="M474.86,299.31h-5.48l-6.21,4.9l-36,8.29l-41.76,15.37h-4.38l-18.25,2.71v2.64l6.21,2.26l8.76,8.66l5.11,20.71
		l2.19,21.84l-16.06,4.14l-2.92,3.77h22.27l59.15-15.44l10.59,1.13v3.77l4.75,3.01l5.11,1.88l3.29-6.78l18.25-49.33l12.05-12.8
		v-3.01L474.86,299.31z M456.97,364.08l-60.61,10.54v-7.16l-1.83-7.53h4.38l21.18-3.39l14.6-5.65l1.83-3.95l-1.83-4.33l-7.52-3.54
		l-5.25,3.54l-22.64,8.29H396h-2.92l-2.56-7.53l-1.83-9.04l74.11-21.47l3.29,3.01L456.97,364.08z"/>
	<g>
		<path class="st1" d="M386.71,137.92c-1.06-3.03,6.6-11.88,9.35-12.53c1.45-0.34,2.99-0.17,4.49,0.03
			c7.34,1.01,14.64,2.33,21.85,4.03c4.14,0.98,8.75,1.26,12.31,3.82c3.98,2.86,3.3,10.58,3.93,15.09c0.12,0.84,0.28,1.76,0.93,2.3
			c0.72,0.59,1.75,0.51,2.67,0.39c7.06-0.87,14.13-1.75,21.19-2.62c3.23-0.4,6.47-0.81,9.7-1.25c2.91-0.39,6.26-0.18,8.91-1.6
			c2.05-1.1,2.97-4.05,5.13-4.86c3.59-1.34,7.51,1.99,10.5,3.53c4.06,2.09,8.02,4.6,11.22,7.89c2.89,2.97,5.14,6.75,5.97,10.84
			c0.59,2.86,1.27,9.89-3.49,8.93c-4.63-0.93-9.04-2.98-13.49-4.5c-17.75-6.07-36.84-5.81-55.34-4.91c-6.38,0.31-6.58,6.45-10.49,10
			c-4.89,4.44-13.45,1.51-19.22,0.84c-0.48-0.06-0.98-0.12-1.39-0.37c-0.48-0.3-0.77-0.82-0.99-1.34c-0.41-0.95-0.68-1.98-1.29-2.82
			c-1.85-2.58-6.14-0.51-8.51,0.04c-10.58,2.43-21.63,4.99-32.39,7.48c-5.64,1.31-11.28,2.62-16.92,3.93
			c-7.4,1.72-13.42,4.37-20.85,1.22c-2.95-1.25-5.76-2.73-8.22-4.81c-2.63-2.22,0.09-8.62,2.63-10.29c1.9-1.25,4.63-1.81,6.75-2.74
			c5.36,0.94,10.74,2.17,16.15,2.84c4.25,0.52,8.24-0.97,12.41-1.92c10.92-2.47,21.83-4.95,32.75-7.42
			c2.99-0.68,6.06-0.87,9.04-1.61c4.03-1,3.74-2.12,3.69-6.12c-0.05-3.74-2.14-6.84-5.3-8.72c-3.84-2.28-7.9-1.39-12.11-1.76
			C387.39,138.83,386.9,138.48,386.71,137.92z"/>
		<path class="st1" d="M357.82,186.81c5.1,0.17,11.11,2.96,16.07,4.36c5.19,1.47,10.54,3.01,14.75,6.38
			c4.21,3.37,7.05,9.07,5.45,14.22c5.97-1.13,11.94-2.25,17.92-3.38c1.82-0.34,3.7-0.71,5.27-1.69c2.17-1.36,3.48-3.71,4.69-5.95
			c5.92-10.92,11.83-21.83,17.75-32.75c0.24-0.44,0.49-0.9,0.89-1.21c1.54-1.19,3.56,0.53,5.01,1.82c3.27,2.89,7.69,3.99,11.85,5.31
			s8.51,3.2,10.76,6.93c2.25,3.74,1.05,9.72-3.17,10.83c-1.51,0.4-3.16,0.13-4.64,0.62c-2.9,0.96-4.12,4.31-6.23,6.51
			c-5.01,5.21-15.05,2.6-19.28,8.05c-0.19,0.25,10.45,0.22,11.26,0.13c4.54-0.52,9.07-1.1,13.6-1.76
			c9.22-1.34,18.39-3.05,27.49-5.06c5.95-1.31,11.73-3.46,17.79-4.24c6.46-0.84,11.7,0.79,17.69,3.03
			c5.17,1.93,10.48,3.66,15.1,6.68c4.62,3.02,8.55,7.59,9.37,13.04s-2.3,11.65-7.64,13.03c-2.51,0.65-5.17,0.23-7.65-0.52
			c-8.34-2.52-15.16-8.56-23.17-11.99c-9.72-4.16-20.64-4.27-31.2-3.85c-39.11,1.54-77.65,9.33-115.49,18.93
			c-13.8,3.5-27.54,7.23-41.26,11.01c-6.96,1.92-13.91,3.85-20.87,5.77c-5.88,1.62-12.33,3.64-18.35,1.51
			c-5.39-1.92-9.69-7-12.76-11.64c-0.52-0.78-1.02-1.61-1.19-2.53c-0.68-3.72,3.38-3.08,5.62-2.56c11.96,2.75,24.91-0.52,36.61-3.1
			c21.77-4.8,43.54-9.6,65.31-14.4c3.97-0.88,8.9-2.9,8.76-6.97c-6.44,1.9-13.51-1.54-17.83-6.68
			C362.36,200.21,358.2,192.7,357.82,186.81z"/>
	</g>
	<g>
		<path class="st1" d="M319.04,424.68c-0.84,0.16-2.25,1.47-2.69,1.9c-5.18,5.06-9.82,9.75-16.57,12.72
			c-7.78,3.43-3.79,9.72-0.32,15.02c2.48,3.8,3.56,8.49,6.74,11.82c2.37,2.48,5.81,3.66,9.16,3.96c3.15,0.28,6.66,0.01,9.7-0.93
			c0.41-0.13,0.83-0.28,1.14-0.59c0.53-0.54,0.53-1.41,0.32-2.14c-1.36-4.59-4.11-8.3-6.29-12.46c-5.04-9.6-2.02-18.16-0.56-28.15
			C319.8,424.86,319.51,424.59,319.04,424.68z"/>
		<path class="st1" d="M346.06,414.58c2.58,12.28,8.5,23.85,16.96,33.12c9.3,10.2,19.98,19.17,32.45,25.24
			c12.86,6.26,26.96,9.32,40.81,12.53c16.39,3.8,33.35,2.77,49.93,0.97c6.88-0.75,13.69-1.8,20.54-2.81
			c4.81-0.71,9.02-0.77,13.41-3.29c3.61-2.07,6.7-4.95,9.48-8.05c0.92-1.02,1.8-2.07,2.66-3.15c0.31-0.39,0.63-0.81,0.69-1.31
			c0.17-1.51-3.55-4.88-4.5-5.96c-1.81-2.04-3.79-4.05-6.2-5.38c-3.96-2.17-9.14-2-13.37-3.49c-4.78-1.68-9.41-3.93-13.44-7.02
			c-7.44-5.7-14.68-11.66-21.73-17.84c-3.45-3.03-6.85-6.11-10.2-9.25c-0.59-0.55-9.32-8.48-9.5-8.02
			c-1.14,2.91,0.59,6.64,1.69,9.34c2.46,6.03,4.74,12.12,6.85,18.28c2.54,7.42,3.5,14.13,3.67,21.91c0.06,2.56,0.64,3.83-1.87,5.02
			c-3.23,1.53-7.48,0.83-10.87,0.35c-10.78-1.56-21.64-3.09-32.25-5.58c-16.9-3.86-33.1-10.77-47.58-20.29
			c-8.89-5.84-19.26-12.35-25.17-21.42C347.68,417.19,346.92,415.86,346.06,414.58z"/>
		<path class="st1" d="M410.23,402.21c-0.39,0.17-0.72,0.31-0.9,0.4c-3.29,1.65-7.01,2.75-10.16,4.61
			c-8.37,4.96-6.86,14.77,0.4,20.09c4.68,3.43,14.85,10.24,20.9,6.74c2.06-1.19,3.06-3.57,4.1-5.71
			c3.51-7.23,8.98-13.49,15.65-17.96c6.86-4.6,14.93-7.62,21.37-12.79c-5.13,0.32-12.29,2.98-17.08,4.8
			c-5.06,1.92-10.03,4.06-14.97,6.25c-4.76,2.11-14.89,7.22-17.81-0.03c-1-2.49,0.28-4.65,0.37-7.05
			C411.4,401.62,410.88,401.93,410.23,402.21z"/>
		<path class="st1" d="M473.97,393.71c4.11-0.52,11.36-1.8,15.49-1.8c0,0,10.85,0,11.22,0c0.81,0,3.93,3.74,4.45,4.42
			c1.69,2.24,2.68,5,3.15,7.74c0.38,2.21,0.47,4.46,0.41,6.7c-0.08,3.05-0.42,6.15,0.23,9.12c1.26,5.71,8.94,9.75,14.43,8.91
			c1.52-0.23,3.03-0.47,4.55-0.7c6.07-0.93,11-3.61,12.19-10.21c1.42-7.84-6.63-15.4-11.45-20.58c-2.05-2.2-4.13-4.43-6.62-6.11
			c-3.25-2.2-6.79-2.42-10.46-3.3c-4.47-1.07-9.23-1.53-13.8-0.92C490.45,387.96,480.66,390.77,473.97,393.71z"/>
	</g>
	<path class="st1" d="M349.43,337.78c0.36,0.23,0.78,0.37,1.2,0.46c1.97,0.41,4.14-0.42,5.34-2.04c1.19-1.62,1.34-3.94,0.37-5.7
		c-0.46-0.82-7.49-5.6-7.58-5.37c2.29-5.51,6.62-11.96,4.37-18.07c-0.18-0.49-0.4-0.98-0.66-1.43c-1.78-3.15-6.51-7.27-9.44-9.42
		c-2.6-1.62-6.48-5.3-9.51-5.56c-1.1-0.1-2.19,0.16-3.26,0.43c-0.66,0.16-1.32,0.34-1.91,0.67c-1.24,0.7-2.05,2.11-2.02,3.54
		c-0.68-0.19-1.35-0.37-2.03-0.56c2.41-8.22,5.33-16.33,8.02-24.46c0.57-1.74-15.66-7.47-17.89-8.4c-2.75-1.15-7.62-4.44-10.64-4.44
		c-0.91,0-1.76-0.07-2.53,0.27c1.22,4.53,3.55,9.01,5.32,13.37c1.55,3.82-0.41,8.96-1.2,12.92c-1.04,5.2-2.09,10.41-3.13,15.61
		c-1.14,5.7-2.3,11.4-3.45,17.1c-0.69,3.44-0.79,13.07-3.85,15.09c-0.88,0.58-1.95,1-2.48,1.92c-0.27,0.47-0.37,1.02-0.62,1.5
		c-1.26,2.46-7.57,3.76-10.01,4.71c-4.89,1.91-9.77,3.82-14.65,5.74s-9.77,3.83-14.65,5.75c-2.96,1.16-16.65,3.88-14.28,8.13
		c0.54,0.97,1.46,1.67,2.31,2.39c1.66,1.4,3.16,2.99,4.46,4.73c0.42,0.56,0.83,1.15,1.39,1.58c0.61,0.48,1.35,0.74,2.07,1
		c1.18,0.42,2.47,0.84,3.66,0.45c0.45-0.15,0.86-0.4,1.26-0.65c6.76-4.23,13.52-8.44,20.29-12.66c2.68-1.67,5.36-3.34,8.04-5.01
		c0.73-0.45,2.65-2.21,3.54-2.21c2.39,0,1.82,0.26,1.54,2.35c-0.28,2.1-1.26,4.32-1.86,6.36c-0.96,3.3-0.57,4.54,2.46,4.97
		c2.4,0.34,4.78,0.56,7.15,1.11c5.35,1.25,11.63,3.6,14.16,8.9c-10.93,15.55-23.09,30.97-38.49,42.22c-1.14,0.84-2.32,1.66-2.95,3
		c-1.34,2.86,0.41,3.08,2.35,2.17c2.28-1.07,4.42-2.6,6.67-3.76c4.72-2.44,9.57-4.63,14.07-7.46c7.13-4.49,13.81-9.71,19.87-15.57
		c3.12-3.01,5.72-6.83,8.95-9.66c4.35-3.82,9.39,3.28,11.45,6.53c2.1,3.32,5.65,19.97,10.73,19.64c0.47-0.03,0.9-0.27,1.3-0.51
		c2.63-1.55,5.09-3.38,7.34-5.44c4.57-4.19,1.8-8.47-0.05-13.32c-1.93-5.05-3.85-10.1-5.74-15.17c-0.52-1.4-1.1-2.88-2.27-3.8
		c-0.75-0.59-1.68-0.9-2.58-1.2c-1.89-0.62-3.78-1.25-5.68-1.87c-2.03-0.67-3.41-0.52-3.47-2.4c-0.1-2.75,4.03-8.28,5.27-10.83
		c3.5-7.21,7-14.42,10.49-21.63c0.79,0.99,1.59,1.98,2.38,2.96c0.27,0.33,0.54,0.67,0.87,0.92
		C349.3,337.69,349.36,337.73,349.43,337.78z M315.88,356.82l-1.73,2.46h-7.16l-6.42-5.54l-3.17-2l6.38-12.46l6.66-3.14l16.29-8.25
		l1.23,3.08L315.88,356.82z M328.71,323.89l-5.68,2.46l-12.59,4.62v-3.08l12.09-29.55h2.71l2.47,1.54l4.86,8.93L328.71,323.89z"/>
	<g>
		<path class="st1" d="M519.71,245.03c0.73-1.17,2.07-1.64,4.39-0.81c6.33,2.25,12.13,5.96,16.81,10.61
			c5.18,5.16,6.2,12.46,4.91,19.26c-0.05,0.25-0.11,0.52-0.31,0.7c-0.19,0.16-0.45,0.2-0.7,0.23c-5.45,0.64-10.16,1.27-12.98-3.44
			c-3.32-5.53-12.17-9.93-14.18-16.05c-0.39-1.18-0.52-2.42-0.6-3.65C516.93,249.96,518.99,246.19,519.71,245.03z"/>
		<path class="st1" d="M562.15,231.52c0.43-1.16,1.31-2.21,2.36-2.96c3.6-2.57,8.56-4.12,11.43-0.07
			c4.53,6.39,9.06,12.78,13.6,19.18c0.75,1.06,1.53,2.2,1.54,3.5c0.02,1.85-1.52,3.35-3.15,4.22c-5.88,3.18-11.61,6.33-16.98,10.38
			c-2.84,2.14-4.91,4.58-7.5,7.01c-1.42,1.33-3.71,5.04-5.26,6.56c3.95-0.65,8.01-1.03,12.37-2.01c2.12-0.48,4.2-1.1,6.19-1.98
			c1.55-0.68,3.95-2.9,5.64-2.78c0.84,0.06,1.62,0.45,2.37,0.84c2.67,1.37,5.36,2.75,7.68,4.66c0.69,0.56,1.35,1.19,1.76,1.98
			c0.41,0.79,0.53,1.77,0.11,2.56c-1.05,2-5.03,2.36-6.92,2.86c-3.25,0.86-6.5,1.72-9.77,2.51c-6.53,1.58-13.15,2.92-19.86,3.46
			c-3.07,0.25-5.49,0.51-6.96,3.39c2.27,1.09,4.61,2.22,6.29,4.1c1.84,2.05,1.96,4.43,1.88,6.93c0.01-0.43,9.3-3.66,10.18-3.64
			c0.98,0.02,1.93,0.34,2.84,0.69c2.99,1.16,5.8,2.77,8.32,4.75c0.97,0.76,1.9,1.6,2.55,2.65c4.25,6.92-8.05,6.49-11.5,6.66
			c-4.58,0.23-12.21,0.57-11.34,7.04c0.26,1.9,0.54,3.81,0.85,5.7c0.19,1.15,0.4,2.35,1.12,3.27c1.21,1.54,3.45,1.81,5.4,1.6
			c5.74-0.61,13.59,0.29,18.41-3.56c1.09-0.87,1.98-2.01,3.19-2.72c5.73-3.4,16.26,11.28,17.35,15.92c0.22,0.94,0.04,2.05-0.7,2.67
			c-2.61,2.18-9.26,1.15-12.33,0.92c-4.85-0.36-9.67-1.17-14.55-1.12c-4.39,0.04-8.74,0.76-13.08,1.48
			c-2.24,0.37-4.47,0.61-5.02,3.23c-0.87,4.11,0.32,8.36,0.45,12.49c0.14,4.52,0.11,9.05-0.1,13.57
			c-0.55,11.57-2.09,23.6-4.94,34.84c-0.25,1-0.54,2.02-1.18,2.82c-0.96,1.19-2.68,1.35-4.06,0.86c-1.24-0.45-2.12-1.6-2.56-2.84
			c-1.76-4.96-1.6-11.43-2.07-16.63c-0.55-6.07-0.92-12.15-1.1-18.24c-0.17-5.46-0.14-10.91-0.06-16.37
			c0.05-3.57,1.21-8.09-0.14-11.48c0.28,0.73-20.5,6.75-22.4,7.2c-7.35,1.76-15.37,4.09-22.96,2.78c-0.61-0.11-1.22-0.24-1.76-0.54
			c-1.94-1.09-3.01-4.59-3.17-6.67c-0.56-7.33,8.96-7.51,13.99-8.06c9.53-1.04,19-2.68,28.33-4.89c4.09-0.97,7.03-2,8.17-6.28
			c0.88-3.32,0.74-7.22-0.02-10.55c-4.28,1.29-8.45,2.72-12.9,3.34c-1.06,0.15-2.16,0.26-3.18-0.07c-0.98-0.31-1.8-1-2.55-1.71
			c-2.57-2.41-5.63-5.65-6.77-9.02c3.33-1.87,7.36-2.34,11.1-2.68c3.2-0.29,7.42,0.22,10.39-1.2c5.4-2.59-1.74-11.24-2.51-14.68
			c-0.15-0.68-0.19-1.39-0.4-2.02c-3.71,2.23-8.14,1.54-12.25,2.17c-2.8,0.43-16.83-4.57-12.48-9.52
			c1.48-1.69,12.79-1.84,15.37-2.24c5.53-0.85,11.06-1.71,16.59-2.56c1.66-0.26,3.39-0.54,4.77-1.47c1.62-1.1,2.49-2.93,3.29-4.68
			c3.63-7.92,7.26-15.83,10.89-23.75c1.98-4.31,3.93-9.43,1.48-13.52c-1.28-2.14-3.67-3.77-4-6.21
			C561.8,232.88,561.9,232.18,562.15,231.52z"/>
	</g>
</g>
</svg>
