<?xml version="1.0" encoding="UTF-8"?>
<svg id="_图层_1" data-name="图层 1" xmlns="http://www.w3.org/2000/svg" viewBox="0 0 841.89 595.28">
  <defs>
    <style>
      .cls-1 {
        fill: #040000;
      }
    </style>
  </defs>
  <path class="cls-1" d="M389.61,211.45s3.47-5.55,9.22-5.81l1.83-.08,12.94,10.94,1.05,2.74-1.58,9.64,.93-.04,34.06-7.12,7.21-4.97,2.41-.11s13.07,9.63,15.01,15.49c0,0,.32,7.05-8.02,7.61,0,0-2.57,.67-11.76-5.23l-1.91-1.21s-18.18-3.26-35.59,1.99c0,0-5.98,3.43-4.48,11.91,0,0-2.18,9.39,1.74,9.77l5.51-1.37,3.09-1.63,1.75-2.5,2.03-.28,11.98,5.96,.5,2.77-.51,5.23-3.83,1.58-15.3-1.28-7.94,1.1-24.53,8.17-8.4,3.35-5.38,.24-5.66-6.06,1-2.54,26.97-6.91,2.72-2.35,.11-18.03-1.36-1.24-39.3,14.6-4.75,1.89-6.02-1.59-6.37-9.38,1.63-1,3.34-.15,37.12-9.3,9.41-1.54,4.9-2.64-1.07-11.38-2.42-3.24-3.26-3.2-.46-1.84,1.44-.99Z"/>
  <path class="cls-1" d="M446.28,267.32h-4.67l-5.29,4.17-30.68,7.06-35.58,13.09h-3.73l-15.55,2.31v2.25l5.29,1.93,7.47,7.38,4.36,17.65,1.87,18.61-13.69,3.53-2.49,3.21h18.98l50.39-13.16,9.02,.96v3.21l4.04,2.57,4.36,1.6,2.8-5.78,15.55-42.04,10.27-10.91v-2.57l-22.71-15.08Zm-15.24,55.19l-51.64,8.98v-6.1l-1.56-6.42h3.73l18.04-2.89,12.44-4.81,1.56-3.37-1.56-3.69-6.41-3.02-4.48,3.02-19.29,7.06h-5.29l-2.18-6.42-1.56-7.7,63.15-18.29,2.8,2.57-7.78,41.07Z"/>
  <g>
    <path class="cls-1" d="M371.17,129.8c-.9-2.58,5.63-10.12,7.97-10.67,1.24-.29,2.55-.15,3.82,.03,6.25,.86,12.47,1.98,18.62,3.43,3.53,.83,7.45,1.07,10.49,3.25,3.39,2.43,2.82,9.01,3.35,12.85,.1,.72,.24,1.5,.79,1.96,.61,.5,1.49,.43,2.28,.34,6.02-.74,12.04-1.49,18.06-2.23,2.76-.34,5.51-.69,8.26-1.06,2.48-.33,5.33-.16,7.59-1.36,1.75-.94,2.53-3.45,4.37-4.14,3.06-1.15,6.4,1.7,8.94,3.01,3.46,1.78,6.83,3.92,9.56,6.72,2.46,2.53,4.38,5.75,5.09,9.23,.5,2.44,1.08,8.43-2.98,7.61-3.95-.79-7.7-2.54-11.5-3.84-15.12-5.17-31.39-4.95-47.15-4.18-5.43,.27-5.6,5.49-8.94,8.52-4.17,3.78-11.46,1.28-16.37,.72-.41-.05-.84-.1-1.19-.32-.41-.26-.65-.7-.84-1.14-.35-.81-.58-1.69-1.1-2.41-1.58-2.2-5.23-.43-7.25,.03-9.01,2.07-18.43,4.25-27.59,6.37-4.81,1.11-9.61,2.23-14.42,3.35-6.31,1.47-11.44,3.72-17.77,1.04-2.51-1.06-4.91-2.33-7.01-4.09-2.24-1.89,.08-7.34,2.24-8.77,1.62-1.06,3.95-1.54,5.75-2.33,4.56,.8,9.15,1.85,13.76,2.42,3.62,.45,7.02-.83,10.58-1.64,9.3-2.11,18.6-4.21,27.9-6.32,2.54-.58,5.17-.74,7.7-1.38,3.43-.85,3.19-1.8,3.15-5.22-.04-3.19-1.82-5.83-4.52-7.43-3.27-1.95-6.73-1.18-10.32-1.5-.74-.07-1.15-.37-1.32-.84Z"/>
    <path class="cls-1" d="M346.56,171.46c4.35,.14,9.47,2.52,13.69,3.72,4.42,1.25,8.98,2.57,12.57,5.44,3.59,2.87,6.01,7.73,4.65,12.12,5.09-.96,10.18-1.92,15.27-2.88,1.55-.29,3.15-.6,4.49-1.44,1.85-1.16,2.96-3.16,4-5.07,5.04-9.3,10.08-18.6,15.12-27.91,.21-.38,.42-.77,.76-1.03,1.31-1.01,3.03,.45,4.27,1.55,2.78,2.47,6.55,3.4,10.1,4.53,3.54,1.13,7.25,2.72,9.17,5.91,1.92,3.18,.89,8.28-2.7,9.22-1.29,.34-2.69,.11-3.96,.53-2.47,.82-3.51,3.67-5.31,5.55-4.27,4.44-12.82,2.21-16.43,6.86-.16,.21,8.91,.19,9.6,.11,3.87-.44,7.73-.94,11.58-1.5,7.86-1.14,15.67-2.6,23.42-4.31,5.07-1.12,9.99-2.94,15.16-3.61,5.51-.71,9.97,.68,15.07,2.58,4.4,1.65,8.93,3.12,12.87,5.69,3.94,2.57,7.29,6.46,7.99,11.11,.7,4.65-1.96,9.92-6.51,11.1-2.13,.55-4.41,.2-6.52-.44-7.11-2.15-12.92-7.3-19.74-10.22-8.28-3.54-17.59-3.64-26.59-3.28-33.32,1.31-66.16,7.95-98.4,16.13-11.76,2.98-23.46,6.16-35.15,9.38-5.93,1.63-11.85,3.28-17.78,4.91-5.01,1.38-10.5,3.1-15.64,1.29-4.6-1.63-8.26-5.97-10.87-9.92-.44-.67-.87-1.37-1.01-2.16-.58-3.17,2.88-2.62,4.79-2.19,10.19,2.34,21.23-.44,31.19-2.64,18.55-4.09,37.1-8.18,55.65-12.27,3.39-.75,7.58-2.47,7.46-5.94-5.49,1.62-11.51-1.31-15.19-5.69-3.19-3.8-6.74-10.2-7.06-15.22Z"/>
  </g>
  <g>
    <path class="cls-1" d="M313.52,374.14c-.72,.14-1.91,1.26-2.29,1.62-4.42,4.31-8.37,8.3-14.12,10.84-6.63,2.92-3.23,8.28-.28,12.8,2.11,3.23,3.03,7.23,5.75,10.07,2.02,2.11,4.95,3.12,7.81,3.37,2.69,.24,5.68,0,8.26-.79,.35-.11,.71-.24,.97-.5,.45-.46,.45-1.2,.27-1.82-1.16-3.91-3.5-7.07-5.36-10.62-4.29-8.18-1.72-15.48-.47-23.99,.12-.83-.13-1.06-.53-.99Z"/>
    <path class="cls-1" d="M336.54,365.53c2.2,10.47,7.25,20.32,14.45,28.22,7.93,8.69,17.02,16.33,27.65,21.5,10.96,5.33,22.97,7.94,34.77,10.68,13.97,3.24,28.41,2.36,42.54,.82,5.86-.64,11.67-1.53,17.5-2.39,4.1-.61,7.68-.65,11.43-2.8,3.08-1.77,5.71-4.22,8.08-6.86,.78-.87,1.54-1.77,2.27-2.68,.27-.33,.54-.69,.59-1.12,.15-1.28-3.02-4.16-3.83-5.08-1.54-1.74-3.23-3.45-5.28-4.58-3.38-1.85-7.79-1.71-11.4-2.98-4.07-1.43-8.02-3.34-11.46-5.98-6.34-4.86-12.51-9.93-18.51-15.2-2.94-2.58-5.84-5.21-8.69-7.88-.5-.47-7.94-7.22-8.1-6.83-.97,2.48,.51,5.66,1.44,7.96,2.09,5.14,4.04,10.33,5.84,15.58,2.16,6.32,2.98,12.04,3.13,18.67,.05,2.18,.55,3.27-1.59,4.28-2.75,1.3-6.37,.71-9.26,.29-9.18-1.33-18.44-2.63-27.48-4.76-14.4-3.29-28.2-9.18-40.54-17.29-7.57-4.98-16.41-10.52-21.45-18.25-.71-1.09-1.36-2.23-2.09-3.32Z"/>
    <path class="cls-1" d="M391.21,354.99c-.33,.14-.61,.26-.77,.34-2.8,1.41-5.98,2.34-8.66,3.93-7.13,4.22-5.85,12.58,.34,17.12,3.98,2.92,12.66,8.73,17.81,5.74,1.75-1.02,2.61-3.04,3.49-4.86,2.99-6.16,7.65-11.5,13.34-15.31,5.85-3.92,12.72-6.49,18.21-10.9-4.37,.27-10.47,2.54-14.55,4.09-4.31,1.63-8.54,3.46-12.76,5.33-4.06,1.8-12.69,6.15-15.17-.02-.85-2.12,.24-3.96,.31-6.01-.59,.05-1.03,.32-1.58,.56Z"/>
    <path class="cls-1" d="M445.52,347.75c3.5-.44,9.68-1.53,13.2-1.53h9.56c.69,0,3.35,3.19,3.79,3.77,1.44,1.91,2.28,4.26,2.68,6.6,.32,1.88,.4,3.8,.35,5.71-.07,2.6-.36,5.24,.2,7.77,1.07,4.86,7.62,8.31,12.29,7.59,1.29-.2,2.58-.4,3.87-.6,5.17-.79,9.37-3.07,10.39-8.7,1.21-6.68-5.65-13.12-9.76-17.53-1.75-1.88-3.52-3.77-5.64-5.21-2.77-1.87-5.79-2.06-8.92-2.81-3.81-.91-7.86-1.31-11.76-.79-6.22,.83-14.56,3.22-20.26,5.73Z"/>
  </g>
  <path class="cls-1" d="M339.41,300.09c.31,.19,.66,.31,1.02,.39,1.68,.35,3.53-.36,4.55-1.74,1.02-1.38,1.15-3.36,.31-4.86-.39-.7-6.38-4.77-6.46-4.58,1.95-4.7,5.64-10.19,3.72-15.4-.16-.42-.34-.83-.56-1.22-1.52-2.68-5.54-6.19-8.05-8.03-2.21-1.38-5.52-4.51-8.11-4.74-.94-.08-1.87,.14-2.78,.36-.56,.14-1.12,.29-1.63,.57-1.06,.6-1.75,1.8-1.72,3.01-.58-.16-1.15-.32-1.73-.48,2.06-7.01,4.54-13.91,6.84-20.84,.49-1.48-13.35-6.36-15.25-7.16-2.34-.98-6.49-3.78-9.07-3.78-.78,0-1.5-.06-2.16,.23,1.04,3.86,3.03,7.67,4.53,11.39,1.32,3.25-.35,7.64-1.02,11.01-.89,4.43-1.78,8.87-2.67,13.3-.97,4.86-1.96,9.71-2.94,14.57-.59,2.93-.67,11.13-3.28,12.86-.75,.5-1.66,.86-2.11,1.63-.23,.4-.31,.87-.52,1.28-1.08,2.1-6.45,3.2-8.53,4.01-4.16,1.63-8.32,3.26-12.49,4.89-4.16,1.63-8.32,3.26-12.48,4.9-2.52,.99-14.18,3.31-12.16,6.92,.46,.83,1.24,1.42,1.96,2.04,1.41,1.2,2.69,2.55,3.8,4.03,.36,.48,.71,.98,1.18,1.35,.52,.4,1.15,.63,1.77,.85,1.01,.36,2.1,.71,3.12,.39,.38-.12,.73-.34,1.08-.56,5.76-3.6,11.52-7.19,17.29-10.79,2.28-1.42,4.56-2.85,6.85-4.27,.62-.39,2.26-1.88,3.02-1.88,2.04,0,1.55,.22,1.31,2.01-.24,1.79-1.07,3.68-1.58,5.42-.82,2.81-.49,3.87,2.1,4.23,2.05,.29,4.07,.48,6.09,.95,4.56,1.06,9.91,3.07,12.06,7.59-9.31,13.25-19.67,26.39-32.8,35.97-.98,.71-1.98,1.41-2.51,2.55-1.14,2.44,.35,2.63,2,1.85,1.94-.91,3.77-2.21,5.68-3.2,4.02-2.08,8.15-3.94,11.99-6.36,6.08-3.83,11.77-8.28,16.93-13.27,2.66-2.57,4.88-5.82,7.62-8.23,3.71-3.26,8,2.79,9.75,5.56,1.79,2.83,4.81,17.02,9.14,16.74,.4-.03,.77-.23,1.11-.43,2.24-1.32,4.34-2.88,6.25-4.64,3.89-3.57,1.54-7.22-.04-11.35-1.64-4.3-3.28-8.61-4.89-12.93-.45-1.2-.94-2.45-1.94-3.24-.64-.5-1.43-.77-2.2-1.02-1.61-.53-3.22-1.06-4.84-1.59-1.73-.57-2.9-.44-2.96-2.04-.08-2.35,3.43-7.06,4.49-9.23,2.98-6.14,5.97-12.29,8.94-18.43,.68,.84,1.35,1.68,2.03,2.53,.23,.28,.46,.57,.75,.79,.06,.04,.11,.08,.17,.12Zm-28.59,16.23l-1.47,2.1h-6.1l-5.47-4.72-2.7-1.7,5.43-10.62,5.68-2.67,13.88-7.03,1.05,2.62-10.3,22.03Zm10.94-28.06l-4.84,2.1-10.72,3.93v-2.62l10.3-25.17h2.31l2.1,1.31,4.14,7.6-3.3,12.85Z"/>
  <g>
    <path class="cls-1" d="M484.49,221.07c.62-.99,1.76-1.4,3.74-.69,5.39,1.92,10.34,5.08,14.32,9.04,4.41,4.4,5.28,10.61,4.18,16.41-.04,.22-.09,.45-.26,.59-.16,.14-.38,.17-.59,.2-4.64,.54-8.66,1.08-11.06-2.93-2.83-4.71-10.37-8.46-12.08-13.67-.33-1-.44-2.06-.51-3.11-.1-1.64,1.65-4.85,2.27-5.84Z"/>
    <path class="cls-1" d="M520.65,209.55c.37-.99,1.12-1.88,2.01-2.52,3.07-2.19,7.3-3.51,9.74-.06,3.86,5.45,7.72,10.89,11.59,16.34,.64,.9,1.3,1.88,1.32,2.98,.02,1.57-1.29,2.85-2.68,3.6-5.01,2.71-9.89,5.39-14.47,8.85-2.42,1.83-4.18,3.9-6.39,5.97-1.21,1.13-3.16,4.29-4.48,5.59,3.37-.55,6.82-.87,10.54-1.71,1.8-.41,3.58-.94,5.27-1.69,1.32-.58,3.36-2.47,4.81-2.37,.72,.05,1.38,.39,2.02,.71,2.27,1.17,4.57,2.35,6.54,3.97,.58,.48,1.15,1.01,1.5,1.68s.45,1.51,.1,2.18c-.89,1.7-4.29,2.01-5.9,2.44-2.77,.73-5.54,1.47-8.33,2.14-5.56,1.34-11.21,2.49-16.92,2.95-2.62,.21-4.68,.44-5.93,2.89,1.94,.93,3.93,1.89,5.36,3.49,1.56,1.75,1.67,3.77,1.6,5.91,.01-.37,7.92-3.12,8.68-3.1,.84,.02,1.64,.29,2.42,.59,2.55,.99,4.94,2.36,7.09,4.05,.82,.65,1.62,1.36,2.17,2.25,3.62,5.89-6.86,5.53-9.79,5.67-3.9,.19-10.4,.48-9.66,6,.22,1.62,.46,3.24,.72,4.86,.16,.98,.34,2,.95,2.78,1.03,1.32,2.94,1.54,4.6,1.36,4.89-.52,11.58,.24,15.69-3.03,.93-.74,1.69-1.71,2.71-2.32,4.88-2.9,13.85,9.61,14.79,13.56,.19,.8,.03,1.74-.6,2.27-2.22,1.86-7.89,.98-10.51,.78-4.13-.31-8.24-.99-12.4-.96-3.74,.03-7.45,.65-11.14,1.26-1.91,.32-3.8,.52-4.28,2.75-.74,3.5,.27,7.13,.38,10.64,.12,3.85,.09,7.71-.09,11.56-.47,9.86-1.78,20.11-4.21,29.69-.22,.85-.46,1.72-1.01,2.4-.82,1.01-2.29,1.15-3.46,.73-1.06-.38-1.8-1.36-2.18-2.42-1.5-4.22-1.36-9.74-1.77-14.17-.47-5.17-.78-10.36-.94-15.54-.14-4.65-.12-9.3-.05-13.95,.05-3.04,1.04-6.89-.12-9.79,.24,.62-17.46,5.75-19.09,6.14-6.26,1.5-13.1,3.49-19.57,2.37-.52-.09-1.04-.2-1.5-.46-1.65-.93-2.57-3.91-2.7-5.69-.48-6.25,7.64-6.4,11.92-6.87,8.12-.89,16.19-2.28,24.14-4.16,3.48-.82,5.99-1.7,6.96-5.35,.75-2.83,.63-6.15-.02-8.99-3.65,1.1-7.2,2.32-10.99,2.85-.9,.13-1.84,.22-2.71-.06-.84-.27-1.53-.85-2.17-1.45-2.19-2.05-4.8-4.81-5.77-7.69,2.84-1.59,6.27-1.99,9.46-2.28,2.73-.25,6.32,.19,8.85-1.02,4.61-2.21-1.48-9.58-2.14-12.5-.13-.58-.17-1.18-.34-1.72-3.16,1.9-6.94,1.31-10.44,1.85-2.38,.37-14.34-3.9-10.64-8.11,1.26-1.44,10.9-1.57,13.09-1.91,4.71-.73,9.43-1.45,14.14-2.18,1.42-.22,2.89-.46,4.06-1.25,1.38-.94,2.12-2.5,2.81-3.98,3.09-6.75,6.18-13.49,9.28-20.24,1.69-3.68,3.35-8.04,1.26-11.52-1.09-1.82-3.13-3.21-3.4-5.29-.08-.6,0-1.2,.22-1.77Z"/>
  </g>
</svg>