<?xml version="1.0" encoding="UTF-8"?>
<svg id="_图层_1" data-name="图层 1" xmlns="http://www.w3.org/2000/svg" viewBox="0 0 841.89 595.28">
  <defs>
    <style>
      .cls-1 {
        fill: #040000;
      }
    </style>
  </defs>
  <path class="cls-1" d="M351.67,157.3l9.77,.39,5.33-5.45v-8.17l-6.22-5.84-11.54-3.89-7.7-3.5-5.03,10.51-22.79,14.4-33.34,14.3h-5.62l-.89,4.54,6.31,5.97,8.49,5.71,11.06-3.5,9.03-5.92,4.56,1.48,23.38-3.11,7.99-5.84,7.22-12.07Z"/>
  <polygon class="cls-1" points="285.15 298.21 290.77 288.54 297.36 288.54 309.65 300.98 307.45 305.58 277.57 332.81 249.04 349.84 249.04 344.32 283.97 305.12 285.15 298.21"/>
  <polygon class="cls-1" points="344.06 274.55 401.11 311.97 406.38 311.97 406.38 304.83 393.21 274.55 381.8 272.6 345.81 271.45 344.06 274.55"/>
  <polygon class="cls-1" points="298.33 336.13 291.75 334.9 291.75 331.29 279.46 340.78 279.46 350.13 281.73 360.15 339.59 321.27 348.58 316.26 298.33 336.13"/>
  <polygon class="cls-1" points="313.67 182.73 320.2 182.73 324.64 191.94 319.15 207 316.43 209.2 286.44 236.71 269.46 248.12 259.99 251.92 293.49 210.16 313.67 182.73"/>
  <polygon class="cls-1" points="336.16 182.6 349.19 182.6 366.36 177.15 373.3 179.1 386.78 195.25 386.78 202.45 383.23 206.73 360.73 212.57 329.23 239.94 339.19 217.32 348.58 201.64 352.94 198.04 349.78 193.89 340.9 190.77 335.9 196.02 331.02 195.01 332.3 184.79 336.16 182.6"/>
  <polygon class="cls-1" points="314.02 166.15 321.83 158.54 333.57 162.35 335.9 169.72 337.94 201.64 337.94 239.94 337.4 282.9 334.16 320.26 324.02 326.88 318.85 281.86 320.2 259.95 317.63 254.99 318.01 213.35 314.02 202.4 314.02 166.15"/>
  <polygon class="cls-1" points="238.67 287.94 246.56 302.48 257.22 300.92 282.09 283.42 329.23 264.45 337.79 264.15 347.86 258.7 363.99 255.78 383.39 257.6 405.73 274.46 413.72 274.46 416.68 265.9 414.31 251.92 392.41 233.2 388.56 234.76 386.78 240.4 330.26 249.38 317.62 256.43 242.81 285.2 238.67 287.94"/>
  <polygon class="cls-1" points="351 310.89 358.46 308.04 376.89 322.46 375.57 328.34 342.95 342.58 332.64 351.09 328.17 351.09 328.17 348.99 351 310.89"/>
  <polygon class="cls-1" points="249.93 387.11 248.18 389.96 260.46 399.22 273.63 399.22 326.2 379.94 358.56 375.37 399.49 374.9 413.97 376.13 420.94 369.98 427.79 365.04 426.09 361.81 397.9 357.3 384.75 360.99 370.18 362.92 358.1 365.67 338.83 368.42 335.9 370.71 328.17 370.71 277.26 381.38 249.93 387.11"/>
  <polygon class="cls-1" points="328.17 348.99 328.17 352.2 337.39 357.18 341.34 365.37 336.72 371.89 339.73 380.39 340.46 389.59 334.47 428.76 319.62 434.81 290.43 436.95 286.92 438.37 310.62 447.63 325.96 457.25 334.47 458.91 353.63 441.93 360.21 412.02 358.51 371.89 357.44 364.11 353.19 353.98 346.61 351.13 331.96 348.99 328.17 348.99"/>
  <polygon class="cls-1" points="393.77 171.38 397.01 168.45 403.32 172.94 419.61 171.03 426.8 179.01 434.02 208.54 435.75 213.41 440.64 237.47 446.85 248.28 443.93 254.69 433.54 259.95 424.61 254.74 421.08 246.89 423.78 242.19 419.63 224.92 405.05 192.64 401.39 189.3 393.77 171.38"/>
  <polygon class="cls-1" points="416.68 174.4 420.94 170.54 461.43 155.65 534.2 139.1 542.05 134.47 554.28 137.64 568.94 151.44 588.17 163.11 588.73 171.63 579.04 180.89 571.13 204.22 557.82 230.19 558.41 239.16 555.86 246.1 543.8 251.93 535.36 236.02 532.33 221.34 543.23 162.09 543.01 158.73 534.46 151.24 495.53 158.54 480.21 163.63 459.45 168.45 450.2 173.21 435.77 178.35 419.28 178.66 415.19 177.15 416.68 174.4"/>
  <polygon class="cls-1" points="452.81 165.38 452.53 178.49 456.24 185.99 454.49 193.55 438.99 207.52 439.73 213.88 452.66 214.63 469.73 204.95 474.82 194.1 472.26 179.76 460.98 162.49 455.02 162.49 452.81 165.38"/>
  <polygon class="cls-1" points="495.36 155.34 490.68 162.87 490.12 180.15 494.34 192.34 498.38 199.82 500.45 206.77 531.02 201.5 531.9 195.36 526.77 185.93 510.99 181 507.38 175.18 508.42 161.58 502.15 159.34 501.96 156.02 497.91 153.98 495.36 155.34"/>
  <polygon class="cls-1" points="434.77 236.19 445.88 238.78 492.67 227.51 535.7 220.53 546.6 225.47 552.38 238.78 546.09 247.77 532.58 244.64 484.89 246.8 451.28 253.23 438.17 255.09 432.72 247.43 433.74 238.78 434.77 236.19"/>
  <polygon class="cls-1" points="463.03 249.45 473 264.39 468.02 275.17 463.03 280.08 473 285.21 486.68 279.43 498.63 271.49 502.9 262.9 500.3 255.09 480 243.97 467.9 243.97 463.03 249.45"/>
  <polygon class="cls-1" points="415.33 278.21 431.71 277.84 437.76 287.17 443.81 298 440.25 309.58 429.22 326.39 416.76 333.11 411.06 328.26 407.5 318.55 409.28 306.59 415.33 304.35 422.45 292.78 415.33 278.21"/>
  <polygon class="cls-1" points="434.6 287.43 441.06 287.43 451.64 283.81 456.98 283.81 465.91 278.91 504.37 270.32 536.97 263.48 552.74 258.41 568.4 275.6 575.52 293.52 571.96 300.25 545.57 297.64 512.51 299.13 539.96 272.96 523.34 277.72 494.72 283.44 460.9 295.02 440.21 298.66 431.53 294.57 432.72 288.54 434.6 287.43"/>
  <polygon class="cls-1" points="473.54 309.57 469.73 302.05 471.3 299.69 487.88 303.46 493.26 307.45 479.02 352.96 461.44 385.77 484.8 387.89 502.9 394.92 547.06 405.29 560.06 427.87 558.04 437.98 552.44 442.21 541.01 437.98 530.02 428.34 493.71 402.7 473.54 399.64 441.04 404.11 436.55 390 440.14 384.12 446.64 384.36 454.26 374.95 464.31 343.97 471.63 322.04 473.54 309.57"/>
  <path class="cls-1" d="M498.31,336.11l-2.35-3.02,5.6-2.35h8.07l15.02,8.47,1.7,8.48-4.83,11.04-9.86,5.41-10.31,24.22,.28,9.37-12.79,9.06-7.52,6.27s-17.64,29.59-63.58,31.04l-4.03-2.59s29.48-3.45,59.06-40.89l13.28-14.75,15.58-25.67-.5-12.99,3.81-6.35-6.61-4.74Z"/>
  <polygon class="cls-1" points="383.39 363.25 385.91 360.19 398.85 357.18 429.67 356.93 472.04 350.06 481.52 351.56 519.87 343.77 555.7 341.97 565.12 338.45 569.6 338.92 590.89 352.09 594.26 367.37 587.75 375.13 574.53 371.61 561.53 359.38 506.09 358.4 499.11 360.19 495.06 362.13 467.79 363 454.03 370.1 407.78 378.2 387.62 369.64 383.39 363.25"/>
</svg>