<?xml version="1.0" encoding="UTF-8"?>
<svg id="_图层_1" data-name="图层 1" xmlns="http://www.w3.org/2000/svg" viewBox="0 0 841.89 595.28">
  <polygon points="281.16 156.51 283.01 151.52 330.66 132.69 337.86 128.25 365.76 139.7 371.77 151.33 364.27 168.85 364.45 194.25 360.55 219.73 349.36 257.72 338.41 259.57 331.28 245.19 335.08 229.95 334.91 218.55 337.03 206.15 338.09 181.63 339.19 154.65 331.19 146.7 304.01 161.67 281.16 156.51"/>
  <polygon points="260.16 176.1 263.67 175.18 280.85 187.36 287.54 212.17 288.46 217.73 286.14 244.67 284.8 260.01 283.06 338.47 280.68 455.15 267.14 458.85 256.98 444.68 262.47 350.77 266.56 236.26 267.37 213.78 265.7 192.17 260.16 176.1"/>
  <polygon points="279.86 210.29 272.41 206.2 268.45 215.14 277.14 221.9 290.7 215.71 296.29 216.01 314.8 213.75 319.12 213.27 324.54 211.01 330.07 208.5 342.5 206.2 344.92 206.84 346.97 203.9 344.67 196.63 338.28 192.42 335.3 194.67 283.65 210.03 279.86 210.29"/>
  <polygon points="281.63 257.99 290.18 264.77 291.75 264.51 334.39 242.74 340.18 243.59 344.35 249.04 341.88 254.49 330.06 266.86 328.96 272.08 297.98 287.04 272.09 273.55 271.07 263.42 279.07 257.04 281.63 257.99"/>
  <polygon points="478.72 146.19 481.5 141.4 483.77 140.14 497.69 141.4 505.39 148.37 504.44 155.92 504.85 157.15 506.47 160.92 506.83 162.93 506.72 168.39 506.12 175.35 505.7 178.26 504.79 180.94 504.53 182.26 504.7 184.05 505.22 185.66 503.43 192.24 504.71 197.55 504.52 199.63 506.2 202.85 506.74 204.92 506.11 207.05 502.67 222.5 501.26 229.9 501.13 237.95 494.41 241.53 487.5 236.23 487.03 160.8 484.77 152.24 478.72 146.19"/>
  <path d="M586.34,268.9l-1.82-77.48,3.69-5.54-.4-46.4h0l.4-.71-3.44-4.28-29.66-12.4h-6.55l-34.23,9.59-6.24,3.42-16.29,9.46-2.7,4.09,4.09,7.32h8.22l4.93-4.35,5.19-3.07,8.22-1.26,8.29-.74,4.97-1.48,11.51-5,7.2-1.41,8.59-.28,.92,1s2.22,.35,.27,11.49l-.2,69.14-3.09,12.75,3.18,6.69,4.5,161.53h-10.24l-21.43-15.02-4.03-4.03-2.02,2.69,14.36,27.88,4.11,11.76,10.88,13.25,10.62,18.66,10.75,2.35,10.75-8.4-3.31-181.2Z"/>
  <polygon points="499.33 185.45 495.84 183.49 492.77 185.45 500.01 199.41 507.46 194.46 513.34 191.1 515.45 189.95 517.82 188.56 522.09 187.56 527.15 185.19 532.56 183.1 537.85 180.93 542.09 179.65 543.47 178.75 546.35 175.34 546.69 174.13 544.97 171.03 541.56 169.56 537.71 168.26 534.71 168.33 528.54 170.6 519.73 173.96 513.56 176.95 508.53 180.33 503.07 185.62 499.33 185.45"/>
  <polygon points="499.41 220.95 496.09 219.24 492.77 223.07 497.68 238.15 526.38 231.89 536.05 232.01 566.05 229.71 570.26 223.07 565.92 214.6 563.69 215.64 558.27 216.14 547.56 213.25 537.01 213.25 532.62 214.46 526.56 216.79 519.51 218.5 514.91 219.27 508.5 219.75 501.63 221.36 499.41 220.95"/>
  <polygon points="380.46 158.06 380.05 159.24 382.79 165.63 386.28 168.73 388.63 169.38 391.85 168.86 411.28 163.72 428.47 159.14 441.94 156.89 454.68 155.99 461.81 156.53 464.67 155.63 466.91 152.32 466.91 150.23 461.6 144.24 458.16 141.98 451.26 138.17 448.84 138.18 446.12 140.24 441.03 142.25 420.48 148.19 411.45 151.94 397.03 155.83 386.23 157.28 381.67 157.6 380.46 158.06"/>
  <polygon points="374.49 186.26 374.49 189.04 377.69 194.62 392.04 193.91 402.98 190.84 413.31 187.3 449.39 180.06 459.83 182.81 465.74 183.83 467.15 182.12 468.05 179.17 467.02 175.6 463.84 171.87 457.47 167.75 450.8 166.94 442.01 169.54 428.47 172.01 405.61 178.74 389.94 182.99 374.49 186.26"/>
  <path d="M399.68,139.51l8.37,6.19,2.88,24.41,1.71,11.78,6.64,1.94,9.19-6.19v-40.61s-6.15-2.79-6.15-2.79c0,0-7.64-7.09-20.91,4.02l-1.72,1.24Z"/>
  <path d="M375.7,208.84v3.66l6.64,3.72,10.58,31.07h3.2l6.48-6.17-6.48-25.87-4.92-6.41s-8.53-3.35-15.5,0Z"/>
  <polygon points="385.91 210.15 381.66 210.15 393.57 216.11 396.12 212.95 398.83 212.65 447.26 200.3 442.74 223.26 444.98 232.96 456.38 235.85 459.81 232.34 456.12 227.77 457.1 224.1 470.63 207.32 466.45 198.47 452.43 190.84 449.47 190.84 395.87 206.1 389.15 210.15 385.91 210.15"/>
  <polygon points="398.51 234.48 394.26 233.47 394.26 238.74 398.51 246.16 402.52 244.25 432.29 237.33 460.55 237.33 459.81 232.34 442.74 223.26 401.9 234.25 398.51 234.48"/>
  <polygon points="307.71 291.06 306.17 292.26 305.67 294.41 310.58 301.36 316.25 307.35 323.11 306.32 339.19 294.57 345.8 294.06 396.12 277.98 432.38 271.61 444.49 270.23 458.12 266.41 486.18 265.26 490.34 263.68 495.45 261.88 505.57 259.57 517.4 257.15 541.32 257.15 544.31 249.92 520.63 237.21 512.65 238.45 476.46 252.99 465.07 256.05 432.33 261.78 389.15 268.17 383.9 268.91 330.98 283.44 307.71 291.06"/>
  <path d="M390.75,253.14l8.93,8.89,2.02,3.23,1.59,10.62s2.13,14.14,17.65,12.46l5.2,.2,1.47-2.03-8.97-20.1s-3.92-24.07-27.9-13.27Z"/>
  <path d="M441.56,241.2l15.92,4.18-1.44,7.1-9.44,14.96-7.56,9-4.79,3.96s-4.92,3.95-3.65,6.63l-7.53-5.99,8.45-13.84,4.55-9.97,.83-7.18,4.67-8.85Z"/>
  <path d="M314.26,297.64l3.54,11.07,9.57,6.48,1.66,3.57s.9,6.34-2,14.18l-.56,8.61,4.86,8.56s2.92,46.62-21.42,78.9l2.21,2.08,17.6-7.24,13.46-20.55,5.81-23.65,2.47-22.3,.29-11.31,.63-19.85v-4.05l1-6.64-.81-3.78-1.43-5.02-4.36-3.45-3.95-1.9-6.95-.75-1.29-10.31-11.23-1.77-9.11,3.74v5.37Z"/>
  <polygon points="287 344.78 286.17 351.17 289.91 353.49 295.25 362.71 298.26 361.44 323.71 348.47 335.36 347.17 350.42 344.78 354.55 342.31 368.91 337.47 368.61 326.73 343.28 328.79 324.27 333.61 320.12 334.4 317.76 333.54 314.66 333.88 310.52 336.83 308.38 339.08 301.59 340.72 294.48 343.73 287 344.78"/>
  <polygon points="492.77 250.6 500.81 246.16 510 251.43 502.34 256.79 497.27 256.79 492.46 265.37 508.46 265.74 512.4 266.87 519.13 274.6 516.89 296.11 520.74 326.73 519.81 368.66 519.49 380.88 519.49 397.83 512.76 410.29 503.79 415.77 496.62 409.6 490.83 390.85 494.07 380.13 496.18 321.13 493.73 277.69 489.11 269.45 487.61 268.84 490.06 251.07 492.77 250.6"/>
  <polygon points="472.8 307.13 471.98 316.34 474.57 318.31 518.66 305.01 522.98 304.31 537.08 302.9 552.88 304.76 558.81 302.79 561.01 298.08 561.39 291.44 558.02 287.04 553.91 286.32 539.38 283.14 536.04 283.87 522.98 290.29 514.2 286.32 505.66 287.04 497.27 294.81 491.87 300.88 475.93 306.61 472.8 307.13"/>
  <polygon points="393.21 304.3 393.21 377.3 397.15 378.57 405.06 372.45 404.56 370.86 403.65 364.02 405.15 351.09 405.14 341.15 405.15 321.89 403.65 300.72 396.13 300.72 393.21 304.3"/>
  <polygon points="394.72 306.19 392.47 302.06 390.75 298.4 390.75 296.33 392.34 295.74 395.62 295.84 401.5 296.45 403.38 295.83 434.68 283.14 438.26 282.18 442.48 283.14 447.36 286.32 457.82 296.43 459.47 298.79 459.9 303.52 459.67 367.26 459.28 373.89 456.49 383.66 453.74 388.05 450.19 388.38 447.64 388.01 444.56 384.48 447.36 382.71 446.32 380.65 440.27 383.09 442.52 365.38 444.49 363.78 442.34 361.44 442.47 347.37 438.97 299.59 435.51 292.93 427.62 296.02 411.11 302.35 405.98 305.79 403.65 308.53 397.32 307.35 394.72 306.19"/>
  <polygon points="402.26 315.51 407.17 321.86 408.63 319.84 412.11 317.67 419.59 314.36 422.09 312.86 426.16 314.13 429.68 317.36 430.85 320.12 428.95 320.76 402.26 329.81 399.18 328.28 400.38 316.7 402.26 315.51"/>
  <polygon points="400.38 340.87 407.18 344.68 412.08 343.29 416.89 340.87 419.2 338.36 420.91 338.13 426.92 339.83 427.62 343.11 426.81 346.76 425.04 347.99 420.48 348.21 402.6 351.43 399.18 350.06 399.18 342.57 400.38 340.87"/>
  <path d="M360.34,382.21l-1.74,5.49,2.4,9.71,2.47,2.67,54.78-28.52,2.25,.56s-61.9,62.67-69.31,65.07l-.5,3.34,44.15-30.48,10.31-8.99,20.75-23.65,19.41-19.19,1.19-7.83-2.02-2.55-5.12,4.15-2.68,1.48-2.14-.82-.8,.16-2.9,4.96s2.27,3.53-21.17,10.25l-9.64,4.5-9.29,1.89-22.89,8.11-5.08,.29-2.43-.61Z"/>
  <path d="M425.32,373.72l14.55,2.15,2.61,.75-2.51,13.97-2.27,18.86,.19,2.85,4.5,6.12,23.52,1.44,22.77-3.23,4.36-2.53,3.35-12.98,.88-12.75,19.42,23.64,6.29,8-2.25,4.08-25.69,7.06-26.4,2.66-24.15-.44-10.64-4.5-8.15-10.96-1.81-19.64-1.13-6.15s-.86-6.46,5.66-7.23l-.46-3.02-2.63-8.14Z"/>
</svg>