<?xml version="1.0" encoding="UTF-8"?>
<svg id="_图层_1" data-name="图层 1" xmlns="http://www.w3.org/2000/svg" viewBox="0 0 841.89 595.28">
  <defs>
    <style>
      .cls-1 {
        fill: #040000;
      }
    </style>
  </defs>
  <path class="cls-1" d="M325.01,143.03c10.89-.55,21.74-1.86,32.45-3.91,5.29-1.01,10.63-1.85,15.83-3.28,4.04-1.11,11.11-2.54,12.64-7.04,.24-.69,.34-1.46,.77-2.05,.74-1.02,2.16-1.2,3.42-1.22,10.99-.18,21.89,5.16,28.15,14.25,1.24,1.79,2.31,3.76,2.7,5.9,1.3,7.1-6.9,8.83-10.86,12.87-12.75,13-24.12,27.32-37.04,40.22-13.02,13-26.76,25.32-41.44,36.43-1.61,1.22-3.23,2.42-4.86,3.61-13.35,9.71-27.63,18.14-42.86,24.57-13.96,5.87-28.55,10.26-43.44,13.02,22.32-11.11,44.33-23.26,63.53-39.16,4.98-4.12,11.42-8.65,15.21-13.88-4.38-2.1-8.64-4.45-13-6.56-4.1-1.97-7.89-4.61-10.88-8.07-2.4-2.76-4.61-7.21-1.78-10.52,2.51-2.93,6.68-2.12,10.02-1.64,3.68,.53,7.27,1.44,10.98,1.89,3.46,.42,6.94,.82,10.31,1.76s6.04,2.6,9.12,3.9c1.24,.52,2.62,.81,3.95,.59,2.66-.44,4.78-2.81,6.76-4.48,2.27-1.91,4.49-3.88,6.67-5.91,4.37-4.08,8.54-8.38,12.47-12.89,5.52-6.32,10.58-13.05,15.06-20.15,.63-1,1.25-2.04,1.55-3.18,1.59-6.04-5.78-3.42-9.26-3.14-5.03,.42-14.66,2.41-19.71,2.32-9.93-.17-20.07-.65-29.18-4.76-2.5-1.13-5.31-3.24-4.72-5.92,.61-2.75,4.16-3.41,6.97-3.55,.16,0,.33-.02,.49-.02Z"/>
  <path class="cls-1" d="M457.97,131.51c.77-1.92,3.31-3.37,5.06-4.05,2.99-1.16,6.42,.31,9.06,1.66,4.79,2.44,9.38,5.27,13.72,8.45,2.22,1.63,4.86,3.6,6.24,6.03,2.76,4.83-2.34,4.79-5.91,5.26-3.18,.42-6.09,1.93-8.96,3.37-12.25,6.15-25.01,11.38-37.96,15.83-12.67,4.35-26.87,8.67-40.4,8.69-2.4,0-4.82-.06-7.21,.04,12.45-.5,24.42-7.23,34.65-13.76,6.33-4.05,12.4-8.5,18.16-13.33,2.94-2.47,6.16-4.58,8.94-7.25,1.36-1.3,2.77-2.72,3.67-4.39,1.18-2.17,.26-3.87,.8-6.1,.04-.15,.09-.3,.15-.45Z"/>
  <path class="cls-1" d="M449.4,154.16c-.49,3.8,4.55,7.91,7.1,10.15,24.93,21.92,49.83,43.88,74.72,65.83,1.16,2.33,5.48,4.83,7.46,6.57,2.64,2.33,5.28,4.66,7.92,6.99,5.44,4.79,10.87,9.59,16.31,14.38,10.56,9.31,21.16,18.58,31.67,27.95,.19,.17,.4,.35,.66,.35,.22,0,.41-.13,.58-.26,10.38-7.98,4.22-19.46-1.35-27.08-9.11-12.47-19.71-22.59-32.54-31.26-.3-.21-.61-.41-.91-.62-13.89-9.3-32.47-21.35-46.57-30.32l.15-.71s15.16-2.1,28.64-4.3c0,0,16.02-.59,7.75-10.91,0,0-12.52-14.64-25.37-17.92,0,0-3.53,.57-3.56,.58,.5-.08-.78,4.28-.85,4.44-1.09,2.45-3.04,4.11-5.08,5.84-4.5,3.81-9.69,6.83-15.24,8.84-1.83,.66-3.77,1.22-5.69,.92-1.87-.29-3.52-1.37-5.1-2.42-13.46-8.96-26.67-19.02-40.7-27.04Z"/>
  <path class="cls-1" d="M525.97,245.37s-4.66-4.58-4.66-4.58c-5.55-3.7-10.55-8.45-17.53-7.65-8.95,1.03-19.72,1.41-28.17,4.72l-5.83,1.13s-26.96,2.29-26.96,2.29c1.72-3.29,3.45-6.59,5.17-9.88,1.59-3.04,2.93-6.21,4.56-9.23,.53-.99,1.6-3.83,2.8-4.05,1.28-.23,3.19,1.85,4.91,1.66,.66-.07,1.28-.31,1.92-.47,1.9-.48,6.23-.38,8.06,.57,9.25,4.82,13.02-.72,13.03-.74,2.64-3.9,1.84-7.81-.34-11.95-2.16-4.1-8.92-6.08-12.86-8.18-.85-.45-1.71-.91-2.65-1.06-2.59-.43-4.12,2.58-5.8-.39-.92-1.63,0-4.61,.09-6.37,.02-.34,.04-.69-.02-1.03-.34-2-3.39-4.52-4.68-6.05-.95-1.14-1.91-2.77-3.09-3.69,0,0-6.37-4.96-6.37-4.96l-4.03-.22c-2.45,.96-12.5,3.06-10.58,7,.14,.3,.41,.51,.67,.71,.74,.57,1.52,1.12,2.13,1.83,1.93,2.23,1.43,6.65,1.16,9.35-.18,1.84-.52,3.67-.87,5.49-.22,1.15-.3,4.66-1.07,5.47l-1.84,1.92s-27.31,5.13-27.4,5.15c.13-.02-.97-9.7-1.04-10.38-.03-.27-.06-.56-.23-.78-.12-.16-.3-.26-.48-.36-2.88-1.63-5.75-3.27-8.62-4.91l-5.05-2.58s-4.09,.93-4.09,.93c-1.79,1.13-6.52,2.93-5.54,5.75,.13,.36,.38,.67,.62,.97,1.55,1.87,3.09,3.75,4.64,5.62,1.92,2.33,.68,7.02,.53,9.9l-3,2.15-23.31,4.22,3.88,8.29c1.62,2.06,4.03,6.84,6.81,6.96,.63,.03,1.26,.05,1.89,.08,.3,.01,.61,.02,.91-.06,.8-.23,1.25-1.07,1.93-1.55,.43-.31,.95-.46,1.46-.61,2.91-.84,5.81-1.71,8.73-2.53-.29,6.01,.75,12.11,1.7,18.03l-8.44,1.27-57.33,12.47-.08,1.53,10.21,14.02,5.18,.28,17.55-7.7s39.23-10.57,39.23-10.57c11.89-2.23,23.78-4.45,35.67-6.68,2.97-.56,5.95-1.11,8.92-1.67,4.75-.89,9.84-.23,14.68-.63,3.22-.26,6.44-.53,9.66-.79,9.59-.79,19.66-.98,29.27-.45,4.6,.25,9.1,1.53,13.35,3.26,3.38,1.38,8.8,5.86,12.28,6.04l4.32,.23,6.82-3.38,.26-4.83-3.01-8.3Zm-96.36-15.92l-2.16,7.96-2.35,6.08-2.38,1.31-19.42,1.54-.2-3.19,.55-3.14,.47-8.63,.24-4.4,23.38-5.37,2.3,.12-.42,7.71Z"/>
  <path class="cls-1" d="M361.98,262.41c-2.88,2.7-6.75,7.86-7.54,11.55-1.11,5.16-2.48,9.78-4.05,14.84-2.27,7.32-9.17,24.6-15.4,33.17-5.9,8.13-9.33,12.05-17.99,17.06,0,0,3.22,.23,3.22,.23,25.38-.3,37.77-28.04,49.55-52.06,2.8-5.71,5.7-11.64,5.69-18.26-.01-6.92-6.42-10.9-12.28-7.44-.44,.26-.83,.56-1.2,.9Z"/>
  <path class="cls-1" d="M443.11,240.2s-12.08,5.84,.12,11.85c0,0,12.66,7.62,19.79,18.9,0,0,19.1,23.24,27.61,27.61l2.53,1.84s7.82,4.37,10.59,1.15l6.67-3.22,19.79-5.52v-1.84l-2.76-2.76-30.37-12.43s-19.56-9.28-31.07-20.17c0,0-14.96-14.57-24.16-14.34l1.27-1.06Z"/>
  <path class="cls-1" d="M404.15,239.76c1.03-.78,2.66-1.35,3.29-1.56,3.31-1.13,6.93-1.18,10.32-.39,.05,.01,.11,.03,.16,.05l6.01,2.16c.48,.17,.81,.63,.81,1.15v28.9c0,.74,.66,1.31,1.39,1.21l8.3-1.98c.1-.01,.19-.04,.29-.08,1.44-.6,14.22-5.7,20.23-.82,0,0,13.9,7.47,7.05,14.01-.24,.22-.56,.34-.88,.32-6.09-.27-12.23-1.15-18.06-2.96,1.24-.43,2.51-.79,3.8-1.07-11.52,2.88-23.46,4.42-35.11,6.79-4.34,1.08-4.42,1.1-4.5,1.13-3.09,1.22-6.45,1.98-9.65,2.84-2.79,.75-5.6,1.47-8.41,2.14-3.29,.79-6.56,1.81-9.96,1.98-1.86,.09-3.56-.39-4.75-1.88s-1.79-3.23-2.24-4.97c-.27-1.05-.22-2.75,1.16-3.01l12.17-3.14,20.92-5.05c.59-.13,.99-.68,.94-1.27-.71-10.03-1.57-20.06-2.02-30.1-.02-.34-.03-.7-.2-1-.37-.65-1.29-.79-1.72-1.4-.53-.74-.1-1.43,.66-2Z"/>
  <path class="cls-1" d="M454.94,323.61c-1.51-3.89,4.55-8.25,6.79-10.66,2.24-2.41,4.63-4.68,6.86-7.11,.14-.15,.29-.32,.3-.53,.02-.19-.09-.37-.18-.54-1.6-2.72-2.99-6.51-5.65-8.19-1.68-1.06-3.63-1.84-5.4-2.73-3.04-1.54-6.08-3.08-9.13-4.62h-3.31c-14.29,3.64-28.57,7.29-42.86,10.93-4.51,1.15-9.02,2.32-13.53,3.51-2.6,.69-4.43,.24-6.97-.11-2.95-.4-6.06-.06-8.96,.49-1.28,.24-3.06,.4-4.22,1.04-1.82,1-1.21,2.66-1.21,4.78,2.15,.97,4.31,1.93,6.46,2.9,.36,.16,.73,.33,.98,.63,.17,.21,.27,.46,.37,.71,3.79,9.4,7.3,19.03,11.54,28.24,2.84,.57,5.67-.8,8.38-1.83,7.3-2.78,15.63-3.73,23.27-5.35,4.17-.89,9.22-2.87,13.51-2.87,6.14,0,12.28,0,18.42,0,1.64,0,7.49,.79,8.24-.5,.87-1.48-1.76-5.55-2.64-6.61-.3-.37-.64-.72-.87-1.14-.08-.15-.15-.3-.21-.45Zm-18.58-3.57l-39.4,9.69-5.52-16.49,1.89-1.73,2.21-1.33,46.14-10.27-5.32,20.13Z"/>
  <path class="cls-1" d="M513.64,345.14c-3.1-1.77-6.21-3.53-9.31-5.3-4.37-2.49-9.47-6.93-14.39-3.01-.84,.67-1.53,1.52-2.4,2.16-1.72,1.27-3.93,1.62-6.05,1.93-8.68,1.26-17.37,2.53-26.04,3.82l-17.93-6.76c-1.69,2.82-3.39,5.64-5.07,8.47-.21,.35-.42,.71-.75,.95-.4,.3-.92,.39-1.42,.46-3.96,.61-7.92,1.22-11.88,1.83-3.1,.48-8.11,2.34-11.18,1.71-2.06-.43-3.42-3.03-5.06-4.2-2.21-1.57-4.99-2.52-7.63-3.03-4.13-.8-10.55-1.73-14.1,1.12,2.03,3.17,4.7,6.11,7.4,8.76-16.22,2.38-32.24,6.13-47.84,11.18-2.71,.88-5.64,1.8-8.33,.86-1.06-.37-2.04-1.02-3.15-1.18s-2.48,.42-2.6,1.53c.54,3.04,1.09,6.11,2.42,8.9,1.33,2.78,3.54,5.28,6.47,6.25,3.64,1.21,7.58-.11,11.18-1.42,7.4-2.69,14.8-5.37,22.2-8.06,7.06-2.56,14.55-6.93,22.02-7.81,.67,1.98-.05,4.56,.09,6.67,.21,3.31,.75,6.75,2.88,9.39,.52,.65,7.7,6.02,7.94,4.96-.28,1.23-.55,2.45-.83,3.68-3.86,1.01-7.72,2.02-11.59,3.03-3.86-2.3-8.4-2.95-12.81-2.32-2.99,.43-6.84,2.97-9.72,2.61-2.69-.35-2.55-1.17-4.44,1.3-1.32,1.73-2.9,3.2-4.1,5.04-.17,.26-.34,.54-.33,.85,.02,.65,.77,.99,1.4,1.15,2.73,.68,7.4,.23,9.7,1.98,2.68,2.04,3.52,5.81,5.03,8.65,1.78,3.36,4.14,6.42,5.31,10.08,.68,2.12,.93,4.36,1.03,6.59,.3,7.36,9.76,10.28,14.83,5,1.31-1.36,2.23-3.04,3.04-4.74,.22-.46,.48-1.56,.93-1.81,1.43-.81,.82,.73,1.68,1.31,.22,.15,.52,.13,.79,.1,10.42-1.1,20.84-2.22,31.25-3.34,4.89-.52,9.85-1.43,14.75-1.74,5.07-.32,10.02,1.34,15.05,1.68,1.67,.11,2.92-3,3.69-4.16,.13-.2,.27-.42,.24-.65-.03-.25-.23-.44-.41-.6-.88-.78-1.76-1.56-2.64-2.34-.48-.43-.97-.87-1.22-1.47-.62-1.54,1.13-2.82,2.16-3.6,1.12-.85,2.1-1.9,3.05-2.93,5.66-6.13,10.45-13.1,14.88-20.14,.18-.29,.37-.6,.34-.94-.02-.28-.18-.53-.35-.76-1.77-2.52-4-5.4-6.84-6.76-3.65-1.75-7.29-3.5-10.94-5.26-2.12-1.02-6.08-3.86-8.43-3.74-1.03,.05-1.92,.7-2.78,1.28-9.05,6.09-19.67,4.94-29.4,8.66,9.27-3.55,16.79-12.23,23.07-19.58,2.34-2.73,4.62-7.11,7.99-8.24,6.87-2.28,15.29-1.56,22.41-1.41,5.72,.12,11.71,.34,17.09,2.51,6.33,2.56,11.57,8.87,18.93,7.67,1.1-.18,2.2-.51,3.11-1.15,1.75-1.22,2.62-3.44,2.57-5.57-.06-2.75-2.38-8.61-4.99-10.09Zm-77.78,41.02l13.04-1.06-5.08,21.59h-2.21l-41.37,9.65h-3.86l1.93-5.52-6.86-14.11,15.45-3.07h5.52l23.44-7.49Zm-21.28-8.75l-6.03-16.86,2.21-2.21,19.58-2.48c-1.1,1.88-6.03,16.92-15.76,21.55Z"/>
  <path class="cls-1" d="M264.37,285.53c2.27-1.37,4.89-2.06,7.42-2.87,4.78-1.52,9.4-3.55,13.98-5.63,1.74-.79,3.48-1.59,5.09-2.63,1.74-1.12,3.31-2.49,4.87-3.86,1.74-1.53,3.48-3.06,5.22-4.58,.51-.45,1.05-.91,1.71-1.01,.62-.09,1.23,.15,1.8,.4,5.14,2.2,10.06,4.95,14.66,8.19,.31,.22,.62,.45,.82,.77,.26,.44,.27,.99,.25,1.51-.2,6.43-3.11,11.3-5.44,17.04-.96,2.36-1.91,4.73-2.84,7.11-.74,1.89-3.5,5.92-2.99,8,.16,.65,.55,1.18,.91,1.71,.92,1.33,1.73,2.77,2.42,4.29-6.87,2.12-13.74,4.25-20.62,6.37l-5.98,3.25s-7.05,12.2-4.66,21.56c.05,.21,7.32-3.22,7.82-3.53,2.01-1.22,4.22-2.02,6.38-2.91,1.86-.77,3.47-2.56,5.55-2.61,1-.03,1.99,.23,2.95,.5,5.57,1.58,10.94,3.9,15.95,6.86-1.2-.72-2.41-1.41-3.61-2.12,4.3,2.57,10.69,6.37,11.16,12.16,.15,1.87-.45,3.72-1.05,5.49-5.65,16.82-11.3,33.65-16.96,50.47-.77,2.28-1.55,4.59-2.81,6.62-1.17,1.9-2.73,3.5-4.29,5.07-3.51,3.54-7.27,7.09-11.95,8.62-.45,.15-.93,.27-1.37,.12-.49-.17-.81-.64-1.1-1.08-4.34-6.7-7.88-14.16-13.77-19.46-1.58-1.43-3.51-3.13-3.19-5.27,3.3,.56,6.5,1.69,9.82,2.15,3.32,.45,6.93,.14,9.61-1.94,3.21-2.48,4.36-6.83,5.38-10.83,1.46-5.72,3.12-11.37,4.94-16.98,1.72-5.31,4.09-10.36,5.53-15.78,.33-1.23,.62-2.52,.43-3.78-.46-3.03-3.12-3.33-5.53-2.74-7.7,1.86-15.11,4.98-21.88,9.18-6.6,4.1-13.86,7.54-19.87,12.58-.19,.16-.41,.28-.66,.28-.54,0-1.08-1.06-1.35-1.46-.5-.75-.93-1.57-1.16-2.46-.9-3.49-1.58-5.58-2.12-9.18-.11-.72-.22-1.46-.13-2.19,.42-3.36,4.11-3.77,6.65-4.46,.34-.09,.68-.18,1-.33,1.7-.8,3.61-2.75,4.53-4.44,1.02-1.89,1.07-4.12,.93-6.23-.45-6.83-.16-14.5-1.3-21.16-.21-1.23-.77-2.44-1.69-3.03-.2-.13-.43-.25-.5-.51-.05-.18,0-.37,.04-.55,.75-2.98,.47-4.2,3.16-4.12,2.38,.07,4.77,.18,7.15,.27l22.41-10.74,5.08-5.54s1.49-13.16,1.49-13.16c-.06,.66-8.46,2.08-9.28,2.28-4.02,.97-8.12,1.55-12.18,2.33-3.42,.66-7.86,3.33-11.3,2.05-1.11-.41-1.98-1.29-2.81-2.14-1.29-1.32-2.58-2.64-3.86-3.97-.16-.16-.32-.34-.34-.57-.02-.32,.25-.57,.5-.75,.31-.23,.62-.44,.95-.63Z"/>
  <path class="cls-1" d="M492.14,312.19c.3-.22,.7-.26,1.08-.29,7.61-.53,14.8-1.15,22.2-3.09,7.36-1.93,14.53-4.5,21.7-7.03,1.14-.4,1.4-10.01,1.55-11.09,.59-4.45-.73-8.9-.17-13.36,.11-.85-12.73-7.36-14.13-8.69,10.72-9.67,28.48,2.75,39.37,5.1,.26,.06,.55,.13,.71,.32,.17,.2,.13,.47,.1,.71-1.29,8.27-3.4,16.36-5.08,24.57,2.22-.31,4.77-.38,6.89-.98,3.09-.87,5.17-4.16,8.64-4.1,1.56,.03,2.97,.76,4.28,1.47,3.23,1.75,6.47,3.49,9.7,5.24,4.99,2.69,8.56,7.36,7.48,12.55-12.05-3.15-24.91-4.07-37.41-2.66,.15,7.75-1.62,20.29-1.47,28.04,2.49-2.64,8.8-10.08,11.29-12.72,2.92-3.1,5.85-2.08,9.67-.55,4.19,1.68,6.46,3.35,10.65,5.03,.59,.24,1.21,.49,1.62,.92,.35,.37,.53,.83,.7,1.28,.51,1.35,1.03,2.71,1.54,4.06,.57,1.48-29,17.06-32.38,19.05l-2.01,2.51s2.92,50.26-.7,59.73c-2.13,5.56-5.59,9.68-8.97,14.75-1.48,.16-2.99,.32-4.45,.06-5.39-.97-11.5-10.07-14.28-13.72-5.02-6.61-9.68-13.41-12.76-20.87-2.7-6.56,7.1-1.36,9.99-.31,.98,.36,13.22,6.6,13.23,7.31,0,0-.4-38.99-.4-39,.03,2.35-15.84,8.82-17.82,9.89-10.91,5.93-25.39,13.48-38.5,14.63,6.75-6.74,16.53-12.34,24.32-18.3,9.56-7.32,21.85-14.63,29.84-23.26l.51-31.55s-3.85-2.51-3.85-2.51c-4.8,.94-11.51,3.52-16.32,4.44-5.88,1.12-11.64,1.74-17.6,.79-1.63-.26-3.27-.62-4.72-1.4-1.16-.62-5.91-5.52-4.03-6.97Z"/>
  <path class="cls-1" d="M346.93,410.94s11.24,7.71,6.37,45.78l-2.57,19.44h-1.92l5.72,9.84s6.64,4.92,12.26,0c0,0,9.49-3.46,7.62-16.5,0,0-1.3-33.96,.29-41.1,0,0,7.08-18.2-21.77-18.69l-5.99,1.23Z"/>
  <path class="cls-1" d="M309,430.1c-.57,.28-1.16,.97-1.83,2.06-1.79,2.9-3.79,5.66-5.97,8.27-2.31,2.77-7.39,5.17-10.38,7.23-3.34,2.3-6.33,3.25-8.45,7.05-3.29,5.92-2.69,14.21,1.97,19.5,4.09,4.65,11.33,4.22,16.54,1.01,5.61-3.45,10.7-9.09,13.42-15.1,4.35-9.59,3.39-18.89-2.03-27.64-1.3-2.1-2.26-2.89-3.28-2.39Z"/>
  <path class="cls-1" d="M428.27,441.05s11.61,10.99,13.75,24.1c0,0,5.91,12.9,16.12,11.07,0,0,12.9-2.98,5.72-20.28,0,0-6.38-23.51-32.44-17.73l-3.43,.11,.29,2.74Z"/>
  <path class="cls-1" d="M510.9,440.88l.34,2.28s10.31,.34,30.92,31.59c.96,1.46,4.62,2.41,6.16,2.67,4.53,.77,6.94-1.55,9.8-4.74,7.24-8.07-.71-20.36-6.1-26.49-7.68-8.74-16.4-12.16-28.47-8.81,0,0-12.65,3.51-12.65,3.51Z"/>
</svg>