<?xml version="1.0" encoding="UTF-8"?>
<svg id="_图层_1" data-name="图层 1" xmlns="http://www.w3.org/2000/svg" viewBox="0 0 841.89 595.28">
  <defs>
    <style>
      .cls-1 {
        fill: #040000;
      }
    </style>
  </defs>
  <path class="cls-1" d="M318.22,223.39c-5.77,5.15-11.52,10.22-17.7,14.85s-12.73,9.09-19.29,13.34c-13.23,8.58-27.18,16-41.29,23.02,14.71-2.73,29.12-7.06,42.91-12.86,15.04-6.36,29.14-14.67,42.34-24.27,1.61-1.17,3.21-2.36,4.8-3.56,14.5-10.97,28.07-23.14,40.94-35.99,12.76-12.74,23.99-26.88,36.59-39.73,3.92-3.99,12.01-5.71,10.73-12.72-.39-2.12-1.44-4.05-2.66-5.83-6.18-8.98-16.95-14.26-27.8-14.08-1.24,.02-2.65,.2-3.38,1.2-.43,.59-.52,1.34-.76,2.03-1.51,4.45-8.5,5.86-12.49,6.95-5.14,1.41-10.41,2.24-15.64,3.24-10.58,2.03-21.3,3.32-32.06,3.86-.16,0-.33,.02-.49,.02-2.78,.13-6.29,.79-6.89,3.51-.58,2.64,2.2,4.73,4.67,5.85,8.99,4.07,19.02,4.54,28.82,4.7,4.99,.09,14.5-1.89,19.47-2.3,3.44-.28,10.72-2.87,9.15,3.1-.3,1.13-.91,2.15-1.53,3.14-4.43,7.01-9.42,13.66-14.88,19.9-13.35,15.29-28.22,28.89-43.35,42.41-.07,.06-.14,.13-.22,.19Z"/>
  <path class="cls-1" d="M334.6,203c-1.38-.03-2.71-.46-4.06-.95-1.45-.53-2.86-1.15-4.3-1.72-1.77-.7-3.58-1.3-5.47-1.54-2.56-.33-5.09-.83-7.65-1.14-.1-.01-.2-.02-.31-.04-3.66-.44-7.21-1.35-10.84-1.87-3.3-.47-7.42-1.28-9.9,1.62-2.8,3.27-.61,7.66,1.76,10.4,2.96,3.41,6.7,6.02,10.75,7.97,10.6,5.1,12.01,10.23,23.49,13.19,2.08,.54,4.29,.94,6.37,.38,4.8-1.28,7.83-5.61,8.99-10.23,.81-3.23,.59-6.58-.16-9.8-.41-1.75-.99-3.46-1.51-5.18-.13-.41-.26-.84-.54-1.17-.52-.61-1.46-.67-2.2-.64-.92,.05-1.81,.33-2.7,.54-.58,.14-1.15,.19-1.7,.18Z"/>
  <path class="cls-1" d="M454.82,131.47c.76-1.9,3.27-3.33,5-4,2.95-1.15,6.34,.31,8.95,1.64,4.73,2.41,9.27,5.21,13.55,8.34,2.2,1.61,4.8,3.56,6.17,5.96,2.72,4.77-2.31,4.73-5.84,5.19-3.14,.41-6.02,1.91-8.85,3.33-12.1,6.08-24.7,11.24-37.5,15.64-12.52,4.3-26.55,8.56-39.91,8.59-2.37,0-4.76-.06-7.13,.04,12.3-.49,24.13-7.14,34.22-13.59,6.25-4,12.25-8.4,17.94-13.17,2.91-2.44,6.09-4.53,8.84-7.16,1.34-1.28,2.74-2.68,3.63-4.33,1.16-2.15,.26-3.82,.79-6.03,.04-.15,.08-.3,.14-.45Z"/>
  <path class="cls-1" d="M508.85,196.07c2.75-.46,5.49-.99,8.25-1.39,3.4-.5,6.81-.97,10.2-1.54,3.96-.66,7.92-1.35,11.88-2,0,0,15.83-.58,7.66-10.77,0,0-12.36-14.46-25.06-17.7,0,0-3.49,.56-3.52,.57,.49-.08-.77,4.22-.84,4.38-1.07,2.42-3,4.06-5.02,5.77-2.32,1.97-4.83,3.72-7.5,5.2-3.85,2.13-8.46,4.29-12.95,3.93-1.51-.12-3.01-.37-4.52-.31-1.45,.06-2.58,.59-3.17,1.97s-.61,2.95-.4,4.39c.35,2.43,2.76,3.99,4.77,5.07,5.5,2.94,12.19,3.67,18.3,2.75,.64-.1,1.28-.2,1.91-.31Z"/>
  <path class="cls-1" d="M510.74,195.8c7.47,4.83,14.94,9.66,22.4,14.49,0,.39,3.28,2.22,3.85,2.62,1.73,1.2,3.51,2.32,5.27,3.49,3.38,2.24,6.77,4.49,10.15,6.74,1.41,.93,2.81,1.88,4.21,2.81,.3,.2,.6,.4,.9,.61,12.67,8.57,23.15,18.56,32.14,30.88,5.5,7.53,11.59,18.86,1.33,26.75-.17,.13-.36,.26-.57,.26-.25,0-.46-.18-.65-.34-10.38-9.25-20.85-18.41-31.28-27.61-5.37-4.74-10.74-9.47-16.11-14.21-2.61-2.3-5.22-4.6-7.83-6.9-1.95-1.72-6.22-4.2-7.37-6.5-24.6-21.69-49.19-43.38-73.82-65.03-2.52-2.21-7.5-6.28-7.01-10.03,5.81,3.32,11.43,6.96,16.96,10.72,15.67,10.62,31.53,20.96,47.43,31.25Z"/>
  <path class="cls-1" d="M450.78,216.89c.33-.06,0,0,1.19-.22,1.26-.23,2.44,1.84,4.85,1.64,.65-.06,1.27-.3,1.9-.46,1.87-.47,6.16-.38,7.96,.57,9.14,4.77,12.86-.71,12.87-.73,2.61-3.85,1.82-7.72-.34-11.81-2.13-4.05-8.81-6.01-12.7-8.08-.83-.44-1.69-.89-2.62-1.05l-1.54,.68-3.06,2.04-29.25,6.21s-25.89,5.86-25.98,5.88l-18.21,4.17-4.88,1.26-23.03,4.17,3.83,8.19c1.6,2.03,3.98,6.76,6.73,6.87,.62,.03,1.25,.05,1.87,.08,.3,.01,.61,.02,.9-.06,.79-.22,1.23-1.05,1.91-1.53,.43-.3,.94-.45,1.45-.6,2.87-.83,5.74-1.69,8.62-2.5l18.32-5.75,14.89-3.66,8.05-2.01,14.32-1.33,11.98-1.96Z"/>
  <path class="cls-1" d="M385.16,249.76l-8.34,1.26-56.63,12.32-.08,1.51,10.08,13.85,5.12,.28,17.34-7.61s38.75-10.44,38.75-10.44c11.74-2.2,23.49-4.4,35.23-6.6,2.94-.55,5.88-1.1,8.81-1.65,4.7-.88,9.72-.23,14.5-.62,3.18-.26,6.36-.52,9.54-.78,9.47-.78,19.43-.97,28.92-.45,4.54,.25,8.99,1.51,13.18,3.22,3.33,1.36,8.69,5.78,12.13,5.97l4.26,.23,6.74-3.34,.26-4.77-2.98-8.2s-4.6-4.53-4.6-4.53c-5.49-3.65-10.43-8.35-17.32-7.56-8.85,1.02-19.48,1.39-27.82,4.66l-5.76,1.11s-26.63,2.26-26.63,2.26l-54.7,9.86Z"/>
  <path class="cls-1" d="M359.99,260.78c-2.85,2.67-6.67,7.77-7.45,11.41-1.09,5.1-2.45,9.66-4,14.66-2.24,7.23-9.06,24.3-15.21,32.77-5.83,8.03-9.21,11.91-17.77,16.85,0,0,3.18,.23,3.18,.23,25.08-.3,37.31-27.7,48.94-51.43,2.76-5.64,5.63-11.5,5.62-18.04-.01-6.84-6.35-10.77-12.13-7.35-.43,.25-.82,.55-1.19,.89Z"/>
  <path class="cls-1" d="M440.14,238.83s-11.93,5.77,.11,11.71c0,0,12.5,7.53,19.55,18.67,0,0,18.87,22.96,27.28,27.28l2.5,1.82s7.73,4.32,10.46,1.14l6.59-3.18,19.55-5.46v-1.82l-2.73-2.73-30.01-12.28s-19.32-9.17-30.69-19.93c0,0-14.78-14.4-23.87-14.17l1.25-1.05Z"/>
  <path class="cls-1" d="M423.51,269.53l8.2-1.96c.1-.01,.19-.04,.28-.08,1.42-.59,14.05-5.63,19.98-.81,0,0,13.73,7.37,6.96,13.84-.23,.22-.55,.33-.87,.32-6.01-.27-12.08-1.14-17.84-2.93,1.23-.42,2.48-.78,3.75-1.06-11.38,2.85-23.18,4.37-34.68,6.71-4.29,1.07-4.37,1.09-4.44,1.12-3.06,1.21-6.37,1.95-9.53,2.81-2.76,.74-5.53,1.45-8.31,2.12-3.25,.78-6.48,1.79-9.84,1.96-1.84,.09-3.52-.39-4.69-1.86s-1.77-3.19-2.21-4.91c-.27-1.04-.22-2.72,1.14-2.97l12.03-3.1,20.67-4.99,19.4-4.2Z"/>
  <path class="cls-1" d="M421.78,268.34v-28.55c0-.51-.32-.96-.8-1.13l-5.94-2.14c-.05-.02-.11-.03-.16-.05-3.35-.78-6.92-.73-10.19,.39-.62,.21-2.23,.77-3.25,1.54-.75,.57-1.18,1.24-.65,1.98,.43,.6,1.34,.74,1.7,1.38,.17,.29,.19,.65,.2,.98,.45,9.92,1.29,19.83,2,29.73,.09,1.22,.18,2.44,.28,3.66,.09,1.1-.04,1.89,.95,2.57,.65,.45,1.3,.9,1.96,1.35,1.06,.73,1.94,1.22,3.23,1.41,1.35,.2,2.73,.15,4.09,.09,.8-.03,1.6-.07,2.36-.31,3.32-1.05,4.96-4.39,4.86-7.7-.05-1.77-.64-3.47-.64-5.21Z"/>
  <path class="cls-1" d="M284.61,321.21s-6.97,12.05-4.61,21.29c.05,.21,7.23-3.18,7.73-3.49,1.99-1.2,4.17-1.99,6.3-2.87,1.84-.76,3.43-2.53,5.48-2.58,.99-.03,1.96,.22,2.92,.49,5.51,1.56,10.8,3.85,15.76,6.77-1.18-.71-2.38-1.39-3.57-2.09,4.25,2.54,10.56,6.29,11.03,12.01,.15,1.85-.45,3.67-1.04,5.43-5.58,16.62-11.16,33.24-16.75,49.85-.76,2.25-1.53,4.53-2.77,6.54-1.16,1.87-2.7,3.46-4.24,5.01-3.47,3.5-7.19,7.01-11.81,8.52-.44,.14-.92,.27-1.36,.12-.48-.17-.8-.63-1.08-1.06-4.28-6.62-7.79-13.98-13.6-19.22-1.57-1.41-3.46-3.09-3.15-5.21,3.26,.55,6.42,1.67,9.7,2.12,3.28,.45,6.84,.13,9.49-1.91,3.17-2.45,4.3-6.74,5.31-10.7,1.44-5.65,3.08-11.23,4.88-16.77,1.69-5.24,4.04-10.23,5.46-15.59,.32-1.22,.61-2.49,.42-3.74-.46-2.99-3.08-3.28-5.47-2.71-7.6,1.84-14.93,4.92-21.62,9.07-6.52,4.05-13.69,7.45-19.62,12.43-.19,.16-.41,.28-.65,.28-.54,0-1.07-1.04-1.33-1.44-.49-.74-.92-1.55-1.14-2.43-.89-3.44-1.56-5.51-2.1-9.07-.11-.71-.22-1.44-.13-2.16,.41-3.32,4.06-3.73,6.57-4.4,.34-.09,.68-.18,.99-.33,1.68-.79,3.57-2.71,4.48-4.39,1.01-1.86,1.06-4.07,.92-6.15-.44-6.75-.15-14.32-1.28-20.9-.21-1.22-.76-2.41-1.66-2.99-.2-.13-.43-.25-.5-.51-.05-.18,0-.37,.04-.55,.74-2.94,.46-4.15,3.12-4.07,2.35,.07,4.71,.18,7.06,.26l11.58,.39,2.47,3.57-2.24,3.14Z"/>
  <path class="cls-1" d="M304.97,313.53c1.97-.61,3.94-1.22,5.91-1.83-.9-1.52-1.79-3.04-2.69-4.56-.8-1.36-1.82-2.48-2.81-3.7-.91-1.12-1.93-1.92-2.84-3.04-.05-.06-.1-.12-.17-.15-.08-.03-.16,0-.23,.01-1.53,.39-2.97,.4-4.51,.76-1.03,.24-1.9,1.58-2.63,2.33l-22.14,10.61c-2.35-.09-4.71-.19-7.06-.26-2.66-.08-2.38,1.13-3.12,4.07-.05,.18-.09,.37-.04,.55,.07,.26,.3,.38,.5,.51,.9,.58,1.46,1.77,1.66,2.99l.8,3.62,5.04,1.85,6.51-4.34,7.52-1.87,5.9-3.21c6.79-2.1,7.47-2.19,14.26-4.29"/>
  <path class="cls-1" d="M307.47,305.78c.54-2.67,1.88-5.23,2.91-7.75,1.66-4.07,3.32-8.13,5.08-12.15,1.65-3.79,3.08-7.67,3.21-11.84,.02-.51,0-1.05-.25-1.49-.19-.32-.51-.55-.81-.76-4.54-3.2-9.4-5.91-14.48-8.09-.57-.24-1.17-.48-1.78-.39-.65,.1-1.19,.56-1.69,1-1.72,1.51-3.44,3.02-5.16,4.53-1.54,1.35-3.09,2.71-4.81,3.81-1.59,1.02-3.31,1.82-5.03,2.6-4.52,2.06-9.08,4.06-13.81,5.56-2.5,.8-5.09,1.48-7.33,2.84-.32,.19-.63,.4-.93,.62-.25,.18-.51,.43-.49,.74,.02,.23,.18,.41,.34,.57,1.27,1.31,2.55,2.61,3.82,3.92,.82,.84,1.68,1.71,2.77,2.12,3.4,1.26,7.78-1.37,11.16-2.02,4.01-.77,8.05-1.34,12.03-2.3,.81-.19,9.1-1.59,9.16-2.25,0,0-1.48,13-1.48,13-.12,1.07-2.28,3.84-2.97,4.82-.95,1.34-2.1,3.55-1.36,5.19,.2,.45,.85,.97,1.19,1.32,.7,.7,.81,.51,1.62,1.09,.57,.41,1.23,.58,1.91,.72,1.66,.36,4.47-.61,5.72-1.75,.86-.79,1.18-2,1.37-3.15,.03-.16,.06-.33,.09-.49Z"/>
  <path class="cls-1" d="M345.13,407.5s11.1,7.62,6.29,45.22l-2.54,19.21h-1.9l5.65,9.72s6.56,4.86,12.11,0c0,0,9.38-3.42,7.53-16.3,0,0-1.28-33.55,.28-40.6,0,0,6.99-17.98-21.5-18.46l-5.92,1.22Z"/>
  <path class="cls-1" d="M307.66,426.43c-.56,.28-1.14,.96-1.81,2.04-1.77,2.86-3.74,5.59-5.9,8.17-2.28,2.74-7.3,5.11-10.25,7.14-3.3,2.27-6.25,3.21-8.34,6.97-3.25,5.85-2.66,14.03,1.95,19.27,4.04,4.59,11.2,4.17,16.34,1,5.54-3.41,10.57-8.98,13.26-14.92,4.3-9.48,3.35-18.66-2-27.31-1.28-2.08-2.23-2.86-3.24-2.36Z"/>
  <path class="cls-1" d="M425.48,437.24s11.47,10.85,13.58,23.81c0,0,5.84,12.75,15.92,10.93,0,0,12.74-2.94,5.65-20.03,0,0-6.31-23.23-32.05-17.51l-3.39,.1,.29,2.7Z"/>
  <path class="cls-1" d="M507.11,437.08l.33,2.26s10.19,.33,30.54,31.2c.95,1.44,4.56,2.38,6.09,2.64,4.48,.76,6.86-1.53,9.68-4.68,7.15-7.98-.7-20.12-6.02-26.17-7.59-8.64-16.2-12.01-28.13-8.71,0,0-12.49,3.46-12.49,3.46Z"/>
  <path class="cls-1" d="M378.53,197.21c-.01,.08-.02,.15-.03,.23-.07,.82,.32,1.62,.76,2.31,1.74,2.7,4.7,4.8,5.25,7.96,.95,5.52-.86,12-1.01,17.6-.17,6.35,.12,12.72,.86,19.03,.68,5.78,2.49,9.65,6.59,13.78,.19,.19,.39,.39,.65,.46,.21,.06,.43,.04,.65,.01,2.11-.24,5.28,.03,7.06-1.19,.67-.46,1.14-1.16,1.52-1.88,.62-1.16,1.06-2.43,1.2-3.74,.26-2.39-.63-4.41-1.02-6.69-.35-2.05-.13-4.25,0-6.31,.79-12.6,2.77-25.64,.93-38.18-.05-.36-.11-.74-.34-1.03-.18-.23-.44-.37-.69-.51-4.34-2.4-8.67-4.81-13.02-7.21,0,0-4.04,.92-4.04,.92-1.66,1.01-4.94,2.25-5.32,4.44Z"/>
  <path class="cls-1" d="M430.96,179.53c-1.63,2.53,1.83,3.71,2.85,5.61,.93,1.74,.84,3.98,.67,5.88-.34,3.98-.19,9.19-2.01,12.82-.42,.84-.98,1.61-1.4,2.45-.57,1.14-.88,2.39-1.16,3.63-.81,3.53-1.44,7.1-1.9,10.69-.85,6.64-2.57,13.16-4.06,19.7-.61,2.69-1.48,6.32,.31,8.74,.58,.78,1.42,1.35,2.31,1.72,3.18,1.31,8.22,1.25,10.24-1.97,1.52-2.42,2.31-5.7,3.48-8.32,1.28-2.88,2.63-5.73,4.04-8.54,6.41-12.73,14.38-25.47,14.4-40.2,0-.96-.03-1.94-.27-2.87-1.17-4.56-7.13-8.58-10.54-11.51-1.46-1.25-3.06-2.57-4.98-2.71-1.28-.09-2.53,.35-3.73,.8-1.52,.56-3.05,1.12-4.57,1.68-1.24,.45-2.54,.95-3.38,1.98-.12,.14-.22,.28-.3,.41Z"/>
  <path class="cls-1" d="M365.63,307.58c-.84-.4,.4-3.95,.91-4.35,.74-.58,1.69-.81,2.61-1,4.05-.81,8.21-1.08,12.33-.79,1.65,.12,3.42,.38,4.6,1.55,1.65,1.64,2.01,4.78,2.78,6.92,.92,2.55,1.75,5.13,2.62,7.7,1.63,4.78,3.45,9.23,3.37,14.4,0,.58-.04,1.17-.21,1.73-.57,1.86-2.75,3.44-4.29,4.51s-3.63,1.55-5.79,1.51c-3.69-9-7.66-18.99-11.29-28.01-.09-.21-.18-.43-.33-.6-.16-.17-.38-.28-.6-.38-2.24-1.06-4.47-2.11-6.7-3.17Z"/>
  <path class="cls-1" d="M377.94,309.28c-.06-.28,.03-.58,.11-.86,.68-2.24,1.34-4.49,2.01-6.74,0-.02,4.22,.32,4.52,.31,4.19-.17,8.14-1.78,12.15-2.84,4.46-1.18,8.95-2.21,13.42-3.35,9.08-2.3,18.13-4.67,27.17-7.12,2.78-.75,5.32-1.62,8.24-.92,2.14,.51,4.12,1.54,6.07,2.56,1.93,1,3.85,2,5.78,3,1.12,.58,2.24,1.17,3.23,1.95,1.77,1.4,5.22,5.53,4.97,8-.26,2.63-5.41,6.51-7.25,8.29-1.8,1.74-3.68,3.44-5,5.56-1.35,2.17-2.02,4.65-2.55,7.12-.27,1.28-.18,1.78-1.19,2.45s-3.18,1.54-4.28,1.27c-1.34-.33-7.45-1.39-8.49-2.3-3.43-2.98-4.19-4.88-2.83-10.01,1.44-5.43,3.16-11.95,4.95-17.74-3.07,1.69-7.71,1.98-11.14,2.77-4.28,.99-8.56,1.98-12.84,2.97-6.94,1.6-14.79,2.41-21.35,5.22-4.2,1.8-7.74,3.92-12.25,4.92-1.02-1.28-2.04-2.56-3.06-3.84-.16-.2-.32-.4-.38-.65,0-.01,0-.02,0-.03Z"/>
  <path class="cls-1" d="M394.73,326.88c-1.56,.12-3.08,.02-4.63-.1-.23-.02-.47-.04-.69,.02-.35,.1-.62,.38-.85,.66-1.28,1.55-5.8,13.27-2.01,12.36,11.28-2.69,22.36-6.22,33.78-8.34,11.14-2.07,22.31-1.22,33.54-1.63,.3-.01,.62-.03,.88-.17,3.95-2.16-4.25-9.91-5.9-10.91-5.79-3.51-12.36-1.82-18.55-.3-6.02,1.48-12.04,2.95-18.05,4.43-5.7,1.4-11.66,3.54-17.52,3.99Z"/>
  <path class="cls-1" d="M377.78,342.66c-.06,.04,7.92,9.57,8.41,10.53,2.42,4.84,1.32,11.8,1.55,17.09,.16,3.87,2.66,7.33,5.74,9.48,2.64,1.84,4.9,4.34,7.93,5.44,3.38,1.23,5.91-1.3,8.87-2.9,.23-.13,.48-.26,.62-.48,.11-.17,.15-.38,.19-.58,.4-2.1,1.11-4.24,.69-6.31-.49-2.35-1.66-4.75-2.44-7.03-1.58-4.65-2.96-9.51-4.95-14.01-2.2-5.72-4.17-10.18-10.62-11.88-2.52-.66-5.13-.81-7.73-.96-2.43-.14-4.48,.11-6.81,.71,0,0-1.43,.89-1.44,.89Z"/>
  <path class="cls-1" d="M434.11,335.42s-.02,0-.03-.01c-2.87,7.44-5.74,14.9-9.15,22.11-3.71,7.85-8.06,13.23-15.29,17.98-2.39,1.57-5.56,3.75-6.41,6.65,2.15,.58,6.73-.34,8.93-1.05,6.82-2.21,13.23-5.69,18.8-10.2,3.01-2.44,5.77-5.17,8.36-8.05,3.5-3.91,6.48-8.14,9.51-12.42,0,0,3-8.33,3-8.33,0,0-11.51-4.77-11.51-4.77-2.07-.63-4.13-1.27-6.2-1.9Z"/>
  <path class="cls-1" d="M326.48,362.13c-.06,0-.12,0-.18,.01-4.69,.5,.05,9.09,1.2,11.1,1.34,2.35,3.4,4.41,5.99,5.21,3.36,1.04,6.95-.15,10.27-1.32,9.72-3.44,19.5-6.81,29.04-10.73,5.98-2.46,11.94-4.26,18.17-6.04,6.42-1.83,12.85-3.66,19.4-4.97,5.72-1.14,11.51-1.6,17.27-2.33,12.94-1.64,25.86-3.86,38.92-4.33,10.36-.37,20.76,.08,29.83,5.68,1.84,1.13,3.58,2.44,5.51,3.41,3.78,1.89,9.17,2.24,11.93-1.52,0,0,4.84-8.73-6.84-15.5l-12.94-7.34s-4.35-2.9-9.91,2.92c-1.74,1.82-5.73,2.22-7.99,2.36-5.15,.32-10.36,1.38-15.48,2.07-10.47,1.42-20.94,2.79-31.42,4.1-4.58,.58-9.11,1.24-13.66,2.08-2.34,.43-4.68,.89-7.02,1.34-2.13,.4-4.57,1.2-6.73,1.2-6.01,.97-12.04,1.78-18.1,2.43s-11.76,1.08-17.57,2.83c-6.42,1.94-12.98,3.32-19.44,5.11-5.77,1.59-11.62,4.12-17.71,2.65-.84-.2-1.69-.48-2.55-.44Z"/>
  <path class="cls-1" d="M355.32,396.25s-.04-.05-.06-.08c1.49-2.42,3.21-6.43,6.24-7.2,.79-.2,1.63-.01,2.45,.04,2.68,.18,5.21-1.13,7.8-1.86,4.27-1.2,12.16-1.01,15.29,2.68,.93,1.1,1.56,2.42,2.18,3.73,1.99,4.21,4.27,8.45,6.13,12.72,.91,2.08,.19,4.59-.58,6.55-.6,1.54,1.59,7.85,1.3,9.49-.28,1.58-1.18,3-1.91,4.39s-1.84,2.63-3.17,3.52c-3.83,2.55-10.08,2.01-12.4-2.39-1.19-2.27-1.15-4.94-1.51-7.41-.09-.58-.19-1.16-.33-1.72-.52-2.02-1.95-4.08-2.89-5.94-2.08-4.13-4.21-8.24-6.37-12.32-.21-.4-.43-.81-.74-1.15-1.31-1.43-3.91-1.17-5.68-1.3-1.79-.13-4.56-.12-5.74-1.74Z"/>
  <path class="cls-1" d="M381.7,388.92c-1.03-.3-4.49-1.41-5.31-.85-3.47,2.33,3.04,7,4.89,7.57,1.66-1.53,4.17-1.06,6.16-1.74,4.5-1.51,9.06-1.99,13.71-2.84,2.76-.51,5.69-.43,8.5-.99,2.43-.48,4.76-1.58,7.1-2.21,9.92-2.66,18.75-5.77,29.09-5.88-.78,.02-1.63,6.84-1.78,7.56-.86,4.06-1.63,7.41-2.57,11.45-.96,4.11-.38,11.6,3.94,13.67,2.12,1.01,4.29,1.9,6.51,2.67,.69,.24,1.43,.47,2.15,.3,.63-.15,1.16-.58,1.6-1.06,2.81-2.99,3.57-7.21,6.48-10.18,3.69-3.75,6.81-7.92,9.88-12.18,1.67-2.32,3.35-4.64,5.02-6.96,2.84-3.93,.83-6.89-2.67-9.56-1.37-1.05-2.93-1.82-4.47-2.58-2.88-1.42-5.75-2.85-8.63-4.27-2.27-1.12-5.08-3.23-7.65-3.46-1.92-.17-3.57,1.23-5.18,2.29-3.66,2.41-8.07,3.34-12.37,4.23-6.67,1.37-13.13,2.93-19.68,4.69,0,0-17.96,6.39-17.96,6.39-4.78,1.35-9.56,2.7-14.35,4.04-.31,.09-.63,.18-.95,.19-.49,.02-.96-.13-1.43-.26-.02,0-.04-.01-.07-.02Z"/>
  <path class="cls-1" d="M388.63,413.11c-1.14,.28-2.27,.59-3.4,.93-.27,.08-.55,.17-.75,.36-.74,.68-.84,3.4-1.04,4.36-.05,.26-.1,.53-.04,.79,.42,1.61,3.37,3.48,4.53,4.59,.21,.2,.44,.42,.74,.47,.27,.05,1.59,.12,1.85,.01,1.79-.73,4.01-2.6,6.35-1.75,.66,.24,.43,1.01,1.08,1.26,.47,.19,1.88,0,2.38-.05,11.21-1.28,22.42-2.56,33.63-3.84,8.36-.95,16.89,.49,25.19,.59,.21,0,.42,0,.61-.08,.23-.11,.37-.32,.51-.53,.86-1.31,1.71-2.61,2.57-3.92-5.64-5.28-10.74-13.48-18.3-16.17-2.11-.75-3.2,2.79-4.97,3.49-.85,.33-1.93,.4-2.82,.58-3.08,.63-6.16,1.27-9.25,1.9-4.63,.95-9.25,2.07-13.91,2.85-8.35,1.42-16.73,2.14-24.94,4.17Z"/>
  <path class="cls-1" d="M488.22,310.08c-.32,.86,2.79,4.23,3.39,4.72,2.03,1.63,4.85,2.29,7.39,2.55,15.82,1.63,30.23-6.55,45.64-8.26,0,0,15.34-1.87,15.46-1.89,8.75-1.07,18.67,.33,27.2,2.26,.84,.19,1.69,.39,2.55,.3,3.71-.4,1.29-5.03,0-6.74-2.93-3.93-8.46-6.86-12.6-9.33-2.37-1.42-5.14-2.5-7.84-1.96-1.45,.29-2.77,1.03-4.11,1.68-9.51,4.59-20.05,3-30.12,5.07-6.36,1.31-12.25,4.12-18.47,5.92-4.92,1.43-10.09,2.15-15.11,3.17l-10.76,1.04-2.2,.36s-.41,1.1-.42,1.12Z"/>
  <path class="cls-1" d="M520.74,266.93l13.94,8.58c.71,.44,.1,7.39,.12,8.31,.04,3.45,.06,6.9,.06,10.35,0,1.11-.5,3.36-.5,4.47,0,5.66-1.26,9.29-1.26,14.95,0,8.26,1.76,17.42,1.76,25.69,0,10.57,.45,21.14,.92,31.7,.24,5.28,.48,10.57,.68,15.85,.16,4.28,1.57,11.1,.13,15.01-5.16-1.96-10.06-5.2-15.04-7.63-3.15-1.53-7.53-3.83-7.62,.93-.02,1.17,1.79,3.53,2.32,4.57,1.22,2.39,2.66,4.68,4.15,6.94,3.3,5,6.84,9.85,10.59,14.53,1.78,2.21,3.63,4.42,5.98,6.02,3.2,2.18,7.03,3.39,9.5-.2,2.83-4.1,5.7-8.27,7.3-12.99,3.08-9.12,1.79-19.81,2.04-29.29,.27-10.51-.43-21.16-.95-31.65-.3-5.91-.66-11.82-1.09-17.73-.39-5.41,.59-10.24,.91-15.64l1.11-18.83c.58-9.77,2.71-19.03,4.51-28.61-6.43-1.57-12.42-4.58-18.75-6.53-7.19-2.21-14.29-2.66-20.82,1.21Z"/>
  <polygon class="cls-1" points="565.63 323.77 568.76 321.89 572.22 321.89 587.3 329.1 589.52 334.37 565.63 348.75 535.22 365.71 504.28 381.15 488.1 386.76 482.82 386.76 494.85 377.3 518.09 359.68 553.32 333.38 563.28 325.98 565.63 323.77"/>
</svg>