<?xml version="1.0" encoding="UTF-8"?>
<svg id="_图层_1" data-name="图层 1" xmlns="http://www.w3.org/2000/svg" viewBox="0 0 841.89 595.28">
  <defs>
    <style>
      .cls-1 {
        fill: #040000;
      }

      .cls-2 {
        fill: #231815;
      }
    </style>
  </defs>
  <polygon class="cls-2" points="403.57 314.49 401.51 318.83 409.73 326.12 426.92 321.79 428.47 323.84 428.47 341.48 400.23 356.68 398.69 372.64 402.8 372.64 427.44 350.75 428.47 384.95 428.47 387.69 413.58 382.44 413.58 384.72 421.79 394.53 426.43 402.53 430.08 401.59 441.99 388.14 443.35 383.13 443.26 342.46 449.77 333.19 450.41 330.28 444.44 333.96 442.33 333.96 442.02 319.29 449.82 318.6 454.34 319.37 458.4 314.49 454.45 308.14 450.6 307.2 442.04 307.2 442.04 299.93 445.12 297.62 443.48 291.89 441.56 289.58 431.16 285.56 428.55 293.26 429.04 296.25 428.55 309.68 427.6 310.62 423.27 310.7 421.25 312.84 406.62 314.89 403.57 314.49"/>
  <g>
    <path class="cls-2" d="M472.79,284.74l-2,2.32,5.08,8.16,5.75,2.07,25.52-4.26,1.34,.85s-3.74,28.15-24.45,33.63l-1.47,3.9-.4,3.53,1.87,4.39h7.22s15.63-10.24,30.87-33.14l3.34-9.14-3.61-9.02-6.28-9.02h-5.75l-8.55,5.97-15.37,.37-9.89,.37-3.21-.97Z"/>
    <polygon class="cls-2" points="477.33 302.29 485.49 299.49 491.37 302.29 494.71 308.38 494.71 312.04 488.56 313.87 474.39 326.17 463.97 334.58 448.47 340.43 454.08 335.07 464.37 324.22 473.86 313.87 471.59 306.31 477.33 302.29"/>
  </g>
  <path class="cls-2" d="M450.74,345.09l1.97,6.82-.98,11.58,7.03,19.25,9.62,18.28,1.87,1.1,4.28-1.1,2.14-3.66,23.39-.73,7.35-.97,1.34-4.26s14.03-12.67,14.43-34.61c0,0-6.01-15.48-18.44-12.31l-1.47,2.07-.4,1.22s-10.16,5.24-27.79,5l-2.67,1.34-.4,4.02,5.88,4.39,26.59-4.51,.13,1.95-1.6,14.38-5.75,10.48-1.34,1.34-3.88-.85-13.76,5.12-3.34-.61-2.14-2.8,.27-3.53-6.01-24.49,.13-4.02-3.88-3.66-3.74-3.53-4.94-.73-2.54-2.19-1.34,.24Z"/>
  <path class="cls-2" d="M391.81,374.81l3.88-5.34,1.73-9.21-1.51-8.46,5.26-52.5-.95-2.95-20.49-14.16h-7.12l-29.33,14.35-2.8,1.57,4.53,3.15,2.8,14.94-1.29,16.52-2.37,25.76-20.05,7.08v2.75l6.06,4.52,16.58-7.67,3.02,6.69-6.26,8.08-9.92,13.18,19.81-14.35,2.63-2.1,4.31-3.43,6.04-7.08,16.39,26.35,8.84,3.93,6.04-3.34,1.08-10.03-2.37-5.11-4.53-3.15Zm-11-71.12v37.3c0,1.62-2.79,2.9-2.88,4.72-.02,.42,.07,.83,.16,1.24,.08,.34,.15,.69,.23,1.03h0s0,0,0,0c.15,.68,.3,1.36,.46,2.04,.05,.24,.09,.47,.13,.71,.04,.18,.08,.37,.12,.58,.01,.06,.02,.11,.02,.17,.77,4.57,.2,8.4-.84,13.09-1.94,0-3.87,.02-5.81,.02-.47,0-.96,0-1.36-.22-.28-.15-.49-.39-.69-.62-.79-.91-1.59-1.82-2.38-2.73,3.43-2.81,6.86-5.62,10.29-8.43,.42-.34,.8-.65,.79-1.12-.04-.25-.09-.5-.14-.75-.3-1.38-.42-1.6-.59-2.76,0,0,0,0,0,0-1.8-2.11-3.77-2.54-6.46-3.55-2.63-.99-3.33-1.54-5.02,.61-.67,.86-1.39,1.69-2.22,2.42-1.46,1.28-3.2,2.22-4.89,3.22-1.18,.7-2.44,1.42-3.63,2.06-.31-1.23-.82-13.59-.08-13.72,3.04-.5,6.48-1.56,9.55-1.56,.58-.09,1.16-.19,1.71-.36,2.29-.72,3.84-2.67,5.95-3.76-.15-1.18-.34-2.44-1.24-3.29-.31-.29-.69-.52-1.06-.74-1.31-.77-2.61-1.55-3.92-2.32-.37-.22-.75-.44-1.18-.55-.4-.1-.82-.08-1.23-.07-1.83,.06-3.77,.13-5.48,.79-.39,.15-3.1,1.46-3.1,1.85v-8.46c5.37-1.49,10.88-2.5,15.8-5.08,.16-.08,.32-.17,.41-.31,.13-.2,.09-.45,.04-.68-.31-1.51-.62-3.02-.93-4.53-.06-.28-.12-.57-.29-.8-.59-.8-3.54-.89-4.53-1.02-1.59-.21-3.21-.3-4.81-.09-1.88,.25-3.79,.64-5.68,.92,0-1.8,0-3.6,0-5.4,0-.82-.23-2.04,.16-2.78,.03-.06,.06-.11,.1-.16,.79-1.06,3.41-1.75,4.65-2.25,2.71-1.1,5.43-2.19,8.14-3.29,1.37-.55,5.65-3.14,7.04-2.63,.4,.14,.69,.45,1,.72,.66,.57,1.43,1.03,2.1,1.59,2.63,2.21,1.61,6.08,1.61,8.96Z"/>
  <path class="cls-1" d="M266.52,267.39c2.59-2.7,5.19-5.39,7.78-8.09,.41-.43,.85-.87,1.42-1.02,.43-.12,.88-.06,1.32,0,4.28,.58,8.55,1.17,12.83,1.75,1.01,.14,2.03,.28,2.98,.64,1.19,.45,2.22,1.24,3.23,2.01,2.82,2.16,5.64,4.31,8.46,6.47,.55,.42,1.11,.85,1.51,1.42,.37,.52,.59,1.14,.78,1.76,1.5,5,.85,10.6-1.76,15.13-7.51-3.07-15.02-6.14-22.54-9.21-3.68-1.5-7.36-3-11.04-4.51-3.36-1.38-3.63-3.17-4.96-6.35Z"/>
  <path class="cls-1" d="M265.39,319.38c6.06-4.59,12.12-9.18,18.19-13.78,.61-.46,1.27-.95,2.03-1.04,.63-.07,1.26,.13,1.86,.33,5.65,1.87,17.67,4.71,23.32,6.58,1.3,.43,2.64,.88,3.68,1.77,.75,.64,1.31,1.47,1.85,2.29,1.91,2.87,3.83,5.75,5.74,8.62-1.91,0-7.83,7.66-9.34,9.14-3.41,3.34-2.79,7.47-3.2,12.16-.07,.8-.14,1.62,.15,2.37,.25,.66,.76,1.19,1.26,1.7,2.06,2.12,4.13,4.23,6.19,6.35,.67,.69,1.36,1.4,1.67,2.31,.24,.69,.24,1.44,.24,2.17,0,6.82-.02,13.64-.02,20.47,15.59,4.74,23.45,11.73,39.03,16.48l31.11,4.77s43.28,9.62,93.59,3.01l62.49-9.13,21.34-5.84,7.5,9.31-91.08,37.78h-13.72l-60.06-6.27-48.93-12.3-41.55-11.84s-28.24-13.51-28.24-13.51c-4.53,2.36-8.78,1.97-13.3,4.34-2.65,1.38-2.9,1.15-5.36,2.82-3.77,2.56-.73,3.84-3.16,7.69-.45,.71-.91,1.44-1.58,1.94-.68,.5-1.51,.73-2.33,.94-1.2,.32-2.41,.64-3.61,.95-.57,.15-1.16,.3-1.73,.16-.5-.12-.93-.46-1.33-.79-3.96-3.21-7.91-6.41-11.87-9.62,.66-2.57,1.32-5.14,1.99-7.71,.16-.63,.34-1.29,.74-1.8,.39-.5,.97-.81,1.53-1.12,1.57,0,4.67-2.53,6.09-3.29,1.84-1,3.68-2,5.52-3,2.84-1.55,5.57-1.38,8.41-2.93l14.95-5.58s11.94,3.05,11.94,3.05c-.26-.07-.03-6.47-.08-7.29-.19-3.33-.91-6.51-2.03-9.65-2.29-6.42-5.88-12.29-8.21-18.7-.94-2.59-1.67-5.41-.98-8.07,.57-2.19,2.03-4.04,2.85-6.15,2.95-7.68-5.66-6.29-10.38-6.29-2.08,0-4.24,.17-6.32,0-3-.25-4.54-1.76-6.85-3.81Z"/>
  <g>
    <polygon class="cls-1" points="338.82 181.21 331.92 178.78 340.91 174.89 361.31 181.21 364.61 176.84 379.79 181.21 393.69 187.29 391.9 190.69 384.7 194.33 368.2 207.94 358.01 209.16 366.7 188.5 357.71 188.02 336.42 207.46 304.03 224.95 325.02 201.62 339.12 183.64 338.82 181.21"/>
    <polygon class="cls-1" points="326.22 208.43 331.62 214.5 331.62 233.06 334.62 258.49 334.62 272.58 332.82 282.24 343.01 292.27 347.51 288.38 347.51 275.26 347.51 261.89 346.01 253.14 346.01 233.06 344.21 217.66 349.98 214.44 393.01 207.88 399.61 207.88 409.8 207.88 411.91 201.62 398.41 197.49 383.8 202.11 374.5 205.03 346.91 209.64 339.71 208.43 333.42 204.3 326.22 208.43"/>
    <path class="cls-1" d="M352.18,225.83l14.39,2.42,1.95,2.85s.54,13.45,.54,13.45c-7.74,2.17-15.8,3.97-23.33,6.63,3.68,1.59,7.5,2.91,11.26,4.34,.9,.34,1.84,.69,2.81,.63,.68-.05,1.32-.3,1.95-.55,2.26-.89,4.52-1.77,6.79-2.66-1,.39,0,15.76,0,17.73l-13.28,4.11-9.76-1.9c.84,.16,2.98,8.78,3.25,9.58,.17,.51,.35,1.04,.69,1.46,.46,.57,1.17,.87,1.85,1.15,2.65,1.1,11.04,6.27,13.43,4.37,5.68-4.5,10.65-9.83,16.44-14.2,8.78-6.64,18.75-10.44,26.78-18.37-.53,.52-7.07-1.41-8.13-1.63l-15.65,5.61-.42-11.61,22.29-6.43-2.73-3.48-9.76-2.53h-9.14l1.33-12.98c5.99-.74,11.98-1.48,17.97-2.22,.53-6.06-3.27-5.63-8.47-7.33-3.17-1.04-6.33-2.07-9.5-3.11l-6.25,3.65-27.36,7.1,.07,3.91Z"/>
  </g>
  <path class="cls-1" d="M471.04,272.4v-39.09l-5.65-28.74s20.36-2.56,20.43-2.57c4.34-.55,26.69,3.52,27.23-4.15,.06-.86-.34-1.67-.72-2.43-1.45-2.87-3.09-8.66-5.97-9.93-.51-.22-6.93,.16-6.93,0,4.45-2.88,8.9-5.76,13.35-8.64,2.31-1.5,4.88-3.82,7.45-4.82,4.52-1.76,10.79-.54,15.7-.41,.79,.02,1.6,.04,2.34,.32,1.2,.45,2.06,1.5,2.9,2.47,4.57,5.25,10.45,9.36,16.96,11.85,.7,.27,1.41,.52,2.15,.56,6.11,.38,9.33-8.48,10.58-12.96,.33-1.18,.66-2.4,.49-3.62-.15-1.06-.67-2.02-1.18-2.96-3.14-5.76-6.28-11.53-9.42-17.29-.76-1.39-1.54-2.82-2.74-3.86-1.01-.88-2.25-1.43-3.48-1.97-6.44-2.83-12.9-5.6-19.38-8.32s-7.68-2.36-12.9,2.03c-5.57,4.68-11.16,9.35-16.73,14.03l-17.85,27.33,3.08,5.69h-12.31l-17.84,6.76-4.25-9.09,10.55-16.39,2.82-11.86s11.56-8.39,11.6-8.43c2.69-1.96,15.61,.64,18.89,.78,1.02,.04,2.08,.08,3.03-.27,.69-.26,1.28-.7,1.87-1.14,4.06-3.06,9.97-6.2,12.98-10.18-5.82-1.4-13.24-.28-19.35-.28l-55.58,4.55-3.69-3.98c-1.24-1.33-.44-8.73-.52-10.48-.02-.41-.04-.84-.21-1.22-.23-.53-.72-.91-1.18-1.26-5.32-4.03-10.62-8.07-15.94-12.09l-11.74,.13s-6.3,4.42-6.37,4.47c-1.14,.8-2.36,6.34-2.34,7.55,.01,.69,.15,1.38,.29,2.06,.23,1.14,3.18,15.42,3.05,15.45-11.26,2.23-22.53,4.46-33.79,6.7-8.17,1.62-16.41,3.01-24.56,4.69-10.77,2.22-20.67,7.27-30.72,11.54-5.52,2.34-10.3-1.83-15.3-4.41-3.61-1.86-7.22-3.72-10.83-5.58l-9.85,2.85v7.97c0,1.4,4.44,5.18,5.3,6.17,.32,.37,.64,.75,.78,1.22,.15,.53,.03,1.09-.09,1.63-.78,3.55-1.57,7.1-2.35,10.64-.24,1.08-.49,2.18-1.04,3.14-.44,.76-1.06,1.4-1.69,2.01-2.92,2.89-5.49,6.08-7.79,9.48-1.2,1.77-6.35,7.93-5.69,10.03,.19,.61,.69,1.06,1.17,1.49,2.83,2.5,5.65,5,8.48,7.5,3.62,3.2,17.76-13.5,20.23-16.2,1.31-1.44,2.63-2.89,3.72-4.51,3-4.48,4.01-9.96,4.95-15.27,.35-1.95,15.34-3.81,17.18-4.21,22.55-4.88,44.94-10.62,67.38-15.98,6.73-1.61,13.46-3.22,20.19-4.83l28.51,7.68-9.33,24.61-2.8,12.07-8.22,4.82-4.31,4.55,3.08,7.4,19.05-7.8,12.59,1.9,3.34,19.61,2.12,26.45-4.14,17.48-5.76-1.99-7.51,2.39,18.19,17.03,12.94-4.63,3.12-15.24Z"/>
  <polygon class="cls-1" points="415.12 232.47 416.84 243.04 420.89 255.08 434.53 260.74 437.48 257.05 434.78 251.89 433.3 242.06 431.83 239.6 423.47 237.51 417.82 232.47 415.12 232.47"/>
  <path class="cls-1" d="M489.86,224.48c.43,.86,9.86,16.71,9.86,16.71l2.57,5.36,12.86,6,7.71-4.5-1.07-9.53-8.78-10.39-17.35-6.43-5.78,2.79Z"/>
</svg>