<?xml version="1.0" encoding="UTF-8"?>
<svg id="_图层_1" data-name="图层 1" xmlns="http://www.w3.org/2000/svg" viewBox="0 0 841.89 595.28">
  <path d="M490.27,301.76l-2.13,2.46,5.41,8.69,6.12,2.21,27.17-4.54,1.42,.91s-3.98,29.97-26.03,35.8l-1.56,4.15-.43,3.76,1.99,4.67h7.68s16.64-10.9,32.86-35.28l3.56-9.73-3.84-9.6-6.69-9.6h-6.12l-9.1,6.36-16.36,.39-10.53,.39-3.41-1.04Z"/>
  <polygon points="495.11 320.44 503.79 317.45 510.05 320.44 513.6 326.92 513.6 330.82 507.06 332.76 491.98 345.86 480.88 354.81 464.38 361.04 470.36 355.33 481.31 343.79 491.41 332.76 488.99 324.72 495.11 320.44"/>
  <path d="M270.69,283.29c2.76-2.87,5.52-5.74,8.28-8.61,.44-.45,.9-.92,1.51-1.09,.45-.12,.93-.06,1.4,0,4.55,.62,9.1,1.24,13.66,1.87,1.07,.15,2.16,.3,3.17,.68,1.26,.48,2.36,1.32,3.43,2.14,3,2.3,6,4.59,9.01,6.89,.59,.45,1.18,.91,1.61,1.51,.4,.56,.63,1.21,.83,1.87,1.6,5.32,.9,11.29-1.87,16.1-8-3.27-16-6.53-23.99-9.8-3.92-1.6-7.84-3.2-11.75-4.8-3.58-1.47-3.86-3.38-5.28-6.76Z"/>
  <path d="M326.55,404.1c16.6,5.04,24.96,12.49,41.55,17.54l33.12,5.08s46.08,10.24,99.64,3.21l66.53-9.71,22.72-6.22,7.98,9.91-96.96,40.22h-14.61l-63.93-6.68-52.09-13.09-44.24-12.6s-30.06-14.38-30.06-14.38c-4.82,2.52-9.34,2.1-14.16,4.62-2.82,1.47-3.08,1.23-5.7,3-4.01,2.72-.78,4.09-3.36,8.18-.48,.76-.97,1.54-1.69,2.07-.72,.53-1.61,.77-2.48,1-1.28,.34-2.56,.68-3.85,1.02-.6,.16-1.24,.32-1.84,.17-.54-.13-.99-.49-1.42-.84-4.21-3.41-8.42-6.83-12.64-10.24,.71-2.73,1.41-5.47,2.12-8.2,.17-.67,.36-1.37,.79-1.91,.42-.53,1.03-.87,1.63-1.19,1.67,0,4.97-2.69,6.48-3.51,1.96-1.06,3.92-2.13,5.87-3.19,3.02-1.65,5.93-1.47,8.96-3.12l15.92-5.94s12.71,3.25,12.71,3.25l23,1.57Z"/>
  <path d="M325.78,431.7l-18.6-7.69-4.12-21.53c-.28-.07-.04-6.89-.09-7.77-.2-3.55-.97-6.93-2.16-10.27-2.44-6.83-6.26-13.08-8.74-19.9-1-2.76-1.77-5.76-1.04-8.6,.6-2.33,2.17-4.3,3.03-6.55,3.14-8.17-6.02-6.69-11.06-6.69-2.22,0-4.52,.18-6.73,0-3.2-.27-4.83-1.88-7.3-4.06,6.45-4.89,12.91-9.78,19.36-14.66,.65-.49,1.35-1.01,2.16-1.1,.67-.08,1.34,.14,1.98,.35,6.01,1.99,18.81,5.02,24.82,7.01,1.39,.46,2.81,.94,3.92,1.89,.8,.68,1.39,1.57,1.97,2.44,2.04,3.06,4.07,6.12,6.11,9.18-2.03,0-8.34,8.15-9.94,9.73-3.63,3.56-2.97,7.96-3.41,12.95-.07,.85-.15,1.73,.16,2.52,.27,.7,.81,1.26,1.34,1.8,2.2,2.25,4.39,4.51,6.59,6.76,.71,.73,1.45,1.49,1.78,2.46,.26,.74,.26,1.53,.26,2.31,0,7.26-.02,14.53-.03,21.79l10.23,22.51-10.51,5.13Z"/>
  <polygon points="371.59 191.71 375.1 187.06 391.26 191.71 406.07 198.18 404.15 201.8 396.49 205.68 378.93 220.17 368.08 221.46 377.34 199.47 367.76 198.96 371.59 191.71"/>
  <polygon points="368.09 198.79 345.42 219.48 310.94 238.11 333.29 213.27 348.3 194.13 347.98 191.54 340.63 188.95 350.21 184.82 379.02 193.71 368.09 198.79"/>
  <polygon points="353.39 230.35 355.31 246.73 355.31 268.12 356.9 277.43 356.9 291.66 356.9 305.63 352.11 309.77 341.26 299.09 343.18 288.81 343.18 273.81 339.98 246.73 339.98 226.98 334.24 220.52 341.9 216.12 348.6 220.52 354.8 224.86 353.39 230.35"/>
  <polygon points="353.39 230.35 359.53 226.92 405.34 219.93 412.36 219.93 423.22 219.93 425.46 213.27 411.09 208.87 395.53 213.79 385.64 216.89 356.27 221.81 348.6 220.52 341.9 216.12 334.24 220.52 339.98 226.98 348.42 232.77 353.39 230.35"/>
  <path d="M509.38,195.84l-3.28-6.06,19-29.09c5.94-4.98,11.88-9.95,17.81-14.93,5.56-4.67,6.78-5.08,13.73-2.16,6.9,2.9,13.78,5.85,20.63,8.86,1.3,.57,2.63,1.16,3.7,2.1,1.28,1.11,2.11,2.63,2.92,4.11,3.34,6.14,6.69,12.27,10.03,18.41,.54,1,1.1,2.02,1.26,3.15,.18,1.29-.17,2.59-.52,3.85-1.33,4.77-4.76,14.2-11.26,13.8-.79-.05-1.55-.32-2.29-.6-6.93-2.65-13.18-7.03-18.05-12.62-.9-1.03-1.81-2.15-3.09-2.63-.79-.3-1.65-.32-2.49-.34-5.22-.14-11.9-1.44-16.71,.43-2.74,1.07-5.47,3.54-7.94,5.14-4.74,3.07-9.48,6.13-14.21,9.2"/>
  <polygon points="428.87 246.11 430.7 257.36 435.02 270.18 449.54 276.2 452.68 272.28 449.8 266.78 448.23 256.32 446.66 253.7 437.77 251.48 431.75 246.11 428.87 246.11"/>
  <path d="M508.44,237.61c.46,.91,10.49,17.79,10.49,17.79l2.74,5.7,13.69,6.39,8.21-4.79-1.14-10.15-9.35-11.06-18.48-6.84-6.16,2.97Z"/>
  <polygon points="416.5 120.99 414.01 129.03 418.34 152.86 421.22 161.8 434.68 166.14 447.45 167.41 455.87 161.8 459.7 151.84 458.72 147 454.79 142.76 454.02 130.31 445.09 123.15 435.79 116.09 423.29 116.23 416.81 119.92 416.5 120.99"/>
  <polygon points="284.45 164.46 284.45 172.95 285.63 174.99 290.91 180.81 290.52 183.9 289.51 188.46 287.68 196.2 280.01 205.47 272.82 215.49 271 218.73 271.06 220.14 274.23 223.43 279.7 228.27 281.33 229.71 283.38 230.03 286.5 228.5 295.73 220.28 303.77 211.46 307.79 206.06 310.1 200.45 312.55 189.28 313.57 176.86 312.75 170.9 304.99 166.62 294.93 161.43 284.45 164.46"/>
  <polygon points="298.85 171.75 304.99 166.62 316.34 172.37 320.03 172.76 325.29 170.97 341.29 164.12 355.45 159.78 392.56 152.62 425.46 146.73 454.34 146.73 492.62 144.22 523.51 141.96 538.49 142.45 534.93 146.03 529.27 150.1 524.67 153.29 522.31 154.63 519.1 154.78 508.79 153.51 502.42 153.22 499.34 153.96 486.99 162.93 459.7 168.35 436.86 168.34 423.61 164.77 335.08 185.89 320.35 188.6 308.47 191.67 302.34 193.71 295.7 190.65 295.02 178.73 298.85 171.75"/>
  <path d="M450.84,158.59c-1.93,1.22-3.81,2.55-5.66,3.85-1.1,.77-7.07,6.23-8.32,5.9,0,0,17.1,4.61,17.1,4.61-4.69,12.59-9.43,24.89-12.74,37.91-.13,.49-.26,1.01-.58,1.4-.38,.48-.98,.73-1.54,.99-4.41,1.96-8.34,4.98-11.37,8.73,1.07,2.64,2.16,5.26,3.25,7.89l20.28-8.31s32.35-5.31,32.35-5.31c5.45-.68,10.9-1.35,16.35-2.05,9.56-1.23,19.68,1.82,28.99-1.23,1.19-.39,2.39-.92,3.23-1.86,2.09-2.37-.31-4.92-1.24-7.2-1.11-2.73-2.22-5.46-3.33-8.18-7.22,.54-14.47-.32-21.72-.34-10.53-.03-18.99,3.66-28.62,7.31l-4.53-9.67s11.23-17.45,11.23-17.45c1.11-4.17,2.22-8.35,3.33-12.52,.38-1.44,2.01-4.93,1.37-6.33-1.41-3.05-10.13-3.42-12.87-3.61-5.78-.4-11.72-.34-17.19,1.58-2.75,.97-5.32,2.36-7.78,3.92Z"/>
  <polygon points="448.72 217.97 452.68 204.94 468.13 204.94 481.4 212.93 488.41 247 488.41 288.61 485.09 304.84 471.31 309.77 451.95 291.64 459.94 289.1 466.08 291.21 470.49 272.61 467.81 242.02 464.66 223.58 448.72 220.26 448.72 217.97"/>
  <path d="M361.8,234.87l.08,4.17,20.63,3.18,13.87-5.19,20.32-2.49s2.12-6.52-9.02-7.81l-10.11-3.31-6.65,3.89-29.13,7.56Z"/>
  <path d="M355.01,266.02l14.22,5.27,.75,.02c6.01-2.08,12.01-4.18,18.03-6.25,1.65-.57,3.32-.62,5.04-.85,1.41-.2,2.78-.58,4.15-.96,7.34-2.04,14.67-4.09,22.01-6.13-1.35-1.74-2.57-3.66-4.84-4.23-1.93-.49-3.85-.98-5.78-1.48-.98-.25-1.96-.5-2.97-.61-1.24-.14-2.5-.06-3.75-.06-2.29,0-4.57-.24-6.86-.12-4.05,.21-7.46,2.4-11.05,4.09-.53,.25-1.07,.51-1.51,.9-.49,.44-.82,1.03-1.22,1.55-1.61,2.14-3.93,2.52-6.33,3.21-2.05,.58-4.1,1.17-6.16,1.75l-11.74,3.34c-.67,.19-1.33,.38-2,.57Z"/>
  <path d="M354.75,289.13l10.79,1.9c.27,.05,.84-.26,1.09-.34l2.95-.94,9.13-2.9,9.51-3.03,3.42-1.09c.45-.14,1.38-.25,1.74-.55,.02-.02,.08-.02,.11-.03,.56-1.6,1.09-3.22,1.63-4.83,.07-.22,.15-.45,.32-.62,.16-.17,.39-.25,.6-.33,5-1.82,10.01-3.64,15.01-5.46,.43-.16,.87-.32,1.32-.38,1.64-.25,3.48,.53,5.09,.81,.5,.09,3.37,1.07,3.76,.75-3.85,3.08-7.58,6.17-11.73,8.85-5.34,3.44-10.85,6.6-16.07,10.22-2.08,1.45-4.12,2.96-6.06,4.59-3.98,3.33-7.56,7.1-11.48,10.5-.45,.39-.92,.78-1.5,.91-.41,.09-.83,.04-1.24-.03-4.7-.74-9.12-3.53-13.38-5.56l-1.29-1.52-3.71-10.92Z"/>
  <polygon points="374.04 236.86 379.27 244.64 379.85 262.26 378.82 271.31 379.05 290.6 382.85 293.92 393.06 288.83 396.13 279.75 395.23 260.94 397.79 234.05 394.09 228.94 381.19 231.63 374.04 236.86"/>
  <polygon points="354.25 319.35 354.75 315.41 360.38 313.71 366.13 318.8 366.13 342.48 365.55 364.9 366.13 379.58 365.55 390.82 356.9 387.92 353.33 380.26 355.58 355.75 357.01 338 357.23 335.26 354.25 319.35"/>
  <polygon points="349.42 316 360.72 322.85 367.02 317.45 385.15 310.26 387.34 309.93 392.56 313.71 392.56 317.45 392.35 346.56 392.35 361.63 391.02 364.9 389.29 366.66 389.71 369.08 390.7 374.32 390.75 379.88 389.6 386.75 389.83 390.82 392.56 398.31 401.06 401.2 408.19 391.95 410.03 382.15 408.42 373.15 413.8 319.49 414.02 317.25 413.02 314.11 391.21 299.04 381.72 298.9 349.42 316"/>
  <polygon points="360.89 331.84 364.34 327.77 372.01 326.53 376.64 326.57 381.11 327.21 382.26 328.57 383.21 334.12 381.72 334.98 373 338.02 363.7 340.39 360.38 339.25 359.73 333.46 360.89 331.84"/>
  <polygon points="359.73 355.2 362.04 350.99 370.09 346.62 376.4 346.14 380.68 348.51 382.96 349.98 384.28 353.48 379.52 356.78 376.12 357.88 369.07 358.92 362.3 361.04 357.96 359.03 359.73 355.2"/>
  <polygon points="331.98 387.8 331.98 390.73 338.43 395.55 356.08 387.38 359.3 394.5 342.07 417.13 351.8 410.08 370.54 395.96 377.11 387.38 378.69 382.98 392.56 371.92 392.56 369.75 386 366.48 379.05 364.54 377.36 364.9 376.08 367.58 371.12 371.24 361.02 377.27 350.56 381.24 331.98 387.8"/>
  <polygon points="374.55 383.28 394.42 416.48 403.83 420.67 410.26 417.11 411.41 406.43 408.88 400.99 398.17 393.63 390.77 386.77 381.97 386.54 375.32 378.94 374.55 383.28"/>
  <polygon points="416.58 333.43 414.39 338.04 423.14 345.81 452.68 338.22 465.82 337.81 470.63 338.62 474.95 333.43 470.75 326.67 466.65 325.66 448.72 325.66 442.16 329.31 437.55 329.4 435.4 331.67 419.82 333.86 416.58 333.43"/>
  <polygon points="445.95 302.63 443.17 310.83 443.7 314.01 443.17 328.3 442.16 329.31 441.45 341.2 443.08 343.38 443.17 366.69 441.99 372.03 443.17 412.09 427.24 405.77 427.24 408.2 435.45 417.13 440.92 427.16 444.81 426.15 457.48 411.84 458.93 406.5 458.89 386.05 458.84 363.2 457.52 338.53 457.53 317.93 460.81 315.47 459.07 309.37 457.02 306.91 445.95 302.63"/>
  <polyline points="413.03 378.34 411.39 395.33 415.76 395.33 446 368.86 455.87 364.54 459.85 361.75 465.76 353.34 466.45 350.24 460.09 354.16 456.72 354.56 440.39 363.61 412.3 378.94"/>
  <polygon points="466.8 366 468.9 373.26 467.85 386.9 474.95 405.03 485.58 425.54 487.57 426.71 492.12 425.54 494.4 421.65 492.55 413.61 490.27 410.62 490.56 406.86 484.16 380.79 484.3 376.51 476.19 368.85 470.93 368.07 468.22 365.74 466.8 366"/>
  <path d="M489.85,375.6l-.43,4.28,6.26,4.67,28.31-4.8-1.56,17.38-6.83,11.87-1.99,4.96,5.25,5.45,8.27,.42,1.42-4.54s10.71-12.85,12.68-20.94c0,0,3.05-12.27,2.68-15.91,0,0-5.53-15.59-19.63-13.1l-1.99,3.5s-15.92,6.38-29.59,5.32l-2.85,1.43Z"/>
  <polygon points="487.28 418.07 489.96 413.16 496.11 414.26 510.76 408.81 522.19 411.37 527.12 419.83 519 420.88 490.15 421.52 487.28 418.07"/>
</svg>