<?xml version="1.0" encoding="UTF-8"?>
<svg id="_图层_1" data-name="图层 1" xmlns="http://www.w3.org/2000/svg" viewBox="0 0 841.89 595.28">
  <defs>
    <style>
      .cls-1 {
        fill: #040000;
      }

      .cls-2 {
        fill: #231815;
      }
    </style>
  </defs>
  <path class="cls-1" d="M360.21,144.85l-5.24-10.14-24.32-9.97-6.28,3.86-41.53,16.42-1.61,4.35,19.91,4.49,23.69-13.05,6.97,6.94-1.42,34.84-15.45,3.99-20.43,6.34-9.35,3.09-5.05-18.94-14.97-10.62-3.06,.8,4.83,14.01,1.45,18.84-4.83,135.23-4.22,53v13.04l8.85,12.36,11.8-3.23,2.89-141.33,.64-11.15,12.41,6.52,27.01-13.04,.96-4.55,7.28-7.73,9.54-1.61,9.98-33.9,3.17-21.42-.16-22.15,6.54-15.27Zm-30.96,51.23c-.39,1.56-.77,5.81-1.16,7.36,0,1.44,.49,8.53,.14,9.93-.39,1.54-.77,3.09-1.16,4.63-.72,2.88-1.45,5.77-2.15,8.66-.05,.22-.11,.45-.25,.64-.17,.23-.43,.36-.68,.48-10.2,4.99-22.98,11.91-33.17,16.93-.38,.19-.78,.38-1.2,.39-1.01,.03-3.96-2.89-4.76-3.45-1.27-.89-1.45-.94-1.37-2.49,.13-2.64,.89-6.87,1.03-9.5,.28-5.23,1.16-10.3,1.44-15.53,.11-2.07,.22-4.14,.33-6.2,.04-.65,.03-2.87,.13-3.51,.05-.35,.16-.64,.31-.89,.5-.82,1.48-1.14,2.52-1.75,.45-.26,.9-.53,1.41-.62,.47-.09,.95-.02,1.42,.04,7.74,.97,14.71-1.53,22.45-2.02,3.28-.21,8.81-4.46,12.09-4.66,.47-.03,2.33-.43,2.67-.17,.51,.39,.11,1.08-.06,1.75Z"/>
  <path class="cls-1" d="M551.11,133.84l-3-3.73-25.85-10.81h-5.71l-29.83,8.36-15.35,8.41-12.14-1.1-1.98,1.1-2.42,4.18,5.27,5.27,1.98,7.47,.41,65.75,6.03,4.62,18.83-4.4,7.63-1.83,8.43,.1,21.57-1.47,2.77,5.83,3.92,140.8h-8.93l-18.68-13.09-3.51-3.51-1.76,2.34,12.52,24.3,3.59,10.25,9.08,10.83,9.66,16.98,9.37,2.05,9.37-7.32-.02-36.01-4.46-189.46,3.22-4.83v-41.06Zm-23.61,69.12c-.26,.29-.75,.38-1.7,.42-1.48,.05-2.82,.22-4.22-.23-2.03-.66-3.55-1.11-5.59-1.7-3.04-.89-5.46-.87-8.63-.85-2.13,.01-4.97,.5-6.93,1.34-4.1,1.75-6.14,2.49-11.43,3.53-1.19,.23-2.81,.83-4.01,.67-1.87-.24-3.75,.02-5.58,.41-.5,.11-3.76,.47-3.95,1.05,1.65-5.05,1.97-10.41,3.61-15.47,.14-.43,.29-.89,.23-1.34-.06-.42-.28-.79-.51-1.15-.33-.53-.65-1.05-.98-1.58-.24-.38-.48-.78-.48-1.23,0-1.78,2.37-2.65,3.85-3.71,1.61-1.16,4.51-2.42,6.21-3.44s2.4-1.63,4.41-1.83c1.86-.18,3.37-1.02,5.07-1.95,2.39-1.31,4.18-1.73,6.74-2.65,1.52-.55,3.21-1.62,4.81-1.86,1.77-.27,3.16-1.05,4.34-2.39,.53-.6,1.22-1.34,1.57-2.06,.55-1.11,.14-1.61-.51-2.8-.19-.35-.4-.69-.69-.96-.39-.35-.9-.54-1.39-.72-1.41-.5-2.82-1.01-4.23-1.51-2.76-.98-5.21,.59-7.81,1.53-2.65,.96-5.31,1.9-7.92,2.98-5.13,2.12-10.24,4.82-13.83,9.18-.62-1.57-.9-3-.22-4.53,.85-1.91,.95-3.63,1.11-5.73,.3-3.75,.64-5.49,.51-9.55-.07-2.35-1.52-3.93-2.08-6.11-.3-1.17,1.8-3,2.5-3.69,.54-.53,1-.94,1.21-1.08,2.39-1.7,5.54-2.28,8.39-2.54,3.56-.33,7.19-.21,10.65-1.08,4.03-1.02,7.61-3.34,11.5-4.82,2.51-.95,5.15-1.54,7.82-1.76,1.88-.16,6.77-.74,8.29,.63,2.14,1.94,.18,8.33,.18,10.89,0,8.75,0,17.5,0,26.26,0,6.56,.01,13.12,.01,19.67,0,3.28,0,6.56-.01,9.84,0,1.03,.02,1.61-.28,1.94Z"/>
  <path class="cls-2" d="M368.88,166.79v3.11h6.48l6.22,2.85h2.59l1.56-2.98h1.81l-1.81,6.35v5.44l-14.78,5.7-7,1.3v2.33l5.96,1.3h3.89l1.94-1.3,7.91-3.37-1.81,11.15-3.11,4.93-28.26,9.59-1.81,1.09,3.89,3.32,4.93,1.56,18.72-8.08s-19.43,34.54-37.02,47.07c0,0-13.22,12.04-27.48,21.11h6.12s32.16-6.84,52.9-37.69l3.79-4.63,4.07-5.22s9.22-12.17,14.71-26.71l4.13-.28,15.74-4.43,4.41,1.56,3.92,8.05,11.65,12.82s23.26,20.83,33.63,27.57l5.96,5.44,1.3,4.41,4.67-.52,5.44-2.85,7.41,1.7,14.78-1.04,8.29-1.15-12.59-5.88-20.82-10.58-11.51-5.51-16.86-10.36-13.13-11.03-12-11.61-2.1-3.14,11.98-3.38,13.74,4.93,2.59,1.3,5.96-2.59-.26-4.93-2.85-2.85-13.22-5.7-5.19,1.04-4.67,3.11-11.92,3.77-12.96-7.84-4.41,.96,3.89,4.15,3.89,4.15-17.43,5.03,2.52-14.28,22.5-7.6,16.26-1.04,7.26,1.56,2.59-3.11-1.3-5.19-11.67-4.41-5.96,1.04-2.85,2.85-24.86,8.4,1.56-8.82,3.11-3.89,21.75-6.58h19.7l1.04-1.56-10.37-9.59-7-1.3-7,4.67-18.41,5.7-1.09-1.57,.78-12.7-2.59-3.63-15.76,.27-.78,6.22,3.11,2.59-.52,6.48,.52,7-8.04,3.63-10.37,2.33Z"/>
  <polygon class="cls-1" points="296.95 305.39 302.99 302.59 307.61 298.03 326.62 298.03 333.73 306.97 332.84 313.28 329.11 316.26 320.4 313.45 306.37 328.52 312.05 309.6 301.57 308.2 296.95 305.39"/>
  <polygon class="cls-1" points="311.98 352.26 305.75 370.22 299.51 377.5 298.86 381.38 315.92 393.03 317.52 395.46 324.45 396.43 329.69 394.65 331.83 386.56 331.83 384.46 327.07 382.84 319.36 375.88 313.95 353.07 311.98 352.26"/>
  <path class="cls-1" d="M473.93,299.06h-3.78l-4.86,2.05-46.99,5.74s-3.98-8.4-23.49-8.81l-3.78,4.71,6.21,6.41-6.75,2.6-29.17,6.76-13.77-4.51-1.89,1.84,1.35,6.76s11.34,4.71,4.32,21.31l.54,3.89,1.75,5.33c-.87,3.68-1.74,7.35-2.61,11.03-1.09,4.62-3.85,11.51-2.85,16.19,.37,1.74,1.35,3.36,2.31,4.96,1.33,2.2,2.66,4.4,3.99,6.6,.58,.95,1.85,3.27,3.76,2.55,.64-.24,1.05-.73,1.4-1.21,4.84-6.59,3.2-14.91,2.82-22.06-.2-3.76-.4-7.53-.59-11.29l7.56-4.51,6.75-5.33,24.3,12.81-2.43,29.36,5.94,13.11,6.48,1.14,5.4-5.44v-53.22l7.83-7.99,9.72-2.05,15.12,11.68,4.86,4.51,4.59-2.05s7.56-11.47-8.91-17.01l-8.91-3.28,13.77-13.52,.54-4.1-7.83-2.66v-2.19s25.66-7.44,26.2,6.9l-7.83,50.4-12.69-.61-2.16,4.71,.27,1.84s12.42,9.63,9.18,18.44h10.53s15.93-5.53,19.44-22.33l9.18-42,5.4-5.12s-1.08-13.32-30.25-22.33Zm-74.67,44.51c-1.34,1.98-1.19,2.7-3.88,2.33-2.37-.32-5.13-1.8-7.33-2.57-.66-.23-1.35-.48-1.74-.94-1.31-1.49,2.45-7.77,3.08-9.5,.08-.23,.17-.47,.09-.71-.38-1.14-6.02-2.97-7.26-3.54-3.03-1.38-6.08-2.73-9.32-3.8-.98-.33-2.19,4.73-2.09,5.25,.35,1.9,3.31,3.17,3.09,5.07-.05,.41-.25,.79-.45,1.16-2.71,5.06-5.2,11.8-9.81,16.06-2.91-4.18-2.58-10.75-2.41-15.38,.1-2.71,.46-5.42,1.07-8.09,.09-.4,1.04-5.36,1.19-5.47,.64-.12,31.86-5.94,31.86-5.94,.28,3.13,.42,5.85,2.08,8.79,1.49,2.63,2.97,5.26,4.46,7.89,1.42,3.24-.7,6.55-2.62,9.38Zm37.27-27.19c-.68,2.55-3.83,4.34-5.76,6.37-2.28,2.4-4.56,4.8-6.84,7.2-2.66,2.8-5.18,6.39-8.48,8.73-1.1-3.64-.5-8.05-.66-11.81-.18-4.05-.35-8.09-.53-12.14,0-.19,.08-.36,.26-.53,1.77-1.73,12.13-2.66,14.43-2.96,1.49-.2,5.76-1.09,6.89-.22,1,.77,.95,4.36,.69,5.37Z"/>
  <polygon class="cls-1" points="374.01 236.11 378.01 242.84 380.68 253.76 378.54 279.94 372.94 301.8 372.94 306.38 378.01 304.85 384.41 300.28 389.75 278.93 412.7 274.61 417.77 271.25 417.77 268.76 414.24 264.95 408.43 264.19 401.49 266.73 392.15 271.25 390.55 269.02 389.75 257.32 392.95 254.78 414.24 250.97 417.77 246.9 417.77 243.34 412.43 241.06 406.29 241.56 403.36 244.61 391.88 248.43 390.28 239.02 416.43 229.62 422.3 229.62 423.64 260.63 422.57 286.3 407.63 287.57 410.83 292.14 420.7 300.02 425.51 307.4 434.04 304.35 440.45 290.87 440.45 242.58 440.45 229.62 423.37 218.43 418.03 220.21 380.68 234.19 372.94 234.45 374.01 236.11"/>
</svg>