<?xml version="1.0" encoding="utf-8"?>
<!-- Generator: Adobe Illustrator 26.5.0, SVG Export Plug-In . SVG Version: 6.00 Build 0)  -->
<svg version="1.1" id="图层_1" xmlns="http://www.w3.org/2000/svg" xmlns:xlink="http://www.w3.org/1999/xlink" x="0px" y="0px"
	 viewBox="0 0 841.89 595.28" style="enable-background:new 0 0 841.89 595.28;" xml:space="preserve">
<style type="text/css">
	.st0{fill:#040000;}
	.st1{fill:#606060;}
</style>
<polygon points="294.51,342.92 301.44,339.7 306.74,334.48 328.55,334.48 336.7,344.73 335.68,351.96 331.4,355.38 321.41,352.17 
	305.31,369.45 311.83,347.74 299.81,346.13 "/>
<polygon points="311.75,396.69 304.6,417.29 297.44,425.64 296.69,430.1 316.26,443.46 318.11,446.24 326.05,447.36 332.07,445.32 
	334.52,436.03 334.52,433.62 329.06,431.77 320.22,423.78 314.01,397.61 "/>
<polygon points="276.48,163.91 278.32,158.92 325.97,140.09 333.18,135.65 361.08,147.09 367.08,158.73 359.58,176.25 
	359.76,201.65 355.86,227.13 344.68,265.12 333.73,266.97 326.6,252.59 330.39,237.35 330.23,225.95 332.34,213.55 333.4,189.03 
	334.5,162.05 326.5,154.1 299.32,169.06 "/>
<polygon points="254.5,184.41 258.01,183.49 275.18,195.68 281.88,220.49 282.8,226.04 280.47,252.98 279.14,268.32 277.39,346.78 
	275.01,463.46 261.47,467.16 251.32,452.99 256.81,359.09 260.9,244.57 261.7,222.09 260.04,200.48 "/>
<polygon points="276.48,217.89 269.03,213.8 265.07,222.74 273.75,229.51 287.31,223.32 292.9,223.61 311.41,221.35 315.73,220.87 
	321.15,218.61 326.68,216.1 339.11,213.8 341.54,214.44 343.58,211.51 341.28,204.23 334.9,200.02 331.91,202.27 280.26,217.63 "/>
<polygon points="276.94,266.97 285.49,273.74 287.06,273.49 329.71,251.72 335.49,252.57 339.66,258.02 337.2,263.46 325.37,275.83 
	324.28,281.05 293.29,296.01 267.41,282.53 266.39,272.4 274.39,266.02 "/>
<polygon points="377.02,183.9 377.02,187.47 384.46,187.47 391.6,190.74 394.57,190.74 396.36,187.32 410.3,186.78 413.65,186.1 
	417.22,181.64 442.16,174.09 464.77,174.09 465.96,172.3 454.06,161.3 446.03,159.81 438,165.16 407.92,174.36 398.14,177.06 
	388.92,181.23 "/>
<polygon points="371.37,208.89 371.37,211.57 377.37,212.87 382.67,213.05 384.91,211.57 393.98,207.7 410.64,204.47 435.41,196.1 
	454.06,194.91 462.39,196.69 465.37,193.12 463.88,187.17 450.49,182.12 443.65,183.31 440.38,186.58 405.11,198.44 396.36,200.86 
	379.81,207.24 "/>
<polygon points="353.82,238.39 358.28,242.2 363.94,243.99 387.83,233.68 405.03,227.74 410.19,227.3 427.82,222.33 442.1,219.91 
	455.85,216.03 472.91,222.33 474.59,223.17 481.43,220.19 481.13,214.54 477.86,211.27 462.69,204.72 456.74,205.91 451.39,209.48 
	437.71,213.81 428.94,214.7 404.51,221.85 388.33,226.14 359.17,236.04 355.9,237.15 "/>
<path d="M394.57,158.62l0.89-7.14l18.08-0.31l2.97,4.16l-0.89,14.57l2.74,3.94l-1.6,6.47l-3.22,6.32l-2.57,14.68l-1.63,4.92
	l-2.88,16.3l-1.99,6.62l-3.96,8.87l-7.19,12.75c0,0-12.97,18.79-19.58,26.21c0,0-25.15,29.18-55.32,35.96h-7.02
	c0,0,34.42-21.53,52.57-45.97c0,0,20.2-28.19,21.03-31.55l4.15-10.6l2.74-4.34l2.66-16.34l1.8-4v-5.53l3.05-10.21l-1.34-8.34
	l-0.52-7.03l0.59-7.44L394.57,158.62z"/>
<polygon points="381.68,261.53 387.5,271.15 390.56,283.69 387.93,314.45 381.68,338.8 381.68,344.05 387.5,342.3 394.85,337.05 
	401.54,311.04 401.89,301.18 400.97,287.77 403.42,277.56 401.58,266.77 396.6,260.66 "/>
<polygon points="395.54,277.38 404.46,277.22 416.58,273.19 419.95,269.69 426.99,269.11 433.11,271.73 433.11,275.81 
	429.07,280.48 404.64,284.85 399.24,288.36 393.62,286.44 394.39,279.42 "/>
<polygon points="398.34,297.62 403.72,303.74 413.37,299.08 422.4,295.64 429.07,296.52 433.11,300.89 433.11,303.74 427.3,307.6 
	395.66,312.94 391.77,309.17 393.62,298.7 "/>
<polygon points="452.25,251.48 452.25,251.48 439.54,243.15 393.95,259.97 389.41,265.25 392.55,268.32 399.62,267.68 
	432.17,255.99 438.22,256.26 439.24,277.52 439.85,291.56 438.62,321.01 421.48,322.47 425.15,327.72 436.48,336.76 441.96,345.8 
	451.79,341.72 459.13,326.26 459.13,255.99 "/>
<path d="M417.77,205.91l5.06-1.1l16.57,10.05l4.84,8.26l12.96,12.67l16.13,13.68l19.35,11.89l51.53,25.21l-26.46,2.51l-8.5-1.95
	l-6.25,3.27l-5.35,0.59l-1.49-5.06l-6.84-6.25c0,0-31.51-25.05-35.75-29.11l-16.21-17.23l-4.5-9.24l-6.52-2.78l-0.28-6.57
	L417.77,205.91z"/>
<polygon points="475.63,153.45 478.41,148.66 480.68,147.4 494.6,148.66 502.3,155.63 501.35,163.18 501.76,164.41 503.38,168.18 
	503.74,170.2 503.64,175.65 503.03,182.61 502.61,185.52 501.7,188.2 501.44,189.52 501.61,191.32 502.13,192.93 500.34,199.51 
	501.62,204.82 501.44,206.89 503.11,210.11 503.65,212.18 503.02,214.31 499.58,229.76 498.17,237.17 498.05,245.21 491.33,248.8 
	484.41,243.49 483.95,168.06 481.68,159.5 "/>
<path d="M584.22,276.23l-1.82-77.48l3.69-5.54l-0.4-46.4l0,0l0.4-0.71l-3.44-4.28l-29.66-12.4h-6.55l-34.23,9.59l-6.24,3.42
	l-16.29,9.46l-2.7,4.09l4.09,7.32h8.22l4.93-4.35l5.19-3.07l8.22-1.26l8.29-0.74l4.97-1.48l11.51-5l7.2-1.41l8.59-0.28l0.92,1
	c0,0,2.22,0.35,0.27,11.49l-0.2,69.14l-3.09,12.75l3.18,6.69l4.5,161.53h-10.24l-21.43-15.02l-4.03-4.03l-2.02,2.69l14.36,27.88
	l4.11,11.76l10.88,13.25l10.62,18.66l10.75,2.35l10.75-8.4L584.22,276.23z"/>
<polygon points="496.85,194.19 493.37,192.23 490.3,194.19 497.54,208.15 504.99,203.2 510.87,199.84 512.98,198.69 515.35,197.3 
	519.62,196.29 524.68,193.92 530.08,191.84 535.37,189.67 539.61,188.39 540.99,187.49 543.88,184.08 544.22,182.87 542.5,179.77 
	539.09,178.3 535.24,176.99 532.24,177.07 526.07,179.34 517.26,182.7 511.09,185.69 506.05,189.07 500.6,194.36 "/>
<polygon points="494.73,230.71 491.41,229 488.09,232.83 492.99,247.91 521.69,241.65 531.36,241.77 561.37,239.46 565.58,232.83 
	561.24,224.36 559,225.4 553.58,225.9 542.87,223.01 532.32,223.01 527.94,224.22 521.87,226.55 514.83,228.26 510.22,229.03 
	503.82,229.5 496.94,231.12 "/>
<path d="M350.37,354.92l1.55,7.76c0,0,13.24,6.4,4.96,24.45l0.62,4.47l2.01,6.11l-6.33,26.13c0,0-0.95,6.27,2.72,10.78l5.62,9.15
	l1.54,1.29l1.73,0.05l1.26-0.94l2.48-4.2l1.46-5.47l0.24-7.45l-1.27-21.58l0.92-10.63c0,0-4.65-9.35,0.95-31.21l-2.49-5.64
	l-15.8-5.17L350.37,354.92z"/>
<path d="M433.72,344.58l53.91-6.58l5.58-2.35h4.34c33.79,10.4,34.7,25.62,34.7,25.62l-6.2,5.88l-8.36,38.22
	c-4.27,30.25-24.48,35.58-24.48,35.58h-12.08c3.84-9.92-10.53-21.15-10.53-21.15l-0.31-2.12l2.48-5.41l14.56,0.71l8.96-58.21
	c-1.09-15.33-29.23-7.75-29.23-7.75l-15.55,1.91l-17.32,2.36l-26.79,5.51l-39.27,7.51l-5.73-5.96h3.15l1.55-0.09l34.72-8.05
	l7.75-2.98l21.77-2.58L433.72,344.58z"/>
<path d="M402.42,339.88l4.34-5.41c0,0,27.54,1.41,26.6,12.39l-4.27,6.76l0.59,21.24l0.15,2.96l0.63,3.27l0.46,13.6v57.96l-6.2,6.24
	l-7.43-1.31l-6.82-15.04l4.08-51.42l0.86-13.28l-1.23-3.14l-5.55-10.33l-0.95-4.43l-0.02-7.13l1.31-6.16L402.42,339.88z"/>
<polygon points="381.63,365.23 380.73,366 379.23,371.25 379.89,372.64 382.16,375.22 382.68,376.19 382.68,377.49 376.54,389.58 
	373.1,394.62 371.01,396.83 369.03,394.7 367.08,398.96 367.08,402.27 368.6,405.76 377.64,400.29 385.38,394.18 416.17,410.44 
	422.39,398.96 424.43,387.12 416.77,377.76 411.88,386.71 410.25,389.04 408.95,389.48 406.26,389.16 397.81,385.95 396.77,384.88 
	396.92,382.85 397.56,380.95 400.46,374.67 400.65,373.65 399.92,372.9 391.17,369.07 "/>
<path d="M451.83,345.8l2.51,4.27l0.48,2.83l-0.18,2.61l-1.06,2.06l-12.27,12.33l-7.92,8.71l-4.29,3.91l-1.52,5.77l2.47,4.1
	l9.87-9.98l11.15-2.35l11.51,8.89l6.35,4.99l5.06,4.69l5.27-2.35c0,0,6.91-10.84-4.73-17.07l-6.01-2.63l-9.72-3.57l15.87-16.04
	l0.55-4.17l-8.98-3.06l0.14-5.86l-6.72-0.43l-6.21,0.68L451.83,345.8z"/>
</svg>
