<?xml version="1.0" encoding="UTF-8"?>
<svg id="_图层_1" data-name="图层 1" xmlns="http://www.w3.org/2000/svg" viewBox="0 0 841.89 595.28">
  <defs>
    <style>
      .cls-1 {
        fill: #040000;
      }
    </style>
  </defs>
  <path class="cls-1" d="M256.26,157.56c-.17,.32-.18,.82-.02,1.65,.28,1.46,.63,8.19,1.87,8.82,.25,.13,.54,.13,.82,.14,6.13,.13,12.29,.92,18.23,2.46,4.82,1.25,10.68,3.16,13.59,7.53h6.06l26.9-8.73,52.03-9.44,33.85-5.88s18.71-2.67,29.4,8.73l19.42-1.6,4.99,1.78,1.96-4.63s-1.78-14.43-18.17-19.42l-9.98-7.48h-10.51l-12.47,7.13c-6.46,1.05-12.93,2.1-19.39,3.15-13.88,2.25-27.76,4.51-41.64,6.76-13.02,2.12-26.04,4.58-39.11,6.35-6.42,.87-12.65,1.92-19.17,2.15-9.01,.32-17.91,1.12-26.86,1.89,0,0-9.3-2.27-9.3-2.27-1.34,.33-2.18,.32-2.48,.9Z"/>
  <path class="cls-1" d="M474.51,205.59c1,.2,2,.49,3.04,.88,3.3,1.24,6.84,2.13,10.04,3.56,.25,.11,.52,.24,.66,.48,.22,.36,.08,.83-.08,1.23-.58,1.47-1.89,3.16-1.52,4.57,.38,1.48,2.79,3.55,3.74,4.78,.35,.44,.7,.9,.9,1.43,.19,.5,.23,1.04,.27,1.57,1.76,24.41-4.03,49.27-20.39,68.01-5.37,6.15-11.9,10.37-17.97,15.65,3.16,2.43,10.17-1.14,13.21-2.63,23.57-11.49,39.28-34.31,42.36-60.22,.14-1.18,.26-2.37,.35-3.55,.99-12.47-1.32-24.73,1.08-37.15,.59-3.04-8.45-3.11-10.74-3.49-4.78-.81-9.56-1.62-14.34-2.43-.95-.16-1.91-.32-2.87-.27-2.4,.12-4.34,1.49-6.17,2.9-.61,.47-4.52,4.31-4.68,4.28,1.02,.16,2.08,.21,3.11,.41Z"/>
  <path class="cls-1" d="M523.07,236.74c-.03,.06-.05,.13-.06,.19-.1,.67,1.63,1.76,2.04,2.09,1.86,1.5,4.02,2.63,5.85,4.16,5.66,4.72,6.42,11.81,9.25,18.19,1.97,4.45,3.71,8.99,5.45,13.53,1.67,4.35,2.77,7.97,2.57,12.64-.01,.29-.02,.58,.08,.85,.85,2.3,6.51,3.42,8.51,4.48,3.33,1.76,6.44,3.97,9.99,5.3,1.67,.62,3.68,1,5.14-.02,2.64-1.85,2.99-6.32,3.83-9.16,1.39-4.65,3.03-9.24,4.54-13.85,.34-1.03,.68-2.11,.53-3.19-.32-2.21-2.49-3.72-3.76-5.41-1.88-2.5-3.79-4.98-5.75-7.42-5.99-7.43-12.25-16.06-21.14-20.1-4.83-2.2-9.95-3.61-15.23-3.57-2.3,.02-4.6,.04-6.91,.06-.83,0-4.42,.05-4.94,1.21Z"/>
  <path class="cls-1" d="M465.58,428c-.53,.23-31.98,5.61-47.13,8.2-5.65,.97-11.29,1.94-16.94,2.92-.74,.13-1.49,.26-2.24,.22-.77-.04-1.52-.27-2.25-.49-2.47-.74-9.98-4.51-10.52,.39-.14,1.29,2.78,3.94,3.63,5.01,2.65,3.32,5.31,6.64,7.96,9.96,1.2,1.5,2.56,4.09,4.13,5.18,2.21,1.53,6.05,.46,8.46,.07,5.77-.95,11.16-3.24,16.84-4.55,6.1-1.4,12.15-3.34,18.2-5.02,8.8-2.44,17.61-4.88,26.41-7.32,.19-.05,.37-.1,.56-.16,5.98-.96,11.95-1.91,17.93-2.87,9.18-1.47,18.79-3.93,28.02-4.52,6.9-.44,13.87-.17,20.77-.04,3.54,.07,7.33,.14,10.59,1.69,3.57,1.7,6.93,4.34,10.25,6.5,4.6,2.99,8.02,7.66,13.74,4.17,1.9-1.16,3.81-2.33,5.71-3.49,.37-.23,.76-.47,.95-.86,.16-.32,.16-.7,.16-1.06,0-3.61,0-7.23,0-10.84,0-3.19-2.6-4.03-4.8-5.78-2.24-1.78-4.49-3.57-6.73-5.35-4.24-3.37-8.48-6.74-12.71-10.12-.39-.31-.79-.63-1.26-.81-.02,0-.04-.02-.07-.02-2.41-.87-7.11,.75-9.5,1.23-4.02,.82-7.97,1.92-11.92,3.01-8.97,2.48-17.93,4.97-26.9,7.45-4.45,1.23-9.12,3.1-13.68,3.79l-27.69,3.5Z"/>
  <path class="cls-1" d="M396.32,189.55l10.5,11.48,19.94-13.93,2.05,1,1.68,4.67-6.77,20.32s-6.32,16.4-7.76,16.3l-8.94,17.34-12.97,13.78-11.73,10.09-1.85,1.82-1.14,3.04s15.82,2.78,41.32-21.3l13.65-17.91,15.83-38.26s4.86-15.12-4.07-19.45l-11.31-5.46-2.03-.65-2.02,.22-22.56,12.38-7.37,3.35-4.46,1.17Z"/>
  <path class="cls-1" d="M390.66,227.71l-1.34,1.58,2.45,2.23,9.47,7.91,8.34,8.15,13.01,7.74s18.98,14.79,24.18,25.4c0,0,7.92,15.12,16.7,12.6,0,0,19.02-15.17,6.31-34.97l-5.12-5.1-9.05-4.96-12.39-7.44-18.48-9.62-24.85-3.54h-9.21Z"/>
  <polygon class="cls-1" points="289.93 174.56 294.35 171.23 305.49 171.23 313.74 173.69 317.36 178.16 318.01 184.19 316.24 194.15 315.2 221.55 316.98 241.72 315.74 250.05 315.42 263.23 318.01 274.66 315.2 285.43 303.97 292.53 295.79 280.53 295.41 273.84 293.22 269.47 292.82 263.21 296.97 231.88 297.16 222.33 294.46 196.08 291.66 181.99 290.74 178.16 289.93 174.56"/>
  <polygon class="cls-1" points="307.02 197.99 313.15 193.21 318.01 193.91 345.96 190.19 350.11 188.73 356.04 185.81 360.74 191.9 360.74 199.34 354.63 202.87 341.74 204.4 325.9 206.55 317.39 205.37 313.15 206.55 308.81 206.55 307.02 197.99"/>
  <path class="cls-1" d="M352.78,172.17l-2.69-2.03-.99-1.33v-1.9l4.55-6.1,1.89-.55,3.5,1.65,7.37,2.64s9.26,4.66,7.82,23.04l.15,94.72v2.47s-2.11,6.6-2.11,6.6l-5.06,13.73-3.83,2.15h-5.09l-3.65-1.13-3.25-8.51-.4-1.38,.34-3.73,.89-7.1,.19-14.25,.33-14.39,1.82-8.06,.08-13.25-2.33-10.19,3.37-7.32,.38-3.72-2.63-16.25-1.87-8.43,2.02-7.34,.42-7.14-1.19-2.9Z"/>
  <polygon class="cls-1" points="310 233.04 314.64 233.77 338.67 225.82 345.08 224.96 347.97 225.02 350.84 226.34 356.04 223.99 359.19 227.71 359.87 237.22 356.81 242.32 353.07 240.4 335.62 242.32 322.71 243.73 318.01 245.64 314.64 250.32 311.7 250.32 307.02 237.22 308.47 231.88 310 233.04"/>
  <polygon class="cls-1" points="265.4 285.92 259.11 283.98 255.81 284.95 254.93 285.92 254.93 289.29 256.84 292 277.03 311.68 280.04 314.17 289.38 314.15 291.18 313.2 297.79 304.15 306.36 296.86 329.96 279.77 348.25 265.9 357.83 260.67 359.87 255.78 356.04 251.68 334.89 263.58 309.06 276.96 297.32 277.47 287.26 285.43 273.26 288.28 266.54 286.31 265.4 285.92"/>
  <polygon class="cls-1" points="308.14 297.64 310.18 291.31 312.2 289.29 330.59 303.15 330.59 309.7 310.73 325.18 302.68 331.46 280.51 345.57 275.06 348.97 269.57 351.93 243.94 364.86 244.94 359.57 269.19 340.76 290.85 323.87 297.7 316.61 303.97 306.9 308.14 297.64"/>
  <path class="cls-1" d="M282.87,347.95l5.33-7.27,2.9,.57,6,2.88,8.55,5.13,4.53,2.51v4.77l-4.14,7.06s-14.08,61.13-54.42,65.51l-4.14-.82s35.09-22.24,39.78-63.41c0,0,1.39-8.04-4.11-15.55l-.29-1.37Z"/>
  <polygon class="cls-1" points="342.52 293.62 345.14 291.49 350.73 289.29 369.57 299.17 371.49 301.39 371.12 304.45 370.47 307.44 369.65 310.36 366.83 314.17 349.1 329.7 335.47 340.99 331.5 340.99 302 366.57 302 363.17 310.59 349.89 317.52 339.17 321.98 334.66 328.54 329.7 334.89 321.08 340.64 314.17 342.4 305.46 342.08 297.76 342.52 293.62"/>
  <path class="cls-1" d="M335.7,334.06l3.91-8,4.43-3.23,7.15,9.36,2.59,32.67,3.08,67.42-.17,9.21s-.17,16.05-10.41,20.44l-3.26,.38-3.42-2.12-8.35-14.32-.83-1.91,4.48-17.66,.44-2.9,.02-85.75,.34-3.57Z"/>
  <polygon class="cls-1" points="396.71 318.86 396.39 309.73 397.4 305.72 400.49 304.26 404.81 303.43 407.91 304.42 411.44 306.65 419.08 311.04 420.39 313.01 421.48 319.35 420.57 321.57 410.67 328.73 401.75 335.29 379.34 360.28 374.37 363.68 372.3 351.96 373.08 349.95 396.71 318.86"/>
  <path class="cls-1" d="M343.64,327.08l3.21-7.99,2.72,4.94,2.42,4.38s17.33,20.73,21.5,22l6.96,10.41s12.48,31.11,43.95,51.03l9.91,5.51,15.97,5.92,3.04,1.42,1.08,2-.66,.5-1.76,.68-13.58,1.17-10.76,.84-7.37,1.6-4.21,.45-4.1-.82s-4.99-1.62-9.81-7.54l-16.46-21.79-17.57-27.03-17.04-28.61-6.26-16.45-1.16-2.62Z"/>
  <path class="cls-1" d="M484.58,132.07l.49,2.93,7.87,4.84s-11.61,56.48-34.98,68.33l5.81-.28s21.77-10.83,33.06-32.03l8.76-14.39s7.88-12.95,12.52-16.01l-1.42-6.33-1.43-1.6-3.97-1.37-13.36-4.09h-13.37Z"/>
  <path class="cls-1" d="M496.98,162.96l7.93,2.45h11.09l21.5-6.91,11.28-7.96,5.01,.44,1.86,1.78,7.01,9.41,8.4,9.73-.1,1.93-1.43,3.79s-26.63,8.28-60.45,37.98l-7.52,5.06h-2.94l40.47-55.26-18.75,9.84-9.59,2.43-17.62-2.33-1.53-4.09,3.06-8.68,2.3,.38Z"/>
  <polygon class="cls-1" points="435.85 323.74 425.97 309.1 431.73 308.16 437.02 308.16 445.39 312.16 453.19 320.11 458.07 325.59 454.39 335.77 455.42 345.76 458.07 354.49 456.38 363.68 454.39 366.57 446.42 369.91 440.89 359.4 435.85 323.74"/>
  <polygon class="cls-1" points="440.72 312.62 450.28 314.22 453.11 313.42 489.55 299.95 493.15 298.8 509.72 286.62 512.55 285.43 523.99 287.79 547.52 306.2 547.69 309.88 547.46 315.93 546.32 317.54 542.85 318.7 539.36 321.51 534.53 328.59 525.65 340.7 525.09 342.45 526.05 349.78 525.19 351.32 519.58 355.78 517.43 355.93 511.69 354.85 505.57 347 503.67 340.01 505.87 329.7 507.3 309.72 506.88 308.53 503.87 307.45 497.23 308.56 476.4 318.15 464.14 322.74 459.05 324.7 455.87 326.06 451.47 325.55 439.87 315.34 440.72 312.62"/>
  <polygon class="cls-1" points="451.47 348.7 459.15 351.91 483.09 344.62 494.38 342.16 501.47 341.64 506.43 339.04 510.23 340.19 518.85 353.98 515.11 353.98 512.55 353.98 509.49 354.89 491.29 358.62 468.64 362.66 460.39 364.83 453.19 367.8 451.47 365.72 445.83 349.21 451.47 348.7"/>
  <polygon class="cls-1" points="434.42 398.83 433.63 403.85 440.92 409.25 444.54 409.76 476.47 398.83 492.98 395.68 499.29 395.13 535.36 392.69 536.6 391.57 538.58 385.24 536.03 381.37 532.3 378.06 517.29 372.2 514.94 372.2 501.5 379.54 469.28 389.07 437.86 396.97 434.42 398.83"/>
  <polygon class="cls-1" points="461.15 361.47 466.18 365.82 467.29 367.8 467.62 369.91 468.38 373.5 469.49 375.51 470.89 376.34 472.42 380.34 472.42 384.38 471.7 390.06 471.19 396.36 472.33 403.51 470.08 424.58 469.32 431.93 474.6 438.23 484.98 436.36 491.11 429.04 491.71 422.95 494.41 416.3 495.04 411 498.09 387.85 501.5 379.54 493.99 371.66 474.09 358.23 468.98 357.21 462.85 359.77 461.15 361.47"/>
</svg>