<?xml version="1.0" encoding="utf-8"?>
<!-- Generator: Adobe Illustrator 26.5.0, SVG Export Plug-In . SVG Version: 6.00 Build 0)  -->
<svg version="1.1" id="图层_1" xmlns="http://www.w3.org/2000/svg" xmlns:xlink="http://www.w3.org/1999/xlink" x="0px" y="0px"
	 viewBox="0 0 841.89 595.28" style="enable-background:new 0 0 841.89 595.28;" xml:space="preserve">
<style type="text/css">
	.st0{fill:#FFFFFF;}
	.st1{fill:#040000;}
	.st2{fill:#231815;}
	.st3{fill:#E61F19;}
	.st4{fill:#00B0EC;}
	.st5{fill:none;stroke:#231815;stroke-miterlimit:10;}
	.st6{fill:#FFFFFF;stroke:#231815;stroke-miterlimit:10;}
	.st7{fill:#5ADBAF;}
	.st8{fill:#FEC600;}
	.st9{fill:#FF61B7;}
	.st10{fill:#476AB1;}
	.st11{fill:#F68B00;}
</style>
<g>
	<polygon class="st4" points="428.77,462.08 460.91,462.08 455.74,489.9 423.81,489.9 	"/>
	<polygon class="st4" points="503.41,462.08 507.78,489.9 476.4,489.9 471.23,462.08 	"/>
	<polygon class="st4" points="550.56,462.08 554.93,489.9 523.55,489.9 518.38,462.08 	"/>
	<polygon class="st4" points="597.7,462.08 602.08,489.9 570.7,489.9 565.53,462.08 	"/>
	<polygon class="st4" points="238.99,170.1 238.99,141.21 390.42,141.21 388.31,126.17 436.33,126.17 438.45,141.21 573.29,141.21 
		592.75,126.17 600.72,170.1 	"/>
	<polygon class="st4" points="531.7,307.39 510.96,292.42 491.55,306.71 420.6,307.39 420.77,278.52 462.19,278.52 476.95,267.87 
		421.53,227.65 474.18,227.65 503.09,248.91 515.83,241.09 489.39,221.96 541.76,221.49 555.25,211.33 481.54,211.16 473.42,221.39 
		421.52,221.39 456.18,175.95 508.44,175.95 502.36,183.57 602.21,183.59 602.21,227.14 547,266.95 602.72,307.39 	"/>
	<polygon class="st4" points="288.58,489.9 239.61,482.56 250.64,475.4 269.76,400.17 238.99,400.17 238.99,371.48 405.83,371.48 
		415.77,363.5 421.53,400.17 310.29,400.17 	"/>
	<rect x="309.37" y="407.79" class="st4" width="47.85" height="82.11"/>
	<polygon class="st4" points="395.85,414.38 414.44,489.9 373.31,489.9 357.22,416.84 	"/>
	<polygon class="st4" points="601.88,455.36 521.72,455.36 521.72,423.15 497.11,423.15 479.49,455.36 420.24,451.2 433.99,437.62 
		453.91,390.57 570.32,390.57 569.57,426.01 589.1,426.01 598,417.14 	"/>
	<polygon class="st4" points="536,307.41 536.08,320.14 586.94,320.14 596.04,307.41 599.91,348.48 580.35,348.48 594.22,385.05 
		559.36,385.05 545.5,348.48 536.08,348.48 537.16,385.56 489.31,385.56 488.23,348.48 481.99,348.48 466.8,385.56 430.01,385.56 
		445.2,348.48 424.31,348.48 424.31,319.5 488.23,320.14 488.15,307.41 	"/>
	<polygon class="st4" points="238.99,182.73 301.85,182.73 301.85,175.13 353.1,175.13 353.1,182.73 403.67,182.73 414.69,173.54 
		419.7,211.65 353.1,211.65 353.1,221.66 402.65,221.66 414,211.25 419.48,249.66 353.1,249.66 353.1,259.33 403.67,259.33 
		414.2,250.01 419.5,288.05 337.66,288.05 334.92,298.42 410.74,298.42 410.79,364.44 338.82,364.44 338.82,335.36 362.85,335.36 
		367.12,327.3 327.51,327.3 317.46,364.44 246.58,359.27 263.2,349.09 284.78,288.05 238.99,288.05 238.99,259.13 301.85,259.13 
		301.85,250.43 238.99,250.43 238.99,221.66 301.85,221.66 301.85,211.65 238.99,211.65 	"/>
</g>
</svg>
