<?xml version="1.0" encoding="UTF-8"?>
<svg id="_图层_1" data-name="图层 1" xmlns="http://www.w3.org/2000/svg" viewBox="0 0 841.89 595.28">
  <defs>
    <style>
      .cls-1 {
        fill: #040000;
      }
    </style>
  </defs>
  <polygon class="cls-1" points="266.59 172.9 270.47 166.8 277.74 168.27 287.34 169.85 292.06 183.63 295.51 213.44 294.69 226.98 297.05 263.25 297.05 268.61 290.92 271.93 283.26 266.82 278.78 261.53 277.01 222.37 274.9 182.87 266.59 172.9"/>
  <polygon class="cls-1" points="277.74 169.65 274.15 174.32 277.74 182.49 286.07 186.92 333.93 171.22 336.7 178.97 336.64 269.26 340.5 275.29 352.69 271.41 355.58 257.21 357.45 169.29 350.24 162.09 323.23 151.77 299.28 163.19 297.68 165.77 277.74 169.65"/>
  <polygon class="cls-1" points="289.22 209.96 281.81 209.96 279.77 217.11 284.5 226.81 293.05 226.81 307.67 220.57 323.46 217.41 326.51 206.72 322.63 203.4 312.11 202.29 289.22 209.96"/>
  <polygon class="cls-1" points="296.25 257.35 287.4 256.36 278.78 261.53 283.15 273.04 284.65 276.93 349.87 257.21 345.27 253.81 321.09 251.22 296.25 257.35"/>
  <polygon class="cls-1" points="248.76 320.2 248.65 325.92 262.26 336.61 266.97 336.7 302.72 317.45 338.34 302.74 356.12 297.67 364.87 297.84 377.63 299.76 382.71 298.17 383.88 289.44 375.87 285.92 364.54 279.65 356.46 279.5 301.83 301.45 293.12 306.22 268.76 313.17 258.22 318.7 248.76 320.2"/>
  <polygon class="cls-1" points="300.54 314.83 306.16 302.91 324.54 297.64 337.47 298.83 338.34 302.74 335.71 317.93 338.87 347.28 339.3 360.08 335.4 388.62 336.62 396.02 332.88 404.53 324.54 404.53 316.27 395.85 318.63 366.9 314.45 320.36 300.54 317.04 300.54 314.83"/>
  <polygon class="cls-1" points="280.82 333.93 280.64 343.69 262.94 386.29 253.09 402.31 241.53 415.15 241.4 421.88 267.6 406.88 278.73 391.89 282.91 384.8 291.48 370.91 300.35 352.3 305.79 349.21 306.54 344.85 301.62 338.36 286.9 333.37 280.82 333.93"/>
  <polygon class="cls-1" points="275.52 386.05 273.97 379.6 278.78 370.91 285.73 370.91 308.94 378.89 321.73 389.55 336.41 394.02 357.8 404.53 411.14 416.86 496.58 426.83 578.9 418.06 580.88 420.45 561.1 433.89 498.66 455.74 484.31 462.31 431.59 456.09 380.78 439.84 341.15 418.38 289.66 383.58 278.78 386.05 275.52 386.05"/>
  <polygon class="cls-1" points="329.64 357 332.58 347.58 337.56 348.19 348.07 341.05 374.58 340.93 376.49 347.03 368.26 354.62 357.45 357.11 343.76 355.79 335.9 363.13 329.64 360.19 329.64 357"/>
  <polygon class="cls-1" points="372.23 309.69 370.96 312.23 377.13 319.65 380.53 321.26 396.74 312.92 408.03 311.81 421.05 306.11 427.44 307.73 429.78 303.69 424.66 295.14 419.14 293.68 416.8 295.18 398.93 301.5 383.35 306.97 378.63 308.53 372.23 309.69"/>
  <polygon class="cls-1" points="400.37 279.22 401.86 275.29 406.76 275.29 414.01 278.29 414.01 304.28 412.23 309.69 413.15 317.31 413.77 359.65 414.23 384.32 414.23 388.75 411.46 403.2 408.55 407.33 406.7 409.93 404.46 410.82 399.13 410.28 397.68 407.31 395.52 402.19 392.2 398.96 389.97 396.92 392.31 394.8 396.6 395.85 398.56 396 400.21 393.95 400.27 330.74 402.05 300.24 401.86 284.99 400.37 279.22"/>
  <polygon class="cls-1" points="403.52 309.04 395.04 323.77 380.18 343.06 370.87 355.59 374.28 356.92 387.47 346.23 404.71 325.16 409.47 316.02 408.62 309.04 403.52 309.04"/>
  <polygon class="cls-1" points="409.47 322.15 414.43 320.31 421.04 320.31 427.64 329.31 428.92 335.77 427.22 339.7 421.25 341.72 419.76 336.7 415.5 330.93 409.47 325.16 409.47 322.15"/>
  <path class="cls-1" d="M445.36,132.93l-2.49-5.42,2.94-1.24,9.35,1.93,4.88,.86,2.49,1.7s-.89,13.34-29.96,34.77c0,0-28.91,26.19-49.84,34.55l-14.91,6.27-6.72,2.32-2.94-1.55,16.37-9.59,22.01-15.7,25.53-23.38,11.14-10.2,12.15-15.32Z"/>
  <polygon class="cls-1" points="450.67 133.04 459.35 130.83 463.37 139.72 465.63 139.72 498.53 157.49 518.14 167.78 546.75 179.75 578.53 190.12 574.99 191.71 538.22 196.47 532.12 196.47 520.5 191.07 480.81 166.54 445.73 144.62 444.88 137.47 450.67 133.04"/>
  <polygon class="cls-1" points="420.53 178.46 421.43 179.65 430.39 185.6 441.9 184.53 454.24 180.45 457.77 177.74 465.95 176.56 479.73 177.92 481.99 175.54 480.64 173 461.43 166.54 458.72 166.54 455.89 168.92 440.98 174.12 427.26 177.23 420.53 178.46"/>
  <polygon class="cls-1" points="408.55 203.23 409.68 206.46 415.55 211.93 425.53 211.63 431.41 208.7 440.79 205.93 445.3 208.88 445.97 204.83 470.87 201.3 484.02 198.7 488.31 199.89 488.59 193.78 485.65 190.73 476.98 191.07 469.53 190.56 458.84 194.23 441.65 198.13 431.9 200.57 412.02 202.58 408.55 203.23"/>
  <polygon class="cls-1" points="411.56 221.86 407.2 229.88 406.99 231.26 410.03 235.53 411.56 237.26 420.31 242.45 423.93 240.41 425.97 234.06 428.66 229.4 433.18 224.12 438.28 219.36 439.11 216.7 438.94 215.97 435.22 219.36 430.83 220.87 425.11 222.44 421.03 221.61 416.65 220.49 414.23 220.54 411.56 221.86"/>
  <polygon class="cls-1" points="473.91 207.84 482.45 208.49 483.45 212.74 466.85 227.69 456.92 239.06 460.5 239.06 487.64 224 497.65 216.99 499.01 212.74 495.1 206.46 484.25 203.4 473.91 207.84"/>
  <polygon class="cls-1" points="439.81 180.96 441.47 174.83 448.57 174.83 451.94 178.79 459.81 181.31 463.24 185.06 464.71 198.06 463.59 203.4 464.59 228.37 465.25 242.34 464.58 248.74 460.75 252.56 452.53 252.56 447.73 247.09 446.05 244.47 444.88 199.85 445.38 195.59 443.8 193.2 439.81 180.96"/>
  <polygon class="cls-1" points="368.92 261.25 384.06 272.19 432.87 258.65 471.78 252.93 530.35 253.42 523.11 264.31 525.08 266.05 547.72 258.05 555.31 257.24 564.35 249.6 560.96 242.29 534.97 234.31 530.68 235.53 529.78 238.25 472.61 241.87 442.72 245.04 414.23 250.88 380.67 258.7 368.92 261.25"/>
  <polygon class="cls-1" points="426.07 283.86 425.97 287.05 440.42 290.28 446.48 285.01 461.58 281.69 486.78 279.41 501.15 282.08 504.48 283.67 507.29 277.19 489 267.47 484.8 269.98 426.07 283.86"/>
  <polygon class="cls-1" points="444.2 282.49 452.71 290.07 445.8 308.81 446.24 312.96 450.33 311.77 460.55 299.24 466.26 294.96 468.4 289.2 465.97 285.57 459.65 283.51 462.75 279.5 452.53 278.87 444.2 282.49"/>
  <polygon class="cls-1" points="436.61 308.55 435.17 313.2 436.94 323.53 439.34 363.78 442.06 367.04 445.67 365.46 449.02 359.93 449.02 308.55 436.61 308.55"/>
  <polygon class="cls-1" points="441.64 309.98 460.55 301.72 468.09 299.89 480.38 299.86 492.58 307.21 494.02 325.16 495.09 339.69 495.63 359.27 495.97 371.84 495.53 380.02 490.85 386.05 486.35 385.94 478.33 378.02 477.73 372.75 479.31 343.54 476.53 316.26 476.73 309.51 472.84 307.71 467.76 308.32 443.18 315.85 438.41 315.17 437.22 311.6 439.26 310.91 441.64 309.98"/>
  <polygon class="cls-1" points="443.35 325.16 462.72 320.37 468.84 322.79 465.31 328.13 455.9 329.17 444.2 329.17 443.35 325.16"/>
  <polygon class="cls-1" points="444.2 339.68 458.08 338.43 465.83 336.21 470.18 341.4 470.14 343.09 452.08 347.58 444.2 344.45 444.2 340.7 444.2 339.68"/>
  <polygon class="cls-1" points="472.02 355.9 429.98 369.88 431.55 374.99 435.06 375.66 448.8 374.18 448.85 374.16 437.87 392.15 427.69 403.96 429.78 405.17 445.95 395.1 462.24 377.3 465.83 370.91 466.4 368.68 466.97 368.51 475.93 363.6 476.06 358.83 472.02 355.9"/>
  <polygon class="cls-1" points="459.01 375.66 454.41 383.15 461.74 380.74 482.89 413.03 485.25 413.09 493.2 402.27 493.41 394.96 460.55 372.02 459.01 375.66"/>
  <polygon class="cls-1" points="517.46 273.24 518.53 275.67 522.86 279.78 527.77 285.13 535.35 284.02 542.85 279.94 540.87 277.25 540.02 273.89 529.68 268.97 526.2 268.97 517.46 273.24"/>
  <polygon class="cls-1" points="494.09 286.07 490.85 288.86 494.33 293.28 500.3 296.49 532.53 286.12 542.13 283.57 557.47 282.06 565.01 282.71 566.88 286.91 569.82 286.91 575.17 285.36 575.17 282.71 571.69 277.56 560.73 273.22 557.79 274.52 528.03 279.5 523.77 278.87 519.38 282.44 498.63 287.83 494.09 286.07"/>
  <polygon class="cls-1" points="523.69 284.85 522.58 286.83 525.59 293.75 521.64 299.56 519.51 303.68 516.33 310.95 513.02 317.63 507.29 326.16 499.5 334.98 497.54 337.45 497.18 338.12 497.9 339.6 501.77 341.26 504.07 340.96 508.81 337.71 514.69 331.46 519.8 325.66 522.03 322.26 528.85 307.23 537.06 296.17 539.88 291.79 525.64 284.36 523.69 284.85"/>
  <polygon class="cls-1" points="530.16 298.66 524.45 299.86 522.33 304.19 527.01 307.86 533.49 304.63 539.28 303.8 546.09 302.69 554.18 302.57 557.72 303.51 555.9 309.1 550.68 318.84 544.63 328.3 543.51 330.01 537.26 334.86 530.16 338.75 528.41 339.24 526.37 339.32 523.71 340.54 522.33 342.32 523.14 344.19 524.56 345.85 526.2 346.5 529.47 346.74 536.35 345.46 547.26 341.26 552.15 339.43 554.61 335.82 560.9 324.55 568.38 313.24 573.31 304.36 573.61 302.64 568.41 297.2 566.29 295.21 562.11 292.99 559.73 292.87 553.12 294.87 546.62 296.73 532.37 298.57 530.16 298.66"/>
  <polygon class="cls-1" points="524.96 310.49 530.71 311.17 536.4 314.01 540.35 315.55 541.61 316.79 543.38 321.98 542.85 322.94 539.88 324.59 537.87 325.16 526.02 318.78 522.86 316.94 520.2 312.81 521.36 309.64 524.96 310.49"/>
  <polygon class="cls-1" points="499.18 370.26 499.18 372.4 502.94 375.69 512.44 404.64 516.88 406.32 523.09 399.6 513.9 372 510.74 368.96 505.17 368.36 500.01 368.86 499.18 370.26"/>
  <polygon class="cls-1" points="513.96 360.39 513.17 363.61 520.72 370.82 530.26 368.48 554.26 364.74 550.59 382.95 550.73 389.99 550.67 398.23 553.9 400.62 559.43 400.11 562.58 392.56 562.3 387.99 572.37 363.93 575.43 360.94 576.84 355.75 565.21 347.58 557.35 347.58 551.26 352.26 526.16 359.51 513.96 360.39"/>
  <polygon class="cls-1" points="517.22 392.56 522.43 393.97 526.78 391.85 548.04 389.36 553.99 390.74 562.3 387.99 565.8 391.37 567.91 396.68 563.92 402.24 557.36 404.64 550.91 401.48 530.26 400.98 523.81 402.12 520.38 405.05 517.11 408.53 512.44 404.64 511.52 395.09 517.22 392.56"/>
</svg>