<?xml version="1.0" encoding="UTF-8"?>
<svg id="_图层_1" data-name="图层 1" xmlns="http://www.w3.org/2000/svg" viewBox="0 0 841.89 595.28">
  <defs>
    <style>
      .cls-1 {
        fill: #040000;
      }
    </style>
  </defs>
  <polygon class="cls-1" points="247.65 327.28 247.54 333.36 261.99 344.71 266.99 344.8 304.97 324.35 317.43 327.45 321.87 376.88 320.11 396.88 311.58 389.62 292.4 382.47 302.45 361.38 308.23 358.09 309.03 353.46 303.8 346.56 288.16 341.27 281.71 341.86 281.61 347.22 281.52 352.23 262.71 397.48 251.64 415.48 239.96 428.14 239.83 435.29 267.67 419.36 278.39 405.29 283.92 395.9 291.1 394.61 310.17 407.48 344.23 430.73 387.89 454.37 441.87 471.63 489.05 477.25 497.87 478.24 505.07 475.51 513.12 471.26 579.45 448.05 600.46 433.78 598.36 431.23 510.9 440.55 421.69 430.3 365.41 417.81 340.76 405.69 339.69 399.96 343.83 369.64 348.56 365.08 363.11 366.48 374.6 363.84 383.33 355.77 381.31 349.3 370.22 349.09 353.15 349.43 343.37 356.04 340.02 324.86 342.81 308.73 361.7 303.34 370.99 303.52 384.54 305.56 389.94 303.87 391.19 294.59 382.67 290.86 370.64 284.2 362.06 284.04 304.89 306.89 294.78 312.42 268.89 319.81 257.69 325.68 247.65 327.28"/>
  <polygon class="cls-1" points="266.59 171.26 275.42 181.85 279.54 258.94 279.54 265.42 285.42 281.3 344.55 263.83 344.55 260.89 344.55 255.6 324.25 253.65 298.67 260.23 296.31 226.98 310.14 221.28 326.91 217.92 330.15 206.57 326.03 203.04 314.85 201.86 296.59 207.96 293.65 182.66 338.12 168.01 341.06 176.25 341.01 272.16 345.1 278.57 358.05 274.45 361.12 259.36 363.11 165.96 355.45 158.31 326.76 147.35 317.35 152.64 301.31 159.49 299.62 162.22 278.43 166.34 270.71 164.78 266.59 171.26"/>
  <g>
    <polygon class="cls-1" points="457.69 289.89 464.31 295.26 460.59 306.71 456.96 315.18 447.21 314.9 445.67 319.84 447.42 328.45 450.11 373.57 453 377.04 456.83 375.35 460.39 369.48 459.81 354.9 464.93 356.85 482.82 351.59 482.87 349.8 478.25 344.28 470.01 346.64 461.21 347.78 460.53 336.6 467.7 336.81 477.69 335.7 481.44 330.03 474.94 327.45 468.31 329.45 460.69 331.23 460.58 320.86 480.29 314.65 485.69 314.01 489.82 315.92 489.61 323.09 492.57 352.07 490.88 383.1 491.52 388.7 500.04 397.12 504.03 397.23 509.79 390.82 510.27 382.13 509.28 346.1 506.66 313.48 493.7 305.67 480.65 305.7 468.89 309.34 473.42 304.09 478.7 300.46 480.97 294.35 478.39 290.49 471.68 288.3 473.73 286.37 500.5 283.95 515.76 286.78 519.3 288.47 522.29 281.58 502.86 271.26 498.4 273.92 451.57 284.34 436 288.67 435.91 292.06 451.25 295.49 457.69 289.89"/>
    <path class="cls-1" d="M440.16,380.05l36.63-12.7,8.03-2.16,4.29,3.11-.15,5.08-9.51,5.21-3.18,6.68,24.99,18.05,6.28,3.37-.22,7.76-8.44,11.49c-.63,.86-1.93,.83-2.51-.07l-22.46-34.3-3.84,1.88-12.94,13.38-18.06,11.24-1.34-1.83,10.4-11.86,12.02-19.78-14.59,1.57-3.73-.7-1.67-5.43Z"/>
  </g>
  <polygon class="cls-1" points="513.68 380.45 513.68 382.73 517.66 386.22 527.76 416.98 532.72 421.11 536.85 416.71 539.84 414.29 546.69 413.09 568.62 413.62 575.47 416.98 582.45 414.43 586.69 408.52 584.44 402.88 580.72 399.29 591.42 373.73 594.67 370.55 596.17 365.04 583.82 356.36 575.47 356.36 568.99 361.33 542.33 369.03 529.38 369.97 528.53 373.39 536.56 381.05 546.69 378.56 560.15 376.55 572.18 374.59 568.29 393.94 568.44 401.42 565.57 400.74 542.99 403.39 538.38 405.64 536.45 404.84 529.31 382.3 525.95 379.08 520.03 378.43 514.55 378.97 513.68 380.45"/>
  <path class="cls-1" d="M453.86,122.58l2.64,5.76-12.9,16.27-38.96,35.67-22.23,16-18.54,10.86,3.12,1.65s35.77-10.69,63.38-34.72l33.27-29.42,31.31,19.88,41.38,25.56,12.35,5.73h6.48l10.44-1.28,7.37-.9,21.25-2.88,3.76-1.68s-43.79-11.89-76.62-30.15l-43.32-23.39h-2.4l-2.72-5.59,1.83-3.92-2.64-1.81-9.36-1.65-5.76-1.32-3.12,1.32Z"/>
  <polygon class="cls-1" points="431.08 177.96 440.59 184.29 451.96 183.53 454.84 192.36 456.52 194.9 455.32 196.88 442.84 200.13 422.2 202.11 417.39 203.01 418.59 206.44 424.83 212.26 435.43 211.94 441.68 208.83 451.77 205.94 456.09 208.83 456.52 226.11 457.23 246.83 439.46 249.89 387.78 261.94 375.29 264.65 381.12 268.74 391.38 276.27 443.22 261.89 484.57 255.81 541.38 256.38 557.45 256.24 564.65 261.29 573.3 260.39 582.9 252.27 579.3 244.51 551.69 236.03 547.13 237.33 546.17 240.22 477.63 244.56 477.63 238.8 505.26 222.86 512.05 217.63 513.49 213.12 509.34 206.44 497.82 203.2 486.82 207.92 495.9 208.61 496.96 213.12 479.33 229 476.93 229.72 475.83 202.5 497.57 198.2 502.13 199.47 502.42 192.98 499.3 189.73 490.09 190.1 482.17 189.56 476.41 191.54 475.49 183.71 471.85 179.73 466.57 178.1 469.69 175.94 478.37 174.69 493.01 176.13 495.42 173.61 493.98 170.9 473.57 164.04 470.69 164.04 467.69 166.57 451.84 172.09 436.72 175.52 430.12 176.7 431.08 177.96"/>
  <path class="cls-1" d="M420.6,222.81s-.06,.06-.1,.09c-.24,.25-.4,.57-.56,.88-.78,1.54-1.55,3.08-2.33,4.62-.5,.98-2.29,3.32-1.88,4.39,.12,.31,.35,.58,.57,.84,1.1,1.33,1.97,2.84,3.04,4.2,2.5,3.2,7.02,4.87,10.55,6.85,.15,.08,1.66-.79,1.86-.87,.74-.32,1.54-.6,1.98-1.29,.2-.32,.3-.68,.4-1.04,1.02-3.89,2.05-7.43,4.63-10.65,2.69-3.34,5.46-6.68,8.86-9.38,1.74-1.39,2.64-2.62,2.05-4.88-1.64,.67-3.25,2.36-4.67,3.43-.39,.29-.78,.59-1.21,.82-1.59,.86-3.65,1.09-5.4,1.59-1.18,.33-2.83,1.1-4.07,1.1-1.66-.43-3.31-.85-4.97-1.28-1.12-.29-2.24-.58-3.36-.87-1.7-.43-3,.08-4.53,.9-.31,.16-.62,.33-.87,.56Z"/>
  <path class="cls-1" d="M378.82,316.11l6.79-1.23,16.96-5.62,7.92-3.19-.2-16.21-1.58-6.13,1.58-4.17h5.21l7.7,3.19v4.9l.02,13.77,2.94-.74,2.49-1.59,5.87,1.55,2.94,5.15,2.49,3.92-2.48,4.29-6.79-1.72-9.37,3.8,.98,8.09,1.36,3.19h7.02l7.02,9.56,1.36,6.87-1.81,4.17-6.34,2.15-1.58-5.33-4.53-6.13-2.43-2.23c.06,3.43,.13,6.86,.19,10.29,.14,7.49,.27,14.97,.41,22.46,.13,7.35,.27,14.7,.4,22.06,.04,2.32,.08,4.63,.13,6.95,.07,3.66-.84,7.15-1.54,10.75-.24,1.23-.48,2.45-.72,3.68-.26,1.32-.52,2.66-1.18,3.84-.69,1.25-1.78,2.23-2.64,3.38-1.16,1.56-2.05,3.95-4.34,3.72-1.89-.19-3.78-.38-5.67-.57-.22-.02-.47-.05-.62-.21-.11-.12-.16-.28-.2-.44-.56-2.21-1.17-4.42-2.67-6.24-2.71-3.29-2.86-4.67-6.23-7.31,.66-.6,1.66-1.95,2.48-2.25s2.04,.39,2.88,.65c2.11,.67,2.79,.66,3.35,.58,.14-.02,.27,.08,.4,.05,.22-.05,.66-.23,.78-.42,.38-.61,.71-1.1,.98-1.77,.19-.45,.18-.95,.16-1.44-.06-2.28-.11-4.56-.11-6.84v-58.86l-13.59,16.45-14.01,11.36-3.62-1.41,7.31-9.98,18.36-23.83,6.85-11.9-5.04,.38-17.22,8.86-3.62-1.72-6.55-7.88,1.36-2.7Z"/>
  <polygon class="cls-1" points="556.61 241.53 539.09 267.91 541.19 269.76 565.24 261.25 569.28 260.02 574.08 259.17 581.04 253.74 578.05 249.12 559.24 241.08 558.71 241.53 556.61 241.53"/>
  <g>
    <path class="cls-1" d="M540.58,316.55s6.59,1.13,6.59,1.13c2.02,1.01,4.03,2.01,6.05,3.02s5.01,1.15,5.7,3.37c.34,1.08,2.02,4.45,1.66,5.49-.4,1.14-4.65,2.99-5.8,2.99-.25,0-.48-.14-.69-.27-5.71-3.57-9.52-4.93-15.26-8.46,.69-2.77-1.59-5.08-1.59-5.08l3.34-2.17Z"/>
    <path class="cls-1" d="M518.86,349.33c4.06-2.38,6.13-4.09,9.26-7.76,2.29-2.68,4.84-5.43,7.13-8.11,.73-.85,1.46-1.71,2.03-2.68,.43-.72,.76-1.5,1.09-2.27,1.3-3.02,2.62-5.61,3.91-8.62,.62-1.45,1.47-3.33,2.1-4.78,.5-1.17,.4-1.52,1.62-2.16,.69-.36,1.33-.79,2.03-1.12,.71-.34,1.35-.82,2.08-1.09,.62-.22,1.28-.28,1.94-.33,4.42-.36,8.3-1.48,12.72-1.85,2.21-.19,4.32,.14,6.53-.05,1.06-.09,.98,.3,2.04,.37,.84,.06,1.69,.43,2.5,.69-.77,3.06-1.15,4.42-2.5,7.12-1.94,3.85-3.85,7.61-6.4,11.38-1.23,1.82-2.8,4.6-4.09,6.38-.97,1.34-1.64,3.17-3.01,4.14-1.61,1.13-5.93,4.65-7.63,5.51-2.06,1.04-5.03,3.05-7.49,3.43-.72,.11-1.46-.06-2.17,.09-1.48,.3-3.06,1.06-3.91,2.61-.04,1.77,.13,2.28,1.07,3.27,.22,.23,.61,.91,.93,1.06s1.11,.57,1.74,.69c2.74,.52,8.3,.41,12.79-2.01,.17-.09,.43-.23,.61-.23,.21,0,.4-.1,.59-.2,3.34-1.73,9.03-2.62,12.37-4.34,.42-.21,.84-.43,1.2-.73,.52-.43,.91-1.01,1.28-1.58,2.39-3.64,3.95-8.12,6.36-11.74,1.14-1.71,2.27-3.43,3.41-5.14,.62-.94,1.24-1.88,1.86-2.81,.2-.31,1.53-2.85,1.81-2.85,.91-1.37,1.59-2.36,2.53-3.7,2.02-2.89,3.55-6.3,5.23-9.44,.22-.4,.44-.83,.45-1.29,.02-.78-1.11-1.72-1.55-2.29-.77-.99-3.34-3.03-4.11-4.01-.35-.45-.71-.91-1.13-1.29-.66-.61-1.45-1.03-2.23-1.44-1-.53-1.99-1.05-2.99-1.58-1.77-.94-3.18-.17-4.95,.36-1.65,.49-3.29,.99-4.94,1.48-2.13,.64-4.26,1.28-6.39,1.91l-12.07,1.64,4.4-6.82-8.66-4.69-1.22-.51,2.07-.83,10.19-2.71,15.74-1.66,8.56,.74,1.99,4.46h3.12l5.68-1.64v-2.82l-3.69-5.46-11.65-4.62-3.12,1.39-17.97,2.9-.9-3.58-10.98-5.22h-3.69l-9.29,4.53,1.14,2.58,4.6,4.37-3.69,2.82-22.05,5.73-4.83-1.88-3.43,2.97,3.69,4.7,6.34,3.41,1.87-.6,22.78-7.41,2.22,5.09c-2.75,3.75-5.19,7.28-6.95,11.7-1.02,2.55-5.19,11.88-6.71,14.16-6.18,9.25-5.83,9.25-13.01,16.86-1.27,1.35-2.56,2.48-3.52,4.42-.4,.81,1.09,1.93,1.87,2.33l3.33,1.12,2.12-.43Z"/>
  </g>
</svg>