<?xml version="1.0" encoding="UTF-8"?>
<svg id="_图层_1" data-name="图层 1" xmlns="http://www.w3.org/2000/svg" viewBox="0 0 841.89 595.28">
  <defs>
    <style>
      .cls-1 {
        fill: #040000;
      }
    </style>
  </defs>
  <path class="cls-1" d="M406.34,277.34l7.4,7.4-1.8,4.47s-2.72,5.94,5.09,15.16l1.6,2.64-1.99,26.63-2.05,12.34,.81,4.3,5.19,9.13,4.63,.86,4.34-1.09,2.86-3.44,.89-3.59-.39-30.75-.33-11.7-.45-2.67-.16-9.37-.45-12.3,2.75-2,1.15-2.42s-8.55-8.18-24.26-6.39l-3.83,.85-1.02,1.96Z"/>
  <polygon class="cls-1" points="387 298.22 385.29 302.69 386.15 304.02 388.27 306.11 388.59 307.21 386.06 311.67 382.27 317.69 377.67 322.57 374.99 323.55 373.66 327.13 374.99 329.55 378.16 327.82 384.36 324.83 390.19 321.07 398.17 317.19 405.06 305.18 404.65 304.07 388.25 298.22 387 298.22"/>
  <polygon class="cls-1" points="396.92 310.79 402.66 314.17 408.38 316.08 413.49 317.19 418.3 311.67 422.13 315.13 422.81 330.83 418.85 335.43 414.89 329.55 407.69 327.73 398.33 323.11 392.86 320.93 389.36 320.23 394.6 307.85 396.92 310.79"/>
  <path class="cls-1" d="M300.84,264.13c.79,1.09,11.27-6.32,12.78-6.61,1.88-.35,3.81-.21,5.72-.13,3.27,.14,6.54,.09,9.8-.15,1.79-.13,3.66-.3,5.34,.34,2.77,1.07,8.38,5.56,8.63,8.76,.09,1.13-.26,2.25-.74,3.27-.53,1.13-1.23,2.19-2.21,2.96-3.97,3.11-7.98-1.63-12.13-.87-1.87,.34-3.3,1.78-4.66,3.1-3.22,3.13-7.26,7.28-11.42,9.01,.22-2.15,7.84-15.36,3.91-16.22-4.17-.92-12.19,.41-15.02-3.46Z"/>
  <path class="cls-1" d="M320,305.27c-1.92,1.24-2.61,4.07-3.4,6.01-1.2,2.93-2.52,5.82-3.79,8.73-.35,.79-.7,1.6-1.23,2.29-.39,.5-.87,.92-1.34,1.35-3.36,3-6.69,5-7.29,9.58-.15,1.11,6.68,3.74,7.62,4.21,4.65,2.33,11.82,4.51,15.26,8.43,.25,.28,.48,.58,.8,.78,.26,.16,.57,.25,.87,.33,3.65,.93,7.54,1,11.23,.22,3.67-.78,3.75-1.62,4.93-4.71,.44-1.14,2.13-5.11,1.29-6.19-.76-.98-4.92-1.25-6.23-1.92-.74-.38-1.43-.84-2.12-1.3-2.48-1.67-6.65-3.62-8.18-6.11-1.18-1.92-1.05-4.57-1.7-6.67-1.39-4.47-2.76-8.94-4.14-13.41-.11-.37-.23-.74-.47-1.05-.72-.92-1.43-.98-2.12-.54Z"/>
  <path class="cls-1" d="M328.05,364.4c-.09,.06-.17,.12-.25,.2-.4,.37-.63,.88-.86,1.37-1.15,2.57-2.12,5.23-2.9,7.94-.58,2.01-.59,5.09-1.82,6.8-.43,.6-1.08,1.02-1.7,1.42-2.34,1.5-4.88,2.89-7.04,4.64-.61,.5-4.39,5.59-4.38,5.59-.48,1.2-.97,2.41-1.45,3.61-.28,.69-.56,1.38-.66,2.12-.6,4.38,3.63,10.14,6.48,13.07,.26,.27,.54,.54,.89,.7,.45,.21,.96,.21,1.46,.2,1.96-.02,3.95-.04,5.86-.53,3.39-.87,4.8-3.2,6.75-5.84,2.32-3.14,4.57-6.34,6.58-9.7,2.2-3.66,6.45-9.87,6.19-14.3-.03-.53-.2-1.05-.37-1.56-1.4-4.26-2.79-8.53-4.19-12.79-.11-.33-.23-.68-.49-.92-.19-.17-.43-.26-.67-.35-1.67-.62-5.56-2.9-7.42-1.69Z"/>
  <polyline class="cls-1" points="377.9 362.2 352.24 367.28 340.96 365.4 346.15 372.44 347.93 376.97 353.8 377.18 402.36 367.53 453.82 363.65 484.45 361.43 506.28 363.98 484.89 379.64 509.45 382.58 540.87 389.94 545.96 380.27 528.14 356.09 511.41 353.42 429.81 356.95"/>
  <polygon class="cls-1" points="406.84 78.12 413.87 78.12 423.57 82.78 393.01 126.53 373.27 150.22 353.98 168.69 336.21 181.43 316.81 189.58 302.59 191.85 326.44 173.84 345.18 156.52 365.05 135.37 382.71 114.23 403.33 86.36 406.84 81.13 406.84 78.12"/>
  <path class="cls-1" d="M399.95,78.12l11.46,24.11,18.57,17.86,31.13,27.73,25.51,19.34,9.92,5.6,21.09-4.3s20.21,5.97,48.93-6.81c0,0-51.05-5.18-137.46-66.68h-7.21l-8.01-16.85h-13.92Z"/>
  <polygon class="cls-1" points="373.16 158.02 385.19 162.57 398.94 164.62 408.24 159.48 410.28 157.56 435.59 152.63 447.74 153.8 455.99 150.58 455.65 146.19 430.56 135.37 424.72 135.37 419.9 140.05 377.29 155.26 373.16 158.02"/>
  <path class="cls-1" d="M350.82,194.11v3.27s6.16,10.37,21.31,9.19h7.56v-3.92l46.37-11.41,29.58-4.1,7.22-5.56-13.75-10.53-11.69,1.46-8.61,3.8-25.39,8.78-20.58,6.76-12.97,1.79-9.33,.45-3.54-.22-6.19,.24Z"/>
  <polygon class="cls-1" points="396.92 158.49 403.43 180.12 404.85 238.49 409.36 243.79 420.94 241.09 428.9 241.74 426.26 182.23 428.82 176.32 415.07 161.07 402 156.45 396.92 158.49"/>
  <polygon class="cls-1" points="341.42 248.45 342.34 252.38 346.92 255.86 355.75 258.69 368.33 255.65 379.53 253.57 392.55 253.57 407.57 246.82 417.57 244.52 433.42 244.12 438.77 245.2 447.19 245.35 470.59 241.67 477.71 241.6 489.83 243.79 493.54 242.27 497.07 238.89 496.56 234.8 493.31 228.51 489.68 226.13 484.7 224.68 481.76 223.07 445.22 233.04 420.94 238.77 404.85 238.49 382.91 241.1 378.01 244.41 357.24 248.35 348.13 249.22 341.42 248.45"/>
  <polygon class="cls-1" points="376.67 224.92 365.18 219.96 365.18 217.74 373.72 213.44 385.67 213.3 393.22 214.95 397.79 217.58 398.69 219.11 398.4 221.71 398.2 224.92 402.22 236.12 409.36 243.79 407.21 248.56 406.9 255.27 408.13 262.52 411.95 266.25 406.84 272.87 396.92 271.61 395.24 270.67 388.56 248.87 382.91 241.1 376.67 224.92"/>
  <polygon class="cls-1" points="445.4 236.62 449.88 226.19 458.75 214.23 458.75 211.83 452.23 207.69 452.82 204.97 460.33 201.27 466.35 202.07 487.19 205.7 490.47 207.64 491.14 210.49 487.79 214.64 482.69 220.57 480.63 223.38 476.3 233.81 459.96 237.89 447.96 237.89 445.4 236.62"/>
  <polygon class="cls-1" points="389.74 273.49 383.08 275.92 383.09 280.12 390.51 280.92 413.66 277.21 428.9 275.03 444.13 273.49 457.04 272.43 460.82 268.97 461.17 263.49 456.32 259.54 445.4 256.91 441.88 257.44 436.97 257.93 433.84 259.13 430.18 262.56 428.12 263.9 418.16 266.09 407.87 267.34 398.85 272.69 389.74 273.49"/>
  <polygon class="cls-1" points="360.56 288.36 358.64 289.9 360.01 295.87 364.66 299.47 366.47 303.31 366.81 307.07 365.53 312.58 364.87 315.33 365.18 319.26 366.81 323.46 365.18 329.75 361.92 340.09 361.09 344.1 361.74 348.53 365.18 354.08 369.34 359.47 371.45 360.26 374.64 358.32 376.52 352.58 376.69 341.73 375.77 329.71 375.86 319.21 374.99 312.62 376.69 298.91 375.2 292.37 360.56 288.36"/>
  <path class="cls-1" d="M370.98,293.3l.59-.12,38.68-7.84,2.87-1.47,23.73-2.05,48.3-4.95,7.88-1.49h3.43s23.8,4.91,30.41,18.82l-1.23,2.17-2.89,2.06-1.15,1.05-10.92,40.52s-6.05,18.67-30.18,16.63l-.51-1.15s4.55-3.8-9.98-15.05l-.29-1.64,2.3-4.2,13.5,.55,8.24-44.42s1.78-13.42-27.38-6.3l-24.33,1.99s-9.03,1.43-10.25,2.13l-57.65,8.23-3.19-.26-1.15-1.79,1.15-1.4Z"/>
  <polygon class="cls-1" points="454.34 283.85 455.39 288.19 454.86 291.46 451.28 294.48 444.8 299.94 437.94 306.25 431.54 311.3 429.83 316.08 431.54 321.64 435.45 315.63 439.83 312.54 448.36 309.64 451.94 309.98 468 296.74 472.57 292.9 474.02 290.08 474.33 288.35 463.28 285.34 461.17 282.7 455.41 281.81 454.34 283.85"/>
  <path class="cls-1" d="M453.83,303l17.5,4.85s10.93,2.52,7.89,12.43c0,0-2.23,3.19-6.02,3.49l-26.89-18.6,7.53-2.17Z"/>
  <polygon class="cls-1" points="400.55 420.96 402.07 423.85 404.17 425.26 405.63 426.18 405.63 427.66 405.63 430.06 408.85 432.86 409.78 436.87 409.78 440.49 409.58 445.13 409.78 449.43 409 457.37 408.12 462.28 407.45 468.85 412.16 474.48 421.44 472.81 426.92 466.27 428.38 461.04 430.8 455.1 431.36 450.37 433.15 443.15 436.14 434.53 429.49 428.68 411.71 416.68 407.14 415.77 401.67 418.05 400.55 420.96"/>
  <path class="cls-1" d="M367.97,386.54l9.41,10.43,4.14,24.44,4.9,6.56,11.91-6.93v-4.94s-9.28-7.5-1.74-16.98v-1.25s-6.78-7.71-6.78-7.71l-12.05-4.52-9.79,.89Z"/>
  <path class="cls-1" d="M386.94,395.51l3.7-5.57,36.46-10.25,18.64-9.54,10.73,1.79,21.47,12.82-.38,7.15-5.93,1.79-14.4,15.2,1.13,5.46-6.4,4.37-15.82-11.05,3.47-17.74s1.44-3.77-3.47-3.74l-43.46,12.54-4.6,.26-1.15-3.49Z"/>
  <polygon class="cls-1" points="390.51 419.94 400.55 415.35 422.88 409.56 436.88 408.2 441.96 406.81 452.43 416.49 451.15 418.73 445.74 417.54 410.68 422.74 404.3 423.38 386.43 427.97 386.94 424.79 390.51 419.94"/>
  <polygon class="cls-1" points="375.13 447.34 374.75 451.22 382.66 455.39 421.26 446.4 430.85 445.13 467.02 443.47 470.03 438.7 464.38 433.33 449.7 429.16 430.34 436.36 411.11 440.79 375.13 447.34"/>
  <polygon class="cls-1" points="334.46 473.27 332.2 475.36 346.89 488.17 353.74 488.17 409.78 476.25 453.84 472.08 477.19 473.87 500.16 484 510.33 478.34 510.33 468.8 484.72 454.49 472.41 456.07 418.35 467.51 407.89 465.22 403.75 467.61 343.87 475.36 334.46 473.27"/>
</svg>